<?xml version="1.0" encoding="utf-8" standalone="no"?>
<!DOCTYPE svg PUBLIC "-//W3C//DTD SVG 1.1//EN"
  "http://www.w3.org/Graphics/SVG/1.1/DTD/svg11.dtd">
<svg xmlns:xlink="http://www.w3.org/1999/xlink" width="541.018125pt" height="522.526625pt" viewBox="0 0 541.018125 522.526625" xmlns="http://www.w3.org/2000/svg" version="1.1">
 <metadata>
  <rdf:RDF xmlns:dc="http://purl.org/dc/elements/1.1/" xmlns:cc="http://creativecommons.org/ns#" xmlns:rdf="http://www.w3.org/1999/02/22-rdf-syntax-ns#">
   <cc:Work>
    <dc:type rdf:resource="http://purl.org/dc/dcmitype/StillImage"/>
    <dc:date>2023-12-14T22:32:38.242722</dc:date>
    <dc:format>image/svg+xml</dc:format>
    <dc:creator>
     <cc:Agent>
      <dc:title>Matplotlib v3.7.1, https://matplotlib.org/</dc:title>
     </cc:Agent>
    </dc:creator>
   </cc:Work>
  </rdf:RDF>
 </metadata>
 <defs>
  <style type="text/css">*{stroke-linejoin: round; stroke-linecap: butt}</style>
 </defs>
 <g id="figure_1">
  <g id="patch_1">
   <path d="M 0 522.526625 
L 541.018125 522.526625 
L 541.018125 0 
L 0 0 
z
" style="fill: #ffffff"/>
  </g>
  <g id="axes_1">
   <g id="patch_2">
    <path d="M 45.716875 483.03475 
L 492.116875 483.03475 
L 492.116875 39.51475 
L 45.716875 39.51475 
z
" style="fill: #ffffff"/>
   </g>
   <g id="matplotlib.axis_1">
    <g id="xtick_1">
     <g id="line2d_1">
      <defs>
       <path id="m75abe18a9b" d="M 0 0 
L 0 3.5 
" style="stroke: #000000; stroke-width: 0.8"/>
      </defs>
      <g>
       <use xlink:href="#m75abe18a9b" x="66.007784" y="483.03475" style="stroke: #000000; stroke-width: 0.8"/>
      </g>
     </g>
     <g id="text_1">
      <!-- 0 -->
      <g transform="translate(62.826534 497.633187) scale(0.1 -0.1)">
       <defs>
        <path id="DejaVuSans-30" d="M 2034 4250 
Q 1547 4250 1301 3770 
Q 1056 3291 1056 2328 
Q 1056 1369 1301 889 
Q 1547 409 2034 409 
Q 2525 409 2770 889 
Q 3016 1369 3016 2328 
Q 3016 3291 2770 3770 
Q 2525 4250 2034 4250 
z
M 2034 4750 
Q 2819 4750 3233 4129 
Q 3647 3509 3647 2328 
Q 3647 1150 3233 529 
Q 2819 -91 2034 -91 
Q 1250 -91 836 529 
Q 422 1150 422 2328 
Q 422 3509 836 4129 
Q 1250 4750 2034 4750 
z
" transform="scale(0.015625)"/>
       </defs>
       <use xlink:href="#DejaVuSans-30"/>
      </g>
     </g>
    </g>
    <g id="xtick_2">
     <g id="line2d_2">
      <g>
       <use xlink:href="#m75abe18a9b" x="147.991255" y="483.03475" style="stroke: #000000; stroke-width: 0.8"/>
      </g>
     </g>
     <g id="text_2">
      <!-- 20 -->
      <g transform="translate(141.628755 497.633187) scale(0.1 -0.1)">
       <defs>
        <path id="DejaVuSans-32" d="M 1228 531 
L 3431 531 
L 3431 0 
L 469 0 
L 469 531 
Q 828 903 1448 1529 
Q 2069 2156 2228 2338 
Q 2531 2678 2651 2914 
Q 2772 3150 2772 3378 
Q 2772 3750 2511 3984 
Q 2250 4219 1831 4219 
Q 1534 4219 1204 4116 
Q 875 4013 500 3803 
L 500 4441 
Q 881 4594 1212 4672 
Q 1544 4750 1819 4750 
Q 2544 4750 2975 4387 
Q 3406 4025 3406 3419 
Q 3406 3131 3298 2873 
Q 3191 2616 2906 2266 
Q 2828 2175 2409 1742 
Q 1991 1309 1228 531 
z
" transform="scale(0.015625)"/>
       </defs>
       <use xlink:href="#DejaVuSans-32"/>
       <use xlink:href="#DejaVuSans-30" x="63.623047"/>
      </g>
     </g>
    </g>
    <g id="xtick_3">
     <g id="line2d_3">
      <g>
       <use xlink:href="#m75abe18a9b" x="229.974726" y="483.03475" style="stroke: #000000; stroke-width: 0.8"/>
      </g>
     </g>
     <g id="text_3">
      <!-- 40 -->
      <g transform="translate(223.612226 497.633187) scale(0.1 -0.1)">
       <defs>
        <path id="DejaVuSans-34" d="M 2419 4116 
L 825 1625 
L 2419 1625 
L 2419 4116 
z
M 2253 4666 
L 3047 4666 
L 3047 1625 
L 3713 1625 
L 3713 1100 
L 3047 1100 
L 3047 0 
L 2419 0 
L 2419 1100 
L 313 1100 
L 313 1709 
L 2253 4666 
z
" transform="scale(0.015625)"/>
       </defs>
       <use xlink:href="#DejaVuSans-34"/>
       <use xlink:href="#DejaVuSans-30" x="63.623047"/>
      </g>
     </g>
    </g>
    <g id="xtick_4">
     <g id="line2d_4">
      <g>
       <use xlink:href="#m75abe18a9b" x="311.958197" y="483.03475" style="stroke: #000000; stroke-width: 0.8"/>
      </g>
     </g>
     <g id="text_4">
      <!-- 60 -->
      <g transform="translate(305.595697 497.633187) scale(0.1 -0.1)">
       <defs>
        <path id="DejaVuSans-36" d="M 2113 2584 
Q 1688 2584 1439 2293 
Q 1191 2003 1191 1497 
Q 1191 994 1439 701 
Q 1688 409 2113 409 
Q 2538 409 2786 701 
Q 3034 994 3034 1497 
Q 3034 2003 2786 2293 
Q 2538 2584 2113 2584 
z
M 3366 4563 
L 3366 3988 
Q 3128 4100 2886 4159 
Q 2644 4219 2406 4219 
Q 1781 4219 1451 3797 
Q 1122 3375 1075 2522 
Q 1259 2794 1537 2939 
Q 1816 3084 2150 3084 
Q 2853 3084 3261 2657 
Q 3669 2231 3669 1497 
Q 3669 778 3244 343 
Q 2819 -91 2113 -91 
Q 1303 -91 875 529 
Q 447 1150 447 2328 
Q 447 3434 972 4092 
Q 1497 4750 2381 4750 
Q 2619 4750 2861 4703 
Q 3103 4656 3366 4563 
z
" transform="scale(0.015625)"/>
       </defs>
       <use xlink:href="#DejaVuSans-36"/>
       <use xlink:href="#DejaVuSans-30" x="63.623047"/>
      </g>
     </g>
    </g>
    <g id="xtick_5">
     <g id="line2d_5">
      <g>
       <use xlink:href="#m75abe18a9b" x="393.941668" y="483.03475" style="stroke: #000000; stroke-width: 0.8"/>
      </g>
     </g>
     <g id="text_5">
      <!-- 80 -->
      <g transform="translate(387.579168 497.633187) scale(0.1 -0.1)">
       <defs>
        <path id="DejaVuSans-38" d="M 2034 2216 
Q 1584 2216 1326 1975 
Q 1069 1734 1069 1313 
Q 1069 891 1326 650 
Q 1584 409 2034 409 
Q 2484 409 2743 651 
Q 3003 894 3003 1313 
Q 3003 1734 2745 1975 
Q 2488 2216 2034 2216 
z
M 1403 2484 
Q 997 2584 770 2862 
Q 544 3141 544 3541 
Q 544 4100 942 4425 
Q 1341 4750 2034 4750 
Q 2731 4750 3128 4425 
Q 3525 4100 3525 3541 
Q 3525 3141 3298 2862 
Q 3072 2584 2669 2484 
Q 3125 2378 3379 2068 
Q 3634 1759 3634 1313 
Q 3634 634 3220 271 
Q 2806 -91 2034 -91 
Q 1263 -91 848 271 
Q 434 634 434 1313 
Q 434 1759 690 2068 
Q 947 2378 1403 2484 
z
M 1172 3481 
Q 1172 3119 1398 2916 
Q 1625 2713 2034 2713 
Q 2441 2713 2670 2916 
Q 2900 3119 2900 3481 
Q 2900 3844 2670 4047 
Q 2441 4250 2034 4250 
Q 1625 4250 1398 4047 
Q 1172 3844 1172 3481 
z
" transform="scale(0.015625)"/>
       </defs>
       <use xlink:href="#DejaVuSans-38"/>
       <use xlink:href="#DejaVuSans-30" x="63.623047"/>
      </g>
     </g>
    </g>
    <g id="xtick_6">
     <g id="line2d_6">
      <g>
       <use xlink:href="#m75abe18a9b" x="475.925139" y="483.03475" style="stroke: #000000; stroke-width: 0.8"/>
      </g>
     </g>
     <g id="text_6">
      <!-- 100 -->
      <g transform="translate(466.381389 497.633187) scale(0.1 -0.1)">
       <defs>
        <path id="DejaVuSans-31" d="M 794 531 
L 1825 531 
L 1825 4091 
L 703 3866 
L 703 4441 
L 1819 4666 
L 2450 4666 
L 2450 531 
L 3481 531 
L 3481 0 
L 794 0 
L 794 531 
z
" transform="scale(0.015625)"/>
       </defs>
       <use xlink:href="#DejaVuSans-31"/>
       <use xlink:href="#DejaVuSans-30" x="63.623047"/>
       <use xlink:href="#DejaVuSans-30" x="127.246094"/>
      </g>
     </g>
    </g>
    <g id="text_7">
     <!-- Epochs number -->
     <g transform="translate(222.094375 512.831) scale(0.12 -0.12)">
      <defs>
       <path id="DejaVuSans-45" d="M 628 4666 
L 3578 4666 
L 3578 4134 
L 1259 4134 
L 1259 2753 
L 3481 2753 
L 3481 2222 
L 1259 2222 
L 1259 531 
L 3634 531 
L 3634 0 
L 628 0 
L 628 4666 
z
" transform="scale(0.015625)"/>
       <path id="DejaVuSans-70" d="M 1159 525 
L 1159 -1331 
L 581 -1331 
L 581 3500 
L 1159 3500 
L 1159 2969 
Q 1341 3281 1617 3432 
Q 1894 3584 2278 3584 
Q 2916 3584 3314 3078 
Q 3713 2572 3713 1747 
Q 3713 922 3314 415 
Q 2916 -91 2278 -91 
Q 1894 -91 1617 61 
Q 1341 213 1159 525 
z
M 3116 1747 
Q 3116 2381 2855 2742 
Q 2594 3103 2138 3103 
Q 1681 3103 1420 2742 
Q 1159 2381 1159 1747 
Q 1159 1113 1420 752 
Q 1681 391 2138 391 
Q 2594 391 2855 752 
Q 3116 1113 3116 1747 
z
" transform="scale(0.015625)"/>
       <path id="DejaVuSans-6f" d="M 1959 3097 
Q 1497 3097 1228 2736 
Q 959 2375 959 1747 
Q 959 1119 1226 758 
Q 1494 397 1959 397 
Q 2419 397 2687 759 
Q 2956 1122 2956 1747 
Q 2956 2369 2687 2733 
Q 2419 3097 1959 3097 
z
M 1959 3584 
Q 2709 3584 3137 3096 
Q 3566 2609 3566 1747 
Q 3566 888 3137 398 
Q 2709 -91 1959 -91 
Q 1206 -91 779 398 
Q 353 888 353 1747 
Q 353 2609 779 3096 
Q 1206 3584 1959 3584 
z
" transform="scale(0.015625)"/>
       <path id="DejaVuSans-63" d="M 3122 3366 
L 3122 2828 
Q 2878 2963 2633 3030 
Q 2388 3097 2138 3097 
Q 1578 3097 1268 2742 
Q 959 2388 959 1747 
Q 959 1106 1268 751 
Q 1578 397 2138 397 
Q 2388 397 2633 464 
Q 2878 531 3122 666 
L 3122 134 
Q 2881 22 2623 -34 
Q 2366 -91 2075 -91 
Q 1284 -91 818 406 
Q 353 903 353 1747 
Q 353 2603 823 3093 
Q 1294 3584 2113 3584 
Q 2378 3584 2631 3529 
Q 2884 3475 3122 3366 
z
" transform="scale(0.015625)"/>
       <path id="DejaVuSans-68" d="M 3513 2113 
L 3513 0 
L 2938 0 
L 2938 2094 
Q 2938 2591 2744 2837 
Q 2550 3084 2163 3084 
Q 1697 3084 1428 2787 
Q 1159 2491 1159 1978 
L 1159 0 
L 581 0 
L 581 4863 
L 1159 4863 
L 1159 2956 
Q 1366 3272 1645 3428 
Q 1925 3584 2291 3584 
Q 2894 3584 3203 3211 
Q 3513 2838 3513 2113 
z
" transform="scale(0.015625)"/>
       <path id="DejaVuSans-73" d="M 2834 3397 
L 2834 2853 
Q 2591 2978 2328 3040 
Q 2066 3103 1784 3103 
Q 1356 3103 1142 2972 
Q 928 2841 928 2578 
Q 928 2378 1081 2264 
Q 1234 2150 1697 2047 
L 1894 2003 
Q 2506 1872 2764 1633 
Q 3022 1394 3022 966 
Q 3022 478 2636 193 
Q 2250 -91 1575 -91 
Q 1294 -91 989 -36 
Q 684 19 347 128 
L 347 722 
Q 666 556 975 473 
Q 1284 391 1588 391 
Q 1994 391 2212 530 
Q 2431 669 2431 922 
Q 2431 1156 2273 1281 
Q 2116 1406 1581 1522 
L 1381 1569 
Q 847 1681 609 1914 
Q 372 2147 372 2553 
Q 372 3047 722 3315 
Q 1072 3584 1716 3584 
Q 2034 3584 2315 3537 
Q 2597 3491 2834 3397 
z
" transform="scale(0.015625)"/>
       <path id="DejaVuSans-20" transform="scale(0.015625)"/>
       <path id="DejaVuSans-6e" d="M 3513 2113 
L 3513 0 
L 2938 0 
L 2938 2094 
Q 2938 2591 2744 2837 
Q 2550 3084 2163 3084 
Q 1697 3084 1428 2787 
Q 1159 2491 1159 1978 
L 1159 0 
L 581 0 
L 581 3500 
L 1159 3500 
L 1159 2956 
Q 1366 3272 1645 3428 
Q 1925 3584 2291 3584 
Q 2894 3584 3203 3211 
Q 3513 2838 3513 2113 
z
" transform="scale(0.015625)"/>
       <path id="DejaVuSans-75" d="M 544 1381 
L 544 3500 
L 1119 3500 
L 1119 1403 
Q 1119 906 1312 657 
Q 1506 409 1894 409 
Q 2359 409 2629 706 
Q 2900 1003 2900 1516 
L 2900 3500 
L 3475 3500 
L 3475 0 
L 2900 0 
L 2900 538 
Q 2691 219 2414 64 
Q 2138 -91 1772 -91 
Q 1169 -91 856 284 
Q 544 659 544 1381 
z
M 1991 3584 
L 1991 3584 
z
" transform="scale(0.015625)"/>
       <path id="DejaVuSans-6d" d="M 3328 2828 
Q 3544 3216 3844 3400 
Q 4144 3584 4550 3584 
Q 5097 3584 5394 3201 
Q 5691 2819 5691 2113 
L 5691 0 
L 5113 0 
L 5113 2094 
Q 5113 2597 4934 2840 
Q 4756 3084 4391 3084 
Q 3944 3084 3684 2787 
Q 3425 2491 3425 1978 
L 3425 0 
L 2847 0 
L 2847 2094 
Q 2847 2600 2669 2842 
Q 2491 3084 2119 3084 
Q 1678 3084 1418 2786 
Q 1159 2488 1159 1978 
L 1159 0 
L 581 0 
L 581 3500 
L 1159 3500 
L 1159 2956 
Q 1356 3278 1631 3431 
Q 1906 3584 2284 3584 
Q 2666 3584 2933 3390 
Q 3200 3197 3328 2828 
z
" transform="scale(0.015625)"/>
       <path id="DejaVuSans-62" d="M 3116 1747 
Q 3116 2381 2855 2742 
Q 2594 3103 2138 3103 
Q 1681 3103 1420 2742 
Q 1159 2381 1159 1747 
Q 1159 1113 1420 752 
Q 1681 391 2138 391 
Q 2594 391 2855 752 
Q 3116 1113 3116 1747 
z
M 1159 2969 
Q 1341 3281 1617 3432 
Q 1894 3584 2278 3584 
Q 2916 3584 3314 3078 
Q 3713 2572 3713 1747 
Q 3713 922 3314 415 
Q 2916 -91 2278 -91 
Q 1894 -91 1617 61 
Q 1341 213 1159 525 
L 1159 0 
L 581 0 
L 581 4863 
L 1159 4863 
L 1159 2969 
z
" transform="scale(0.015625)"/>
       <path id="DejaVuSans-65" d="M 3597 1894 
L 3597 1613 
L 953 1613 
Q 991 1019 1311 708 
Q 1631 397 2203 397 
Q 2534 397 2845 478 
Q 3156 559 3463 722 
L 3463 178 
Q 3153 47 2828 -22 
Q 2503 -91 2169 -91 
Q 1331 -91 842 396 
Q 353 884 353 1716 
Q 353 2575 817 3079 
Q 1281 3584 2069 3584 
Q 2775 3584 3186 3129 
Q 3597 2675 3597 1894 
z
M 3022 2063 
Q 3016 2534 2758 2815 
Q 2500 3097 2075 3097 
Q 1594 3097 1305 2825 
Q 1016 2553 972 2059 
L 3022 2063 
z
" transform="scale(0.015625)"/>
       <path id="DejaVuSans-72" d="M 2631 2963 
Q 2534 3019 2420 3045 
Q 2306 3072 2169 3072 
Q 1681 3072 1420 2755 
Q 1159 2438 1159 1844 
L 1159 0 
L 581 0 
L 581 3500 
L 1159 3500 
L 1159 2956 
Q 1341 3275 1631 3429 
Q 1922 3584 2338 3584 
Q 2397 3584 2469 3576 
Q 2541 3569 2628 3553 
L 2631 2963 
z
" transform="scale(0.015625)"/>
      </defs>
      <use xlink:href="#DejaVuSans-45"/>
      <use xlink:href="#DejaVuSans-70" x="63.183594"/>
      <use xlink:href="#DejaVuSans-6f" x="126.660156"/>
      <use xlink:href="#DejaVuSans-63" x="187.841797"/>
      <use xlink:href="#DejaVuSans-68" x="242.822266"/>
      <use xlink:href="#DejaVuSans-73" x="306.201172"/>
      <use xlink:href="#DejaVuSans-20" x="358.300781"/>
      <use xlink:href="#DejaVuSans-6e" x="390.087891"/>
      <use xlink:href="#DejaVuSans-75" x="453.466797"/>
      <use xlink:href="#DejaVuSans-6d" x="516.845703"/>
      <use xlink:href="#DejaVuSans-62" x="614.257812"/>
      <use xlink:href="#DejaVuSans-65" x="677.734375"/>
      <use xlink:href="#DejaVuSans-72" x="739.257812"/>
     </g>
    </g>
   </g>
   <g id="matplotlib.axis_2">
    <g id="ytick_1">
     <g id="line2d_7">
      <defs>
       <path id="m26daa0d0db" d="M 0 0 
L -3.5 0 
" style="stroke: #000000; stroke-width: 0.8"/>
      </defs>
      <g>
       <use xlink:href="#m26daa0d0db" x="45.716875" y="438.893172" style="stroke: #000000; stroke-width: 0.8"/>
      </g>
     </g>
     <g id="text_8">
      <!-- 0.2 -->
      <g transform="translate(22.81375 442.692391) scale(0.1 -0.1)">
       <defs>
        <path id="DejaVuSans-2e" d="M 684 794 
L 1344 794 
L 1344 0 
L 684 0 
L 684 794 
z
" transform="scale(0.015625)"/>
       </defs>
       <use xlink:href="#DejaVuSans-30"/>
       <use xlink:href="#DejaVuSans-2e" x="63.623047"/>
       <use xlink:href="#DejaVuSans-32" x="95.410156"/>
      </g>
     </g>
    </g>
    <g id="ytick_2">
     <g id="line2d_8">
      <g>
       <use xlink:href="#m26daa0d0db" x="45.716875" y="367.460649" style="stroke: #000000; stroke-width: 0.8"/>
      </g>
     </g>
     <g id="text_9">
      <!-- 0.4 -->
      <g transform="translate(22.81375 371.259868) scale(0.1 -0.1)">
       <use xlink:href="#DejaVuSans-30"/>
       <use xlink:href="#DejaVuSans-2e" x="63.623047"/>
       <use xlink:href="#DejaVuSans-34" x="95.410156"/>
      </g>
     </g>
    </g>
    <g id="ytick_3">
     <g id="line2d_9">
      <g>
       <use xlink:href="#m26daa0d0db" x="45.716875" y="296.028126" style="stroke: #000000; stroke-width: 0.8"/>
      </g>
     </g>
     <g id="text_10">
      <!-- 0.6 -->
      <g transform="translate(22.81375 299.827345) scale(0.1 -0.1)">
       <use xlink:href="#DejaVuSans-30"/>
       <use xlink:href="#DejaVuSans-2e" x="63.623047"/>
       <use xlink:href="#DejaVuSans-36" x="95.410156"/>
      </g>
     </g>
    </g>
    <g id="ytick_4">
     <g id="line2d_10">
      <g>
       <use xlink:href="#m26daa0d0db" x="45.716875" y="224.595603" style="stroke: #000000; stroke-width: 0.8"/>
      </g>
     </g>
     <g id="text_11">
      <!-- 0.8 -->
      <g transform="translate(22.81375 228.394822) scale(0.1 -0.1)">
       <use xlink:href="#DejaVuSans-30"/>
       <use xlink:href="#DejaVuSans-2e" x="63.623047"/>
       <use xlink:href="#DejaVuSans-38" x="95.410156"/>
      </g>
     </g>
    </g>
    <g id="ytick_5">
     <g id="line2d_11">
      <g>
       <use xlink:href="#m26daa0d0db" x="45.716875" y="153.16308" style="stroke: #000000; stroke-width: 0.8"/>
      </g>
     </g>
     <g id="text_12">
      <!-- 1.0 -->
      <g transform="translate(22.81375 156.962299) scale(0.1 -0.1)">
       <use xlink:href="#DejaVuSans-31"/>
       <use xlink:href="#DejaVuSans-2e" x="63.623047"/>
       <use xlink:href="#DejaVuSans-30" x="95.410156"/>
      </g>
     </g>
    </g>
    <g id="ytick_6">
     <g id="line2d_12">
      <g>
       <use xlink:href="#m26daa0d0db" x="45.716875" y="81.730557" style="stroke: #000000; stroke-width: 0.8"/>
      </g>
     </g>
     <g id="text_13">
      <!-- 1.2 -->
      <g transform="translate(22.81375 85.529776) scale(0.1 -0.1)">
       <use xlink:href="#DejaVuSans-31"/>
       <use xlink:href="#DejaVuSans-2e" x="63.623047"/>
       <use xlink:href="#DejaVuSans-32" x="95.410156"/>
      </g>
     </g>
    </g>
    <g id="text_14">
     <!-- MSE loss -->
     <g transform="translate(16.318125 287.548187) rotate(-90) scale(0.12 -0.12)">
      <defs>
       <path id="DejaVuSans-4d" d="M 628 4666 
L 1569 4666 
L 2759 1491 
L 3956 4666 
L 4897 4666 
L 4897 0 
L 4281 0 
L 4281 4097 
L 3078 897 
L 2444 897 
L 1241 4097 
L 1241 0 
L 628 0 
L 628 4666 
z
" transform="scale(0.015625)"/>
       <path id="DejaVuSans-53" d="M 3425 4513 
L 3425 3897 
Q 3066 4069 2747 4153 
Q 2428 4238 2131 4238 
Q 1616 4238 1336 4038 
Q 1056 3838 1056 3469 
Q 1056 3159 1242 3001 
Q 1428 2844 1947 2747 
L 2328 2669 
Q 3034 2534 3370 2195 
Q 3706 1856 3706 1288 
Q 3706 609 3251 259 
Q 2797 -91 1919 -91 
Q 1588 -91 1214 -16 
Q 841 59 441 206 
L 441 856 
Q 825 641 1194 531 
Q 1563 422 1919 422 
Q 2459 422 2753 634 
Q 3047 847 3047 1241 
Q 3047 1584 2836 1778 
Q 2625 1972 2144 2069 
L 1759 2144 
Q 1053 2284 737 2584 
Q 422 2884 422 3419 
Q 422 4038 858 4394 
Q 1294 4750 2059 4750 
Q 2388 4750 2728 4690 
Q 3069 4631 3425 4513 
z
" transform="scale(0.015625)"/>
       <path id="DejaVuSans-6c" d="M 603 4863 
L 1178 4863 
L 1178 0 
L 603 0 
L 603 4863 
z
" transform="scale(0.015625)"/>
      </defs>
      <use xlink:href="#DejaVuSans-4d"/>
      <use xlink:href="#DejaVuSans-53" x="86.279297"/>
      <use xlink:href="#DejaVuSans-45" x="149.755859"/>
      <use xlink:href="#DejaVuSans-20" x="212.939453"/>
      <use xlink:href="#DejaVuSans-6c" x="244.726562"/>
      <use xlink:href="#DejaVuSans-6f" x="272.509766"/>
      <use xlink:href="#DejaVuSans-73" x="333.691406"/>
      <use xlink:href="#DejaVuSans-73" x="385.791016"/>
     </g>
    </g>
   </g>
   <g id="line2d_13">
    <path d="M 66.007784 164.481457 
L 70.106958 62.211962 
L 74.206131 158.189371 
L 78.305305 157.708718 
L 82.404478 141.710308 
L 86.503652 143.847594 
L 90.602825 155.355907 
L 94.701999 163.596067 
L 98.801173 164.840276 
L 102.900346 160.065126 
L 106.99952 156.380142 
L 111.098693 157.178016 
L 115.197867 160.669998 
L 119.29704 164.515945 
L 123.396214 166.976369 
L 127.495387 168.256045 
L 131.594561 169.143671 
L 135.693735 170.286547 
L 139.792908 172.579409 
L 143.892082 176.479067 
L 147.991255 182.175479 
L 152.090429 189.846085 
L 156.189602 199.2364 
L 160.288776 210.094902 
L 164.387949 222.306696 
L 168.487123 235.454889 
L 172.586296 249.324145 
L 176.68547 263.63465 
L 180.784644 278.302717 
L 184.883817 293.185457 
L 188.982991 308.083909 
L 193.082164 322.735988 
L 197.181338 337.007737 
L 201.280511 350.50008 
L 205.379685 363.080879 
L 209.478858 374.701138 
L 213.578032 385.245517 
L 217.677206 394.739796 
L 221.776379 403.27478 
L 225.875553 410.804424 
L 229.974726 417.382895 
L 234.0739 423.107349 
L 238.173073 428.02891 
L 242.272247 432.282453 
L 246.37142 435.89289 
L 250.470594 438.970475 
L 254.569768 441.478724 
L 258.668941 443.498938 
L 262.768115 445.25882 
L 266.867288 447.231657 
L 270.966462 449.457971 
L 275.065635 451.049343 
L 279.164809 451.86578 
L 283.263982 452.719143 
L 287.363156 454.023907 
L 291.46233 455.227636 
L 295.561503 455.810602 
L 299.660677 456.251084 
L 303.75985 457.076957 
L 307.859024 457.913842 
L 311.958197 458.330256 
L 316.057371 458.598694 
L 320.156544 459.095575 
L 324.255718 459.66656 
L 328.354892 459.969555 
L 332.454065 460.118064 
L 336.553239 460.406704 
L 340.652412 460.784028 
L 344.751586 461.023711 
L 348.850759 461.117316 
L 352.949933 461.247075 
L 357.049106 461.479275 
L 361.14828 461.682974 
L 365.247454 461.775154 
L 369.346627 461.826087 
L 373.445801 461.927883 
L 377.544974 462.075035 
L 381.644148 462.188482 
L 385.743321 462.238526 
L 389.842495 462.267851 
L 393.941668 462.323834 
L 398.040842 462.409324 
L 402.140015 462.486878 
L 406.239189 462.531547 
L 410.338363 462.55093 
L 414.437536 462.569499 
L 418.53671 462.604151 
L 422.635883 462.650443 
L 426.735057 462.69533 
L 430.83423 462.727194 
L 434.933404 462.744613 
L 439.032577 462.753757 
L 443.131751 462.76208 
L 447.230925 462.774752 
L 451.330098 462.791671 
L 455.429272 462.811752 
L 459.528445 462.831502 
L 463.627619 462.849198 
L 467.726792 462.863616 
L 471.825966 462.87475 
" clip-path="url(#p0b27faf8b4)" style="fill: none; stroke: #008000; stroke-width: 1.5; stroke-linecap: square"/>
   </g>
   <g id="line2d_14">
    <path d="M 66.007784 162.790614 
L 70.106958 59.67475 
L 74.206131 156.42438 
L 78.305305 155.98805 
L 82.404478 139.886986 
L 86.503652 142.033468 
L 90.602825 153.612822 
L 94.701999 161.899646 
L 98.801173 163.140194 
L 102.900346 158.321956 
L 106.99952 154.609999 
L 111.098693 155.417133 
L 115.197867 158.936663 
L 119.29704 162.811073 
L 123.396214 165.290508 
L 127.495387 166.582425 
L 131.594561 167.480035 
L 135.693735 168.633257 
L 139.792908 170.941724 
L 143.892082 174.865736 
L 147.991255 180.596805 
L 152.090429 188.313011 
L 156.189602 197.75708 
L 160.288776 208.675105 
L 164.387949 220.952085 
L 168.487123 234.168166 
L 172.586296 248.105014 
L 176.68547 262.480768 
L 180.784644 277.214403 
L 184.883817 292.162819 
L 188.982991 307.122646 
L 193.082164 321.831565 
L 197.181338 336.158462 
L 201.280511 349.699268 
L 205.379685 362.320473 
L 209.478858 373.975806 
L 213.578032 384.548243 
L 217.677206 394.063629 
L 221.776379 402.615048 
L 225.875553 410.155421 
L 229.974726 416.73997 
L 234.0739 422.467867 
L 238.173073 427.388364 
L 242.272247 431.641652 
L 246.37142 435.247294 
L 250.470594 438.323255 
L 254.569768 440.824511 
L 258.668941 442.841558 
L 262.768115 444.594894 
L 266.867288 446.567278 
L 270.966462 448.795407 
L 275.065635 450.38637 
L 279.164809 451.198698 
L 283.263982 452.049117 
L 287.363156 453.355537 
L 291.46233 454.560368 
L 295.561503 455.141029 
L 299.660677 455.580409 
L 303.75985 456.405766 
L 307.859024 457.244732 
L 311.958197 457.660407 
L 316.057371 457.926482 
L 320.156544 458.424394 
L 324.255718 458.996035 
L 328.354892 459.298587 
L 332.454065 459.446011 
L 336.553239 459.734476 
L 340.652412 460.112545 
L 344.751586 460.352216 
L 348.850759 460.444933 
L 352.949933 460.574565 
L 357.049106 460.806871 
L 361.14828 461.011108 
L 365.247454 461.10317 
L 369.346627 461.153448 
L 373.445801 461.255623 
L 377.544974 461.403041 
L 381.644148 461.516833 
L 385.743321 461.566792 
L 389.842495 461.596074 
L 393.941668 461.65184 
L 398.040842 461.737776 
L 402.140015 461.815309 
L 406.239189 461.859893 
L 410.338363 461.879143 
L 414.437536 461.897244 
L 418.53671 461.931859 
L 422.635883 461.977933 
L 426.735057 462.022697 
L 430.83423 462.054332 
L 434.933404 462.071453 
L 439.032577 462.080187 
L 443.131751 462.088266 
L 447.230925 462.100496 
L 451.330098 462.117287 
L 455.429272 462.136979 
L 459.528445 462.15665 
L 463.627619 462.174005 
L 467.726792 462.18829 
L 471.825966 462.199158 
" clip-path="url(#p0b27faf8b4)" style="fill: none; stroke: #0000ff; stroke-width: 1.5; stroke-linecap: square"/>
   </g>
   <g id="line2d_15">
    <defs>
     <path id="m47bd7244a2" d="M 0 2.5 
C 0.663008 2.5 1.29895 2.236584 1.767767 1.767767 
C 2.236584 1.29895 2.5 0.663008 2.5 0 
C 2.5 -0.663008 2.236584 -1.29895 1.767767 -1.767767 
C 1.29895 -2.236584 0.663008 -2.5 0 -2.5 
C -0.663008 -2.5 -1.29895 -2.236584 -1.767767 -1.767767 
C -2.236584 -1.29895 -2.5 -0.663008 -2.5 0 
C -2.5 0.663008 -2.236584 1.29895 -1.767767 1.767767 
C -1.29895 2.236584 -0.663008 2.5 0 2.5 
z
" style="stroke: #008000"/>
    </defs>
    <g clip-path="url(#p0b27faf8b4)">
     <use xlink:href="#m47bd7244a2" x="471.825966" y="462.87475" style="fill: #008000; stroke: #008000"/>
    </g>
   </g>
   <g id="line2d_16">
    <defs>
     <path id="m23d4de0e68" d="M -0 2.5 
L 2.5 -2.5 
L -2.5 -2.5 
z
" style="stroke: #0000ff; stroke-linejoin: miter"/>
    </defs>
    <g clip-path="url(#p0b27faf8b4)">
     <use xlink:href="#m23d4de0e68" x="471.825966" y="462.199158" style="fill: #0000ff; stroke: #0000ff; stroke-linejoin: miter"/>
    </g>
   </g>
   <g id="patch_3">
    <path d="M 45.716875 483.03475 
L 45.716875 39.51475 
" style="fill: none; stroke: #000000; stroke-width: 0.8; stroke-linejoin: miter; stroke-linecap: square"/>
   </g>
   <g id="patch_4">
    <path d="M 492.116875 483.03475 
L 492.116875 39.51475 
" style="fill: none; stroke: #000000; stroke-width: 0.8; stroke-linejoin: miter; stroke-linecap: square"/>
   </g>
   <g id="patch_5">
    <path d="M 45.716875 483.03475 
L 492.116875 483.03475 
" style="fill: none; stroke: #000000; stroke-width: 0.8; stroke-linejoin: miter; stroke-linecap: square"/>
   </g>
   <g id="patch_6">
    <path d="M 45.716875 39.51475 
L 492.116875 39.51475 
" style="fill: none; stroke: #000000; stroke-width: 0.8; stroke-linejoin: miter; stroke-linecap: square"/>
   </g>
   <g id="text_15">
    <!-- Figure 2. Learning curves of Linear Auto-Encoder -->
    <g transform="translate(97.836875 17.837812) scale(0.14 -0.14)">
     <defs>
      <path id="DejaVuSans-46" d="M 628 4666 
L 3309 4666 
L 3309 4134 
L 1259 4134 
L 1259 2759 
L 3109 2759 
L 3109 2228 
L 1259 2228 
L 1259 0 
L 628 0 
L 628 4666 
z
" transform="scale(0.015625)"/>
      <path id="DejaVuSans-69" d="M 603 3500 
L 1178 3500 
L 1178 0 
L 603 0 
L 603 3500 
z
M 603 4863 
L 1178 4863 
L 1178 4134 
L 603 4134 
L 603 4863 
z
" transform="scale(0.015625)"/>
      <path id="DejaVuSans-67" d="M 2906 1791 
Q 2906 2416 2648 2759 
Q 2391 3103 1925 3103 
Q 1463 3103 1205 2759 
Q 947 2416 947 1791 
Q 947 1169 1205 825 
Q 1463 481 1925 481 
Q 2391 481 2648 825 
Q 2906 1169 2906 1791 
z
M 3481 434 
Q 3481 -459 3084 -895 
Q 2688 -1331 1869 -1331 
Q 1566 -1331 1297 -1286 
Q 1028 -1241 775 -1147 
L 775 -588 
Q 1028 -725 1275 -790 
Q 1522 -856 1778 -856 
Q 2344 -856 2625 -561 
Q 2906 -266 2906 331 
L 2906 616 
Q 2728 306 2450 153 
Q 2172 0 1784 0 
Q 1141 0 747 490 
Q 353 981 353 1791 
Q 353 2603 747 3093 
Q 1141 3584 1784 3584 
Q 2172 3584 2450 3431 
Q 2728 3278 2906 2969 
L 2906 3500 
L 3481 3500 
L 3481 434 
z
" transform="scale(0.015625)"/>
      <path id="DejaVuSans-4c" d="M 628 4666 
L 1259 4666 
L 1259 531 
L 3531 531 
L 3531 0 
L 628 0 
L 628 4666 
z
" transform="scale(0.015625)"/>
      <path id="DejaVuSans-61" d="M 2194 1759 
Q 1497 1759 1228 1600 
Q 959 1441 959 1056 
Q 959 750 1161 570 
Q 1363 391 1709 391 
Q 2188 391 2477 730 
Q 2766 1069 2766 1631 
L 2766 1759 
L 2194 1759 
z
M 3341 1997 
L 3341 0 
L 2766 0 
L 2766 531 
Q 2569 213 2275 61 
Q 1981 -91 1556 -91 
Q 1019 -91 701 211 
Q 384 513 384 1019 
Q 384 1609 779 1909 
Q 1175 2209 1959 2209 
L 2766 2209 
L 2766 2266 
Q 2766 2663 2505 2880 
Q 2244 3097 1772 3097 
Q 1472 3097 1187 3025 
Q 903 2953 641 2809 
L 641 3341 
Q 956 3463 1253 3523 
Q 1550 3584 1831 3584 
Q 2591 3584 2966 3190 
Q 3341 2797 3341 1997 
z
" transform="scale(0.015625)"/>
      <path id="DejaVuSans-76" d="M 191 3500 
L 800 3500 
L 1894 563 
L 2988 3500 
L 3597 3500 
L 2284 0 
L 1503 0 
L 191 3500 
z
" transform="scale(0.015625)"/>
      <path id="DejaVuSans-66" d="M 2375 4863 
L 2375 4384 
L 1825 4384 
Q 1516 4384 1395 4259 
Q 1275 4134 1275 3809 
L 1275 3500 
L 2222 3500 
L 2222 3053 
L 1275 3053 
L 1275 0 
L 697 0 
L 697 3053 
L 147 3053 
L 147 3500 
L 697 3500 
L 697 3744 
Q 697 4328 969 4595 
Q 1241 4863 1831 4863 
L 2375 4863 
z
" transform="scale(0.015625)"/>
      <path id="DejaVuSans-41" d="M 2188 4044 
L 1331 1722 
L 3047 1722 
L 2188 4044 
z
M 1831 4666 
L 2547 4666 
L 4325 0 
L 3669 0 
L 3244 1197 
L 1141 1197 
L 716 0 
L 50 0 
L 1831 4666 
z
" transform="scale(0.015625)"/>
      <path id="DejaVuSans-74" d="M 1172 4494 
L 1172 3500 
L 2356 3500 
L 2356 3053 
L 1172 3053 
L 1172 1153 
Q 1172 725 1289 603 
Q 1406 481 1766 481 
L 2356 481 
L 2356 0 
L 1766 0 
Q 1100 0 847 248 
Q 594 497 594 1153 
L 594 3053 
L 172 3053 
L 172 3500 
L 594 3500 
L 594 4494 
L 1172 4494 
z
" transform="scale(0.015625)"/>
      <path id="DejaVuSans-2d" d="M 313 2009 
L 1997 2009 
L 1997 1497 
L 313 1497 
L 313 2009 
z
" transform="scale(0.015625)"/>
      <path id="DejaVuSans-64" d="M 2906 2969 
L 2906 4863 
L 3481 4863 
L 3481 0 
L 2906 0 
L 2906 525 
Q 2725 213 2448 61 
Q 2172 -91 1784 -91 
Q 1150 -91 751 415 
Q 353 922 353 1747 
Q 353 2572 751 3078 
Q 1150 3584 1784 3584 
Q 2172 3584 2448 3432 
Q 2725 3281 2906 2969 
z
M 947 1747 
Q 947 1113 1208 752 
Q 1469 391 1925 391 
Q 2381 391 2643 752 
Q 2906 1113 2906 1747 
Q 2906 2381 2643 2742 
Q 2381 3103 1925 3103 
Q 1469 3103 1208 2742 
Q 947 2381 947 1747 
z
" transform="scale(0.015625)"/>
     </defs>
     <use xlink:href="#DejaVuSans-46"/>
     <use xlink:href="#DejaVuSans-69" x="50.269531"/>
     <use xlink:href="#DejaVuSans-67" x="78.052734"/>
     <use xlink:href="#DejaVuSans-75" x="141.529297"/>
     <use xlink:href="#DejaVuSans-72" x="204.908203"/>
     <use xlink:href="#DejaVuSans-65" x="243.771484"/>
     <use xlink:href="#DejaVuSans-20" x="305.294922"/>
     <use xlink:href="#DejaVuSans-32" x="337.082031"/>
     <use xlink:href="#DejaVuSans-2e" x="400.705078"/>
     <use xlink:href="#DejaVuSans-20" x="432.492188"/>
     <use xlink:href="#DejaVuSans-4c" x="464.279297"/>
     <use xlink:href="#DejaVuSans-65" x="518.242188"/>
     <use xlink:href="#DejaVuSans-61" x="579.765625"/>
     <use xlink:href="#DejaVuSans-72" x="641.044922"/>
     <use xlink:href="#DejaVuSans-6e" x="680.408203"/>
     <use xlink:href="#DejaVuSans-69" x="743.787109"/>
     <use xlink:href="#DejaVuSans-6e" x="771.570312"/>
     <use xlink:href="#DejaVuSans-67" x="834.949219"/>
     <use xlink:href="#DejaVuSans-20" x="898.425781"/>
     <use xlink:href="#DejaVuSans-63" x="930.212891"/>
     <use xlink:href="#DejaVuSans-75" x="985.193359"/>
     <use xlink:href="#DejaVuSans-72" x="1048.572266"/>
     <use xlink:href="#DejaVuSans-76" x="1089.685547"/>
     <use xlink:href="#DejaVuSans-65" x="1148.865234"/>
     <use xlink:href="#DejaVuSans-73" x="1210.388672"/>
     <use xlink:href="#DejaVuSans-20" x="1262.488281"/>
     <use xlink:href="#DejaVuSans-6f" x="1294.275391"/>
     <use xlink:href="#DejaVuSans-66" x="1355.457031"/>
     <use xlink:href="#DejaVuSans-20" x="1390.662109"/>
     <use xlink:href="#DejaVuSans-4c" x="1422.449219"/>
     <use xlink:href="#DejaVuSans-69" x="1478.162109"/>
     <use xlink:href="#DejaVuSans-6e" x="1505.945312"/>
     <use xlink:href="#DejaVuSans-65" x="1569.324219"/>
     <use xlink:href="#DejaVuSans-61" x="1630.847656"/>
     <use xlink:href="#DejaVuSans-72" x="1692.126953"/>
     <use xlink:href="#DejaVuSans-20" x="1733.240234"/>
     <use xlink:href="#DejaVuSans-41" x="1765.027344"/>
     <use xlink:href="#DejaVuSans-75" x="1833.435547"/>
     <use xlink:href="#DejaVuSans-74" x="1896.814453"/>
     <use xlink:href="#DejaVuSans-6f" x="1936.023438"/>
     <use xlink:href="#DejaVuSans-2d" x="1999.080078"/>
     <use xlink:href="#DejaVuSans-45" x="2035.164062"/>
     <use xlink:href="#DejaVuSans-6e" x="2098.347656"/>
     <use xlink:href="#DejaVuSans-63" x="2161.726562"/>
     <use xlink:href="#DejaVuSans-6f" x="2216.707031"/>
     <use xlink:href="#DejaVuSans-64" x="2277.888672"/>
     <use xlink:href="#DejaVuSans-65" x="2341.365234"/>
     <use xlink:href="#DejaVuSans-72" x="2402.888672"/>
    </g>
    <!-- N=15165 ; N(train)=8276 ; N(test)=2070 ; Learning Rate : 1e-4 -->
    <g transform="translate(45.417812 33.51475) scale(0.14 -0.14)">
     <defs>
      <path id="DejaVuSans-4e" d="M 628 4666 
L 1478 4666 
L 3547 763 
L 3547 4666 
L 4159 4666 
L 4159 0 
L 3309 0 
L 1241 3903 
L 1241 0 
L 628 0 
L 628 4666 
z
" transform="scale(0.015625)"/>
      <path id="DejaVuSans-3d" d="M 678 2906 
L 4684 2906 
L 4684 2381 
L 678 2381 
L 678 2906 
z
M 678 1631 
L 4684 1631 
L 4684 1100 
L 678 1100 
L 678 1631 
z
" transform="scale(0.015625)"/>
      <path id="DejaVuSans-35" d="M 691 4666 
L 3169 4666 
L 3169 4134 
L 1269 4134 
L 1269 2991 
Q 1406 3038 1543 3061 
Q 1681 3084 1819 3084 
Q 2600 3084 3056 2656 
Q 3513 2228 3513 1497 
Q 3513 744 3044 326 
Q 2575 -91 1722 -91 
Q 1428 -91 1123 -41 
Q 819 9 494 109 
L 494 744 
Q 775 591 1075 516 
Q 1375 441 1709 441 
Q 2250 441 2565 725 
Q 2881 1009 2881 1497 
Q 2881 1984 2565 2268 
Q 2250 2553 1709 2553 
Q 1456 2553 1204 2497 
Q 953 2441 691 2322 
L 691 4666 
z
" transform="scale(0.015625)"/>
      <path id="DejaVuSans-3b" d="M 750 3309 
L 1409 3309 
L 1409 2516 
L 750 2516 
L 750 3309 
z
M 750 794 
L 1409 794 
L 1409 256 
L 897 -744 
L 494 -744 
L 750 256 
L 750 794 
z
" transform="scale(0.015625)"/>
      <path id="DejaVuSans-28" d="M 1984 4856 
Q 1566 4138 1362 3434 
Q 1159 2731 1159 2009 
Q 1159 1288 1364 580 
Q 1569 -128 1984 -844 
L 1484 -844 
Q 1016 -109 783 600 
Q 550 1309 550 2009 
Q 550 2706 781 3412 
Q 1013 4119 1484 4856 
L 1984 4856 
z
" transform="scale(0.015625)"/>
      <path id="DejaVuSans-29" d="M 513 4856 
L 1013 4856 
Q 1481 4119 1714 3412 
Q 1947 2706 1947 2009 
Q 1947 1309 1714 600 
Q 1481 -109 1013 -844 
L 513 -844 
Q 928 -128 1133 580 
Q 1338 1288 1338 2009 
Q 1338 2731 1133 3434 
Q 928 4138 513 4856 
z
" transform="scale(0.015625)"/>
      <path id="DejaVuSans-37" d="M 525 4666 
L 3525 4666 
L 3525 4397 
L 1831 0 
L 1172 0 
L 2766 4134 
L 525 4134 
L 525 4666 
z
" transform="scale(0.015625)"/>
      <path id="DejaVuSans-52" d="M 2841 2188 
Q 3044 2119 3236 1894 
Q 3428 1669 3622 1275 
L 4263 0 
L 3584 0 
L 2988 1197 
Q 2756 1666 2539 1819 
Q 2322 1972 1947 1972 
L 1259 1972 
L 1259 0 
L 628 0 
L 628 4666 
L 2053 4666 
Q 2853 4666 3247 4331 
Q 3641 3997 3641 3322 
Q 3641 2881 3436 2590 
Q 3231 2300 2841 2188 
z
M 1259 4147 
L 1259 2491 
L 2053 2491 
Q 2509 2491 2742 2702 
Q 2975 2913 2975 3322 
Q 2975 3731 2742 3939 
Q 2509 4147 2053 4147 
L 1259 4147 
z
" transform="scale(0.015625)"/>
      <path id="DejaVuSans-3a" d="M 750 794 
L 1409 794 
L 1409 0 
L 750 0 
L 750 794 
z
M 750 3309 
L 1409 3309 
L 1409 2516 
L 750 2516 
L 750 3309 
z
" transform="scale(0.015625)"/>
     </defs>
     <use xlink:href="#DejaVuSans-4e"/>
     <use xlink:href="#DejaVuSans-3d" x="74.804688"/>
     <use xlink:href="#DejaVuSans-31" x="158.59375"/>
     <use xlink:href="#DejaVuSans-35" x="222.216797"/>
     <use xlink:href="#DejaVuSans-31" x="285.839844"/>
     <use xlink:href="#DejaVuSans-36" x="349.462891"/>
     <use xlink:href="#DejaVuSans-35" x="413.085938"/>
     <use xlink:href="#DejaVuSans-20" x="476.708984"/>
     <use xlink:href="#DejaVuSans-3b" x="508.496094"/>
     <use xlink:href="#DejaVuSans-20" x="542.1875"/>
     <use xlink:href="#DejaVuSans-4e" x="573.974609"/>
     <use xlink:href="#DejaVuSans-28" x="648.779297"/>
     <use xlink:href="#DejaVuSans-74" x="687.792969"/>
     <use xlink:href="#DejaVuSans-72" x="727.001953"/>
     <use xlink:href="#DejaVuSans-61" x="768.115234"/>
     <use xlink:href="#DejaVuSans-69" x="829.394531"/>
     <use xlink:href="#DejaVuSans-6e" x="857.177734"/>
     <use xlink:href="#DejaVuSans-29" x="920.556641"/>
     <use xlink:href="#DejaVuSans-3d" x="959.570312"/>
     <use xlink:href="#DejaVuSans-38" x="1043.359375"/>
     <use xlink:href="#DejaVuSans-32" x="1106.982422"/>
     <use xlink:href="#DejaVuSans-37" x="1170.605469"/>
     <use xlink:href="#DejaVuSans-36" x="1234.228516"/>
     <use xlink:href="#DejaVuSans-20" x="1297.851562"/>
     <use xlink:href="#DejaVuSans-3b" x="1329.638672"/>
     <use xlink:href="#DejaVuSans-20" x="1363.330078"/>
     <use xlink:href="#DejaVuSans-4e" x="1395.117188"/>
     <use xlink:href="#DejaVuSans-28" x="1469.921875"/>
     <use xlink:href="#DejaVuSans-74" x="1508.935547"/>
     <use xlink:href="#DejaVuSans-65" x="1548.144531"/>
     <use xlink:href="#DejaVuSans-73" x="1609.667969"/>
     <use xlink:href="#DejaVuSans-74" x="1661.767578"/>
     <use xlink:href="#DejaVuSans-29" x="1700.976562"/>
     <use xlink:href="#DejaVuSans-3d" x="1739.990234"/>
     <use xlink:href="#DejaVuSans-32" x="1823.779297"/>
     <use xlink:href="#DejaVuSans-30" x="1887.402344"/>
     <use xlink:href="#DejaVuSans-37" x="1951.025391"/>
     <use xlink:href="#DejaVuSans-30" x="2014.648438"/>
     <use xlink:href="#DejaVuSans-20" x="2078.271484"/>
     <use xlink:href="#DejaVuSans-3b" x="2110.058594"/>
     <use xlink:href="#DejaVuSans-20" x="2143.75"/>
     <use xlink:href="#DejaVuSans-4c" x="2175.537109"/>
     <use xlink:href="#DejaVuSans-65" x="2229.5"/>
     <use xlink:href="#DejaVuSans-61" x="2291.023438"/>
     <use xlink:href="#DejaVuSans-72" x="2352.302734"/>
     <use xlink:href="#DejaVuSans-6e" x="2391.666016"/>
     <use xlink:href="#DejaVuSans-69" x="2455.044922"/>
     <use xlink:href="#DejaVuSans-6e" x="2482.828125"/>
     <use xlink:href="#DejaVuSans-67" x="2546.207031"/>
     <use xlink:href="#DejaVuSans-20" x="2609.683594"/>
     <use xlink:href="#DejaVuSans-52" x="2641.470703"/>
     <use xlink:href="#DejaVuSans-61" x="2708.703125"/>
     <use xlink:href="#DejaVuSans-74" x="2769.982422"/>
     <use xlink:href="#DejaVuSans-65" x="2809.191406"/>
     <use xlink:href="#DejaVuSans-20" x="2870.714844"/>
     <use xlink:href="#DejaVuSans-3a" x="2902.501953"/>
     <use xlink:href="#DejaVuSans-20" x="2936.193359"/>
     <use xlink:href="#DejaVuSans-31" x="2967.980469"/>
     <use xlink:href="#DejaVuSans-65" x="3031.603516"/>
     <use xlink:href="#DejaVuSans-2d" x="3093.126953"/>
     <use xlink:href="#DejaVuSans-34" x="3129.210938"/>
    </g>
   </g>
   <g id="legend_1">
    <g id="patch_7">
     <path d="M 397.604375 258.867 
L 485.116875 258.867 
Q 487.116875 258.867 487.116875 256.867 
L 487.116875 199.1545 
Q 487.116875 197.1545 485.116875 197.1545 
L 397.604375 197.1545 
Q 395.604375 197.1545 395.604375 199.1545 
L 395.604375 256.867 
Q 395.604375 258.867 397.604375 258.867 
z
" style="fill: #ffffff; opacity: 0.8; stroke: #cccccc; stroke-linejoin: miter"/>
    </g>
    <g id="line2d_17">
     <path d="M 399.604375 205.252937 
L 409.604375 205.252937 
L 419.604375 205.252937 
" style="fill: none; stroke: #008000; stroke-width: 1.5; stroke-linecap: square"/>
    </g>
    <g id="text_16">
     <!-- train (loss) -->
     <g transform="translate(427.604375 208.752937) scale(0.1 -0.1)">
      <use xlink:href="#DejaVuSans-74"/>
      <use xlink:href="#DejaVuSans-72" x="39.208984"/>
      <use xlink:href="#DejaVuSans-61" x="80.322266"/>
      <use xlink:href="#DejaVuSans-69" x="141.601562"/>
      <use xlink:href="#DejaVuSans-6e" x="169.384766"/>
      <use xlink:href="#DejaVuSans-20" x="232.763672"/>
      <use xlink:href="#DejaVuSans-28" x="264.550781"/>
      <use xlink:href="#DejaVuSans-6c" x="303.564453"/>
      <use xlink:href="#DejaVuSans-6f" x="331.347656"/>
      <use xlink:href="#DejaVuSans-73" x="392.529297"/>
      <use xlink:href="#DejaVuSans-73" x="444.628906"/>
      <use xlink:href="#DejaVuSans-29" x="496.728516"/>
     </g>
    </g>
    <g id="line2d_18">
     <path d="M 399.604375 219.931062 
L 409.604375 219.931062 
L 419.604375 219.931062 
" style="fill: none; stroke: #0000ff; stroke-width: 1.5; stroke-linecap: square"/>
    </g>
    <g id="text_17">
     <!-- test (loss) -->
     <g transform="translate(427.604375 223.431062) scale(0.1 -0.1)">
      <use xlink:href="#DejaVuSans-74"/>
      <use xlink:href="#DejaVuSans-65" x="39.208984"/>
      <use xlink:href="#DejaVuSans-73" x="100.732422"/>
      <use xlink:href="#DejaVuSans-74" x="152.832031"/>
      <use xlink:href="#DejaVuSans-20" x="192.041016"/>
      <use xlink:href="#DejaVuSans-28" x="223.828125"/>
      <use xlink:href="#DejaVuSans-6c" x="262.841797"/>
      <use xlink:href="#DejaVuSans-6f" x="290.625"/>
      <use xlink:href="#DejaVuSans-73" x="351.806641"/>
      <use xlink:href="#DejaVuSans-73" x="403.90625"/>
      <use xlink:href="#DejaVuSans-29" x="456.005859"/>
     </g>
    </g>
    <g id="line2d_19">
     <g>
      <use xlink:href="#m47bd7244a2" x="409.604375" y="234.609187" style="fill: #008000; stroke: #008000"/>
     </g>
    </g>
    <g id="text_18">
     <!-- (100, 0.13) -->
     <g transform="translate(427.604375 238.109187) scale(0.1 -0.1)">
      <defs>
       <path id="DejaVuSans-2c" d="M 750 794 
L 1409 794 
L 1409 256 
L 897 -744 
L 494 -744 
L 750 256 
L 750 794 
z
" transform="scale(0.015625)"/>
       <path id="DejaVuSans-33" d="M 2597 2516 
Q 3050 2419 3304 2112 
Q 3559 1806 3559 1356 
Q 3559 666 3084 287 
Q 2609 -91 1734 -91 
Q 1441 -91 1130 -33 
Q 819 25 488 141 
L 488 750 
Q 750 597 1062 519 
Q 1375 441 1716 441 
Q 2309 441 2620 675 
Q 2931 909 2931 1356 
Q 2931 1769 2642 2001 
Q 2353 2234 1838 2234 
L 1294 2234 
L 1294 2753 
L 1863 2753 
Q 2328 2753 2575 2939 
Q 2822 3125 2822 3475 
Q 2822 3834 2567 4026 
Q 2313 4219 1838 4219 
Q 1578 4219 1281 4162 
Q 984 4106 628 3988 
L 628 4550 
Q 988 4650 1302 4700 
Q 1616 4750 1894 4750 
Q 2613 4750 3031 4423 
Q 3450 4097 3450 3541 
Q 3450 3153 3228 2886 
Q 3006 2619 2597 2516 
z
" transform="scale(0.015625)"/>
      </defs>
      <use xlink:href="#DejaVuSans-28"/>
      <use xlink:href="#DejaVuSans-31" x="39.013672"/>
      <use xlink:href="#DejaVuSans-30" x="102.636719"/>
      <use xlink:href="#DejaVuSans-30" x="166.259766"/>
      <use xlink:href="#DejaVuSans-2c" x="229.882812"/>
      <use xlink:href="#DejaVuSans-20" x="261.669922"/>
      <use xlink:href="#DejaVuSans-30" x="293.457031"/>
      <use xlink:href="#DejaVuSans-2e" x="357.080078"/>
      <use xlink:href="#DejaVuSans-31" x="388.867188"/>
      <use xlink:href="#DejaVuSans-33" x="452.490234"/>
      <use xlink:href="#DejaVuSans-29" x="516.113281"/>
     </g>
    </g>
    <g id="line2d_20">
     <g>
      <use xlink:href="#m23d4de0e68" x="409.604375" y="249.287312" style="fill: #0000ff; stroke: #0000ff; stroke-linejoin: miter"/>
     </g>
    </g>
    <g id="text_19">
     <!-- (100, 0.13) -->
     <g transform="translate(427.604375 252.787312) scale(0.1 -0.1)">
      <use xlink:href="#DejaVuSans-28"/>
      <use xlink:href="#DejaVuSans-31" x="39.013672"/>
      <use xlink:href="#DejaVuSans-30" x="102.636719"/>
      <use xlink:href="#DejaVuSans-30" x="166.259766"/>
      <use xlink:href="#DejaVuSans-2c" x="229.882812"/>
      <use xlink:href="#DejaVuSans-20" x="261.669922"/>
      <use xlink:href="#DejaVuSans-30" x="293.457031"/>
      <use xlink:href="#DejaVuSans-2e" x="357.080078"/>
      <use xlink:href="#DejaVuSans-31" x="388.867188"/>
      <use xlink:href="#DejaVuSans-33" x="452.490234"/>
      <use xlink:href="#DejaVuSans-29" x="516.113281"/>
     </g>
    </g>
   </g>
  </g>
  <g id="axes_2">
   <g id="matplotlib.axis_3">
    <g id="ytick_7">
     <g id="line2d_21">
      <defs>
       <path id="m9af05402d7" d="M 0 0 
L 3.5 0 
" style="stroke: #000000; stroke-width: 0.8"/>
      </defs>
      <g>
       <use xlink:href="#m9af05402d7" x="492.116875" y="483.03475" style="stroke: #000000; stroke-width: 0.8"/>
      </g>
     </g>
     <g id="text_20">
      <!-- 0 -->
      <g transform="translate(499.116875 486.833969) scale(0.1 -0.1)">
       <use xlink:href="#DejaVuSans-30"/>
      </g>
     </g>
    </g>
    <g id="ytick_8">
     <g id="line2d_22">
      <g>
       <use xlink:href="#m9af05402d7" x="492.116875" y="396.070044" style="stroke: #000000; stroke-width: 0.8"/>
      </g>
     </g>
     <g id="text_21">
      <!-- 20 -->
      <g transform="translate(499.116875 399.869263) scale(0.1 -0.1)">
       <use xlink:href="#DejaVuSans-32"/>
       <use xlink:href="#DejaVuSans-30" x="63.623047"/>
      </g>
     </g>
    </g>
    <g id="ytick_9">
     <g id="line2d_23">
      <g>
       <use xlink:href="#m9af05402d7" x="492.116875" y="309.105338" style="stroke: #000000; stroke-width: 0.8"/>
      </g>
     </g>
     <g id="text_22">
      <!-- 40 -->
      <g transform="translate(499.116875 312.904557) scale(0.1 -0.1)">
       <use xlink:href="#DejaVuSans-34"/>
       <use xlink:href="#DejaVuSans-30" x="63.623047"/>
      </g>
     </g>
    </g>
    <g id="ytick_10">
     <g id="line2d_24">
      <g>
       <use xlink:href="#m9af05402d7" x="492.116875" y="222.140632" style="stroke: #000000; stroke-width: 0.8"/>
      </g>
     </g>
     <g id="text_23">
      <!-- 60 -->
      <g transform="translate(499.116875 225.939851) scale(0.1 -0.1)">
       <use xlink:href="#DejaVuSans-36"/>
       <use xlink:href="#DejaVuSans-30" x="63.623047"/>
      </g>
     </g>
    </g>
    <g id="ytick_11">
     <g id="line2d_25">
      <g>
       <use xlink:href="#m9af05402d7" x="492.116875" y="135.175926" style="stroke: #000000; stroke-width: 0.8"/>
      </g>
     </g>
     <g id="text_24">
      <!-- 80 -->
      <g transform="translate(499.116875 138.975145) scale(0.1 -0.1)">
       <use xlink:href="#DejaVuSans-38"/>
       <use xlink:href="#DejaVuSans-30" x="63.623047"/>
      </g>
     </g>
    </g>
    <g id="ytick_12">
     <g id="line2d_26">
      <g>
       <use xlink:href="#m9af05402d7" x="492.116875" y="48.211221" style="stroke: #000000; stroke-width: 0.8"/>
      </g>
     </g>
     <g id="text_25">
      <!-- 100 -->
      <g transform="translate(499.116875 52.010439) scale(0.1 -0.1)">
       <use xlink:href="#DejaVuSans-31"/>
       <use xlink:href="#DejaVuSans-30" x="63.623047"/>
       <use xlink:href="#DejaVuSans-30" x="127.246094"/>
      </g>
     </g>
    </g>
    <g id="text_26">
     <!-- Accuracy (%) -->
     <g transform="translate(531.3225 300.958187) rotate(-90) scale(0.12 -0.12)">
      <defs>
       <path id="DejaVuSans-79" d="M 2059 -325 
Q 1816 -950 1584 -1140 
Q 1353 -1331 966 -1331 
L 506 -1331 
L 506 -850 
L 844 -850 
Q 1081 -850 1212 -737 
Q 1344 -625 1503 -206 
L 1606 56 
L 191 3500 
L 800 3500 
L 1894 763 
L 2988 3500 
L 3597 3500 
L 2059 -325 
z
" transform="scale(0.015625)"/>
       <path id="DejaVuSans-25" d="M 4653 2053 
Q 4381 2053 4226 1822 
Q 4072 1591 4072 1178 
Q 4072 772 4226 539 
Q 4381 306 4653 306 
Q 4919 306 5073 539 
Q 5228 772 5228 1178 
Q 5228 1588 5073 1820 
Q 4919 2053 4653 2053 
z
M 4653 2450 
Q 5147 2450 5437 2106 
Q 5728 1763 5728 1178 
Q 5728 594 5436 251 
Q 5144 -91 4653 -91 
Q 4153 -91 3862 251 
Q 3572 594 3572 1178 
Q 3572 1766 3864 2108 
Q 4156 2450 4653 2450 
z
M 1428 4353 
Q 1159 4353 1004 4120 
Q 850 3888 850 3481 
Q 850 3069 1003 2837 
Q 1156 2606 1428 2606 
Q 1700 2606 1854 2837 
Q 2009 3069 2009 3481 
Q 2009 3884 1853 4118 
Q 1697 4353 1428 4353 
z
M 4250 4750 
L 4750 4750 
L 1831 -91 
L 1331 -91 
L 4250 4750 
z
M 1428 4750 
Q 1922 4750 2215 4408 
Q 2509 4066 2509 3481 
Q 2509 2891 2217 2550 
Q 1925 2209 1428 2209 
Q 931 2209 642 2551 
Q 353 2894 353 3481 
Q 353 4063 643 4406 
Q 934 4750 1428 4750 
z
" transform="scale(0.015625)"/>
      </defs>
      <use xlink:href="#DejaVuSans-41"/>
      <use xlink:href="#DejaVuSans-63" x="66.658203"/>
      <use xlink:href="#DejaVuSans-63" x="121.638672"/>
      <use xlink:href="#DejaVuSans-75" x="176.619141"/>
      <use xlink:href="#DejaVuSans-72" x="239.998047"/>
      <use xlink:href="#DejaVuSans-61" x="281.111328"/>
      <use xlink:href="#DejaVuSans-63" x="342.390625"/>
      <use xlink:href="#DejaVuSans-79" x="397.371094"/>
      <use xlink:href="#DejaVuSans-20" x="456.550781"/>
      <use xlink:href="#DejaVuSans-28" x="488.337891"/>
      <use xlink:href="#DejaVuSans-25" x="527.351562"/>
      <use xlink:href="#DejaVuSans-29" x="622.371094"/>
     </g>
    </g>
   </g>
   <g id="line2d_27">
    <path d="M 66.007784 489.966276 
L 70.106958 479.90392 
L 74.206131 474.439516 
L 78.305305 495.902983 
L 82.404478 500.195876 
L 86.503652 501.055345 
L 90.602825 500.106511 
L 94.701999 495.499394 
L 98.801173 471.40101 
L 102.900346 470.628959 
L 106.99952 471.270186 
L 111.098693 471.088341 
L 115.197867 470.288176 
L 119.29704 468.856226 
L 123.396214 468.166955 
L 127.495387 471.707528 
L 131.594561 474.880537 
L 135.693735 474.390351 
L 139.792908 471.655362 
L 143.892082 467.123306 
L 147.991255 460.890549 
L 152.090429 453.457458 
L 156.189602 445.206172 
L 160.288776 435.997965 
L 164.387949 425.621333 
L 168.487123 414.13178 
L 172.586296 401.646778 
L 176.68547 388.021619 
L 180.784644 373.076244 
L 184.883817 356.917861 
L 188.982991 339.74223 
L 193.082164 321.736777 
L 197.181338 303.223736 
L 201.280511 284.667895 
L 205.379685 266.57403 
L 209.478858 249.20486 
L 213.578032 232.900536 
L 217.677206 217.981135 
L 221.776379 204.367579 
L 225.875553 192.308323 
L 229.974726 181.734652 
L 234.0739 172.510087 
L 238.173073 164.661826 
L 242.272247 157.875281 
L 246.37142 152.149998 
L 250.470594 147.208974 
L 254.569768 143.024683 
L 258.668941 139.405694 
L 262.768115 136.31873 
L 266.867288 133.607323 
L 270.966462 131.282343 
L 275.065635 129.231782 
L 279.164809 127.41839 
L 283.263982 125.866769 
L 287.363156 124.402873 
L 291.46233 123.14339 
L 295.561503 122.011807 
L 299.660677 120.963934 
L 303.75985 120.053041 
L 307.859024 119.204407 
L 311.958197 118.449625 
L 316.057371 117.774722 
L 320.156544 117.160901 
L 324.255718 116.609053 
L 328.354892 116.118393 
L 332.454065 115.682888 
L 336.553239 115.290084 
L 340.652412 114.939162 
L 344.751586 114.626519 
L 348.850759 114.349118 
L 352.949933 114.098902 
L 357.049106 113.874784 
L 361.14828 113.672782 
L 365.247454 113.492853 
L 369.346627 113.331766 
L 373.445801 113.186083 
L 377.544974 113.053778 
L 381.644148 112.935041 
L 385.743321 112.828486 
L 389.842495 112.732079 
L 393.941668 112.644909 
L 398.040842 112.565395 
L 402.140015 112.493326 
L 406.239189 112.428389 
L 410.338363 112.370036 
L 414.437536 112.316477 
L 418.53671 112.268508 
L 422.635883 112.224041 
L 426.735057 112.184206 
L 430.83423 112.147948 
L 434.933404 112.115263 
L 439.032577 112.085706 
L 443.131751 112.059056 
L 447.230925 112.034604 
L 451.330098 112.012826 
L 455.429272 111.992718 
L 459.528445 111.974967 
L 463.627619 111.958784 
L 467.726792 111.944486 
L 471.825966 111.931659 
" clip-path="url(#p0b27faf8b4)" style="fill: none; stroke: #ffa500; stroke-width: 1.5; stroke-linecap: square"/>
   </g>
   <g id="line2d_28">
    <path d="M 66.007784 489.873061 
L 70.106958 479.993809 
L 74.206131 474.50627 
L 78.305305 495.787478 
L 82.404478 500.093628 
L 86.503652 500.953087 
L 90.602825 499.994835 
L 94.701999 495.382218 
L 98.801173 471.430691 
L 102.900346 470.717706 
L 106.99952 471.350779 
L 111.098693 471.148596 
L 115.197867 470.330581 
L 119.29704 468.887471 
L 123.396214 468.180405 
L 127.495387 471.683791 
L 131.594561 474.833131 
L 135.693735 474.337919 
L 139.792908 471.606993 
L 143.892082 467.084604 
L 147.991255 460.86521 
L 152.090429 453.447295 
L 156.189602 445.212862 
L 160.288776 436.024663 
L 164.387949 425.672049 
L 168.487123 414.209583 
L 172.586296 401.753092 
L 176.68547 388.158128 
L 180.784644 373.2462 
L 184.883817 357.123705 
L 188.982991 339.983236 
L 193.082164 322.012072 
L 197.181338 303.534336 
L 201.280511 285.012481 
L 205.379685 266.949602 
L 209.478858 249.611354 
L 213.578032 233.336579 
L 217.677206 218.444209 
L 221.776379 204.858036 
L 225.875553 192.824313 
L 229.974726 182.275036 
L 234.0739 173.074168 
L 238.173073 165.247279 
L 242.272247 158.481283 
L 246.37142 152.77381 
L 250.470594 147.850041 
L 254.569768 143.679673 
L 258.668941 140.076101 
L 262.768115 136.998917 
L 266.867288 134.301461 
L 270.966462 131.983928 
L 275.065635 129.942963 
L 279.164809 128.139535 
L 283.263982 126.593535 
L 287.363156 125.138614 
L 291.46233 123.884677 
L 295.561503 122.758839 
L 299.660677 121.717769 
L 303.75985 120.810609 
L 307.859024 119.96682 
L 311.958197 119.21617 
L 316.057371 118.543975 
L 320.156544 117.933922 
L 324.255718 117.383833 
L 328.354892 116.895121 
L 332.454065 116.462042 
L 336.553239 116.069624 
L 340.652412 115.720287 
L 344.751586 115.408296 
L 348.850759 115.131108 
L 352.949933 114.881878 
L 357.049106 114.65747 
L 361.14828 114.455761 
L 365.247454 114.275953 
L 369.346627 114.114604 
L 373.445801 113.969138 
L 377.544974 113.836479 
L 381.644148 113.717721 
L 385.743321 113.611179 
L 389.842495 113.514554 
L 393.941668 113.427683 
L 398.040842 113.348011 
L 402.140015 113.276224 
L 406.239189 113.211514 
L 410.338363 113.153352 
L 414.437536 113.10033 
L 418.53671 113.052576 
L 422.635883 113.0087 
L 426.735057 112.96923 
L 430.83423 112.933491 
L 434.933404 112.90133 
L 439.032577 112.872194 
L 443.131751 112.846158 
L 447.230925 112.822048 
L 451.330098 112.800893 
L 455.429272 112.781097 
L 459.528445 112.763911 
L 463.627619 112.748052 
L 467.726792 112.734221 
L 471.825966 112.721732 
" clip-path="url(#p0b27faf8b4)" style="fill: none; stroke: #800080; stroke-width: 1.5; stroke-linecap: square"/>
   </g>
   <g id="line2d_29">
    <defs>
     <path id="m0fc91ca9d9" d="M 0 2.5 
C 0.663008 2.5 1.29895 2.236584 1.767767 1.767767 
C 2.236584 1.29895 2.5 0.663008 2.5 0 
C 2.5 -0.663008 2.236584 -1.29895 1.767767 -1.767767 
C 1.29895 -2.236584 0.663008 -2.5 0 -2.5 
C -0.663008 -2.5 -1.29895 -2.236584 -1.767767 -1.767767 
C -2.236584 -1.29895 -2.5 -0.663008 -2.5 0 
C -2.5 0.663008 -2.236584 1.29895 -1.767767 1.767767 
C -1.29895 2.236584 -0.663008 2.5 0 2.5 
z
" style="stroke: #ffa500"/>
    </defs>
    <g clip-path="url(#p0b27faf8b4)">
     <use xlink:href="#m0fc91ca9d9" x="471.825966" y="111.931659" style="fill: #ffa500; stroke: #ffa500"/>
    </g>
   </g>
   <g id="line2d_30">
    <defs>
     <path id="m62926e66af" d="M -0 2.5 
L 2.5 -2.5 
L -2.5 -2.5 
z
" style="stroke: #800080; stroke-linejoin: miter"/>
    </defs>
    <g clip-path="url(#p0b27faf8b4)">
     <use xlink:href="#m62926e66af" x="471.825966" y="112.721732" style="fill: #800080; stroke: #800080; stroke-linejoin: miter"/>
    </g>
   </g>
   <g id="patch_8">
    <path d="M 45.716875 483.03475 
L 45.716875 39.51475 
" style="fill: none; stroke: #000000; stroke-width: 0.8; stroke-linejoin: miter; stroke-linecap: square"/>
   </g>
   <g id="patch_9">
    <path d="M 492.116875 483.03475 
L 492.116875 39.51475 
" style="fill: none; stroke: #000000; stroke-width: 0.8; stroke-linejoin: miter; stroke-linecap: square"/>
   </g>
   <g id="patch_10">
    <path d="M 45.716875 483.03475 
L 492.116875 483.03475 
" style="fill: none; stroke: #000000; stroke-width: 0.8; stroke-linejoin: miter; stroke-linecap: square"/>
   </g>
   <g id="patch_11">
    <path d="M 45.716875 39.51475 
L 492.116875 39.51475 
" style="fill: none; stroke: #000000; stroke-width: 0.8; stroke-linejoin: miter; stroke-linecap: square"/>
   </g>
   <g id="legend_2">
    <g id="patch_12">
     <path d="M 373.741875 325.395 
L 485.116875 325.395 
Q 487.116875 325.395 487.116875 323.395 
L 487.116875 265.6825 
Q 487.116875 263.6825 485.116875 263.6825 
L 373.741875 263.6825 
Q 371.741875 263.6825 371.741875 265.6825 
L 371.741875 323.395 
Q 371.741875 325.395 373.741875 325.395 
z
" style="fill: #ffffff; opacity: 0.8; stroke: #cccccc; stroke-linejoin: miter"/>
    </g>
    <g id="line2d_31">
     <path d="M 375.741875 271.780937 
L 385.741875 271.780937 
L 395.741875 271.780937 
" style="fill: none; stroke: #ffa500; stroke-width: 1.5; stroke-linecap: square"/>
    </g>
    <g id="text_27">
     <!-- train (accuracy) -->
     <g transform="translate(403.741875 275.280937) scale(0.1 -0.1)">
      <use xlink:href="#DejaVuSans-74"/>
      <use xlink:href="#DejaVuSans-72" x="39.208984"/>
      <use xlink:href="#DejaVuSans-61" x="80.322266"/>
      <use xlink:href="#DejaVuSans-69" x="141.601562"/>
      <use xlink:href="#DejaVuSans-6e" x="169.384766"/>
      <use xlink:href="#DejaVuSans-20" x="232.763672"/>
      <use xlink:href="#DejaVuSans-28" x="264.550781"/>
      <use xlink:href="#DejaVuSans-61" x="303.564453"/>
      <use xlink:href="#DejaVuSans-63" x="364.84375"/>
      <use xlink:href="#DejaVuSans-63" x="419.824219"/>
      <use xlink:href="#DejaVuSans-75" x="474.804688"/>
      <use xlink:href="#DejaVuSans-72" x="538.183594"/>
      <use xlink:href="#DejaVuSans-61" x="579.296875"/>
      <use xlink:href="#DejaVuSans-63" x="640.576172"/>
      <use xlink:href="#DejaVuSans-79" x="695.556641"/>
      <use xlink:href="#DejaVuSans-29" x="754.736328"/>
     </g>
    </g>
    <g id="line2d_32">
     <path d="M 375.741875 286.459062 
L 385.741875 286.459062 
L 395.741875 286.459062 
" style="fill: none; stroke: #800080; stroke-width: 1.5; stroke-linecap: square"/>
    </g>
    <g id="text_28">
     <!-- test (accuracy) -->
     <g transform="translate(403.741875 289.959062) scale(0.1 -0.1)">
      <use xlink:href="#DejaVuSans-74"/>
      <use xlink:href="#DejaVuSans-65" x="39.208984"/>
      <use xlink:href="#DejaVuSans-73" x="100.732422"/>
      <use xlink:href="#DejaVuSans-74" x="152.832031"/>
      <use xlink:href="#DejaVuSans-20" x="192.041016"/>
      <use xlink:href="#DejaVuSans-28" x="223.828125"/>
      <use xlink:href="#DejaVuSans-61" x="262.841797"/>
      <use xlink:href="#DejaVuSans-63" x="324.121094"/>
      <use xlink:href="#DejaVuSans-63" x="379.101562"/>
      <use xlink:href="#DejaVuSans-75" x="434.082031"/>
      <use xlink:href="#DejaVuSans-72" x="497.460938"/>
      <use xlink:href="#DejaVuSans-61" x="538.574219"/>
      <use xlink:href="#DejaVuSans-63" x="599.853516"/>
      <use xlink:href="#DejaVuSans-79" x="654.833984"/>
      <use xlink:href="#DejaVuSans-29" x="714.013672"/>
     </g>
    </g>
    <g id="line2d_33">
     <g>
      <use xlink:href="#m0fc91ca9d9" x="385.741875" y="301.137187" style="fill: #ffa500; stroke: #ffa500"/>
     </g>
    </g>
    <g id="text_29">
     <!-- (100, 85.35%) -->
     <g transform="translate(403.741875 304.637187) scale(0.1 -0.1)">
      <use xlink:href="#DejaVuSans-28"/>
      <use xlink:href="#DejaVuSans-31" x="39.013672"/>
      <use xlink:href="#DejaVuSans-30" x="102.636719"/>
      <use xlink:href="#DejaVuSans-30" x="166.259766"/>
      <use xlink:href="#DejaVuSans-2c" x="229.882812"/>
      <use xlink:href="#DejaVuSans-20" x="261.669922"/>
      <use xlink:href="#DejaVuSans-38" x="293.457031"/>
      <use xlink:href="#DejaVuSans-35" x="357.080078"/>
      <use xlink:href="#DejaVuSans-2e" x="420.703125"/>
      <use xlink:href="#DejaVuSans-33" x="452.490234"/>
      <use xlink:href="#DejaVuSans-35" x="516.113281"/>
      <use xlink:href="#DejaVuSans-25" x="579.736328"/>
      <use xlink:href="#DejaVuSans-29" x="674.755859"/>
     </g>
    </g>
    <g id="line2d_34">
     <g>
      <use xlink:href="#m62926e66af" x="385.741875" y="315.815313" style="fill: #800080; stroke: #800080; stroke-linejoin: miter"/>
     </g>
    </g>
    <g id="text_30">
     <!-- (100, 85.16%) -->
     <g transform="translate(403.741875 319.315313) scale(0.1 -0.1)">
      <use xlink:href="#DejaVuSans-28"/>
      <use xlink:href="#DejaVuSans-31" x="39.013672"/>
      <use xlink:href="#DejaVuSans-30" x="102.636719"/>
      <use xlink:href="#DejaVuSans-30" x="166.259766"/>
      <use xlink:href="#DejaVuSans-2c" x="229.882812"/>
      <use xlink:href="#DejaVuSans-20" x="261.669922"/>
      <use xlink:href="#DejaVuSans-38" x="293.457031"/>
      <use xlink:href="#DejaVuSans-35" x="357.080078"/>
      <use xlink:href="#DejaVuSans-2e" x="420.703125"/>
      <use xlink:href="#DejaVuSans-31" x="452.490234"/>
      <use xlink:href="#DejaVuSans-36" x="516.113281"/>
      <use xlink:href="#DejaVuSans-25" x="579.736328"/>
      <use xlink:href="#DejaVuSans-29" x="674.755859"/>
     </g>
    </g>
   </g>
  </g>
 </g>
 <defs>
  <clipPath id="p0b27faf8b4">
   <rect x="45.716875" y="39.51475" width="446.4" height="443.52"/>
  </clipPath>
 </defs>
</svg>
