<?xml version="1.0" encoding="utf-8" standalone="no"?>
<!DOCTYPE svg PUBLIC "-//W3C//DTD SVG 1.1//EN"
  "http://www.w3.org/Graphics/SVG/1.1/DTD/svg11.dtd">
<svg xmlns:xlink="http://www.w3.org/1999/xlink" width="720pt" height="576pt" viewBox="0 0 720 576" xmlns="http://www.w3.org/2000/svg" version="1.1">
 <metadata>
  <rdf:RDF xmlns:dc="http://purl.org/dc/elements/1.1/" xmlns:cc="http://creativecommons.org/ns#" xmlns:rdf="http://www.w3.org/1999/02/22-rdf-syntax-ns#">
   <cc:Work>
    <dc:type rdf:resource="http://purl.org/dc/dcmitype/StillImage"/>
    <dc:date>2023-12-16T08:55:50.979125</dc:date>
    <dc:format>image/svg+xml</dc:format>
    <dc:creator>
     <cc:Agent>
      <dc:title>Matplotlib v3.7.1, https://matplotlib.org/</dc:title>
     </cc:Agent>
    </dc:creator>
   </cc:Work>
  </rdf:RDF>
 </metadata>
 <defs>
  <style type="text/css">*{stroke-linejoin: round; stroke-linecap: butt}</style>
 </defs>
 <g id="figure_1">
  <g id="patch_1">
   <path d="M 0 576 
L 720 576 
L 720 0 
L 0 0 
z
" style="fill: #ffffff"/>
  </g>
  <g id="axes_1">
   <g id="patch_2">
    <path d="M 90 270.72 
L 648 270.72 
L 648 69.12 
L 90 69.12 
z
" style="fill: #ffffff"/>
   </g>
   <g id="matplotlib.axis_1">
    <g id="xtick_1">
     <g id="line2d_1">
      <defs>
       <path id="m09307c8eb7" d="M 0 0 
L 0 3.5 
" style="stroke: #000000; stroke-width: 0.8"/>
      </defs>
      <g>
       <use xlink:href="#m09307c8eb7" x="115.363636" y="270.72" style="stroke: #000000; stroke-width: 0.8"/>
      </g>
     </g>
     <g id="text_1">
      <!-- 0 -->
      <g transform="translate(112.182386 285.318437) scale(0.1 -0.1)">
       <defs>
        <path id="DejaVuSans-30" d="M 2034 4250 
Q 1547 4250 1301 3770 
Q 1056 3291 1056 2328 
Q 1056 1369 1301 889 
Q 1547 409 2034 409 
Q 2525 409 2770 889 
Q 3016 1369 3016 2328 
Q 3016 3291 2770 3770 
Q 2525 4250 2034 4250 
z
M 2034 4750 
Q 2819 4750 3233 4129 
Q 3647 3509 3647 2328 
Q 3647 1150 3233 529 
Q 2819 -91 2034 -91 
Q 1250 -91 836 529 
Q 422 1150 422 2328 
Q 422 3509 836 4129 
Q 1250 4750 2034 4750 
z
" transform="scale(0.015625)"/>
       </defs>
       <use xlink:href="#DejaVuSans-30"/>
      </g>
     </g>
    </g>
    <g id="xtick_2">
     <g id="line2d_2">
      <g>
       <use xlink:href="#m09307c8eb7" x="216.919738" y="270.72" style="stroke: #000000; stroke-width: 0.8"/>
      </g>
     </g>
     <g id="text_2">
      <!-- 200 -->
      <g transform="translate(207.375988 285.318437) scale(0.1 -0.1)">
       <defs>
        <path id="DejaVuSans-32" d="M 1228 531 
L 3431 531 
L 3431 0 
L 469 0 
L 469 531 
Q 828 903 1448 1529 
Q 2069 2156 2228 2338 
Q 2531 2678 2651 2914 
Q 2772 3150 2772 3378 
Q 2772 3750 2511 3984 
Q 2250 4219 1831 4219 
Q 1534 4219 1204 4116 
Q 875 4013 500 3803 
L 500 4441 
Q 881 4594 1212 4672 
Q 1544 4750 1819 4750 
Q 2544 4750 2975 4387 
Q 3406 4025 3406 3419 
Q 3406 3131 3298 2873 
Q 3191 2616 2906 2266 
Q 2828 2175 2409 1742 
Q 1991 1309 1228 531 
z
" transform="scale(0.015625)"/>
       </defs>
       <use xlink:href="#DejaVuSans-32"/>
       <use xlink:href="#DejaVuSans-30" x="63.623047"/>
       <use xlink:href="#DejaVuSans-30" x="127.246094"/>
      </g>
     </g>
    </g>
    <g id="xtick_3">
     <g id="line2d_3">
      <g>
       <use xlink:href="#m09307c8eb7" x="318.475839" y="270.72" style="stroke: #000000; stroke-width: 0.8"/>
      </g>
     </g>
     <g id="text_3">
      <!-- 400 -->
      <g transform="translate(308.932089 285.318437) scale(0.1 -0.1)">
       <defs>
        <path id="DejaVuSans-34" d="M 2419 4116 
L 825 1625 
L 2419 1625 
L 2419 4116 
z
M 2253 4666 
L 3047 4666 
L 3047 1625 
L 3713 1625 
L 3713 1100 
L 3047 1100 
L 3047 0 
L 2419 0 
L 2419 1100 
L 313 1100 
L 313 1709 
L 2253 4666 
z
" transform="scale(0.015625)"/>
       </defs>
       <use xlink:href="#DejaVuSans-34"/>
       <use xlink:href="#DejaVuSans-30" x="63.623047"/>
       <use xlink:href="#DejaVuSans-30" x="127.246094"/>
      </g>
     </g>
    </g>
    <g id="xtick_4">
     <g id="line2d_4">
      <g>
       <use xlink:href="#m09307c8eb7" x="420.031941" y="270.72" style="stroke: #000000; stroke-width: 0.8"/>
      </g>
     </g>
     <g id="text_4">
      <!-- 600 -->
      <g transform="translate(410.488191 285.318437) scale(0.1 -0.1)">
       <defs>
        <path id="DejaVuSans-36" d="M 2113 2584 
Q 1688 2584 1439 2293 
Q 1191 2003 1191 1497 
Q 1191 994 1439 701 
Q 1688 409 2113 409 
Q 2538 409 2786 701 
Q 3034 994 3034 1497 
Q 3034 2003 2786 2293 
Q 2538 2584 2113 2584 
z
M 3366 4563 
L 3366 3988 
Q 3128 4100 2886 4159 
Q 2644 4219 2406 4219 
Q 1781 4219 1451 3797 
Q 1122 3375 1075 2522 
Q 1259 2794 1537 2939 
Q 1816 3084 2150 3084 
Q 2853 3084 3261 2657 
Q 3669 2231 3669 1497 
Q 3669 778 3244 343 
Q 2819 -91 2113 -91 
Q 1303 -91 875 529 
Q 447 1150 447 2328 
Q 447 3434 972 4092 
Q 1497 4750 2381 4750 
Q 2619 4750 2861 4703 
Q 3103 4656 3366 4563 
z
" transform="scale(0.015625)"/>
       </defs>
       <use xlink:href="#DejaVuSans-36"/>
       <use xlink:href="#DejaVuSans-30" x="63.623047"/>
       <use xlink:href="#DejaVuSans-30" x="127.246094"/>
      </g>
     </g>
    </g>
    <g id="xtick_5">
     <g id="line2d_5">
      <g>
       <use xlink:href="#m09307c8eb7" x="521.588043" y="270.72" style="stroke: #000000; stroke-width: 0.8"/>
      </g>
     </g>
     <g id="text_5">
      <!-- 800 -->
      <g transform="translate(512.044293 285.318437) scale(0.1 -0.1)">
       <defs>
        <path id="DejaVuSans-38" d="M 2034 2216 
Q 1584 2216 1326 1975 
Q 1069 1734 1069 1313 
Q 1069 891 1326 650 
Q 1584 409 2034 409 
Q 2484 409 2743 651 
Q 3003 894 3003 1313 
Q 3003 1734 2745 1975 
Q 2488 2216 2034 2216 
z
M 1403 2484 
Q 997 2584 770 2862 
Q 544 3141 544 3541 
Q 544 4100 942 4425 
Q 1341 4750 2034 4750 
Q 2731 4750 3128 4425 
Q 3525 4100 3525 3541 
Q 3525 3141 3298 2862 
Q 3072 2584 2669 2484 
Q 3125 2378 3379 2068 
Q 3634 1759 3634 1313 
Q 3634 634 3220 271 
Q 2806 -91 2034 -91 
Q 1263 -91 848 271 
Q 434 634 434 1313 
Q 434 1759 690 2068 
Q 947 2378 1403 2484 
z
M 1172 3481 
Q 1172 3119 1398 2916 
Q 1625 2713 2034 2713 
Q 2441 2713 2670 2916 
Q 2900 3119 2900 3481 
Q 2900 3844 2670 4047 
Q 2441 4250 2034 4250 
Q 1625 4250 1398 4047 
Q 1172 3844 1172 3481 
z
" transform="scale(0.015625)"/>
       </defs>
       <use xlink:href="#DejaVuSans-38"/>
       <use xlink:href="#DejaVuSans-30" x="63.623047"/>
       <use xlink:href="#DejaVuSans-30" x="127.246094"/>
      </g>
     </g>
    </g>
    <g id="xtick_6">
     <g id="line2d_6">
      <g>
       <use xlink:href="#m09307c8eb7" x="623.144144" y="270.72" style="stroke: #000000; stroke-width: 0.8"/>
      </g>
     </g>
     <g id="text_6">
      <!-- 1000 -->
      <g transform="translate(610.419144 285.318437) scale(0.1 -0.1)">
       <defs>
        <path id="DejaVuSans-31" d="M 794 531 
L 1825 531 
L 1825 4091 
L 703 3866 
L 703 4441 
L 1819 4666 
L 2450 4666 
L 2450 531 
L 3481 531 
L 3481 0 
L 794 0 
L 794 531 
z
" transform="scale(0.015625)"/>
       </defs>
       <use xlink:href="#DejaVuSans-31"/>
       <use xlink:href="#DejaVuSans-30" x="63.623047"/>
       <use xlink:href="#DejaVuSans-30" x="127.246094"/>
       <use xlink:href="#DejaVuSans-30" x="190.869141"/>
      </g>
     </g>
    </g>
   </g>
   <g id="matplotlib.axis_2">
    <g id="ytick_1">
     <g id="line2d_7">
      <defs>
       <path id="me787bf2b9a" d="M 0 0 
L -3.5 0 
" style="stroke: #000000; stroke-width: 0.8"/>
      </defs>
      <g>
       <use xlink:href="#me787bf2b9a" x="90" y="270.123726" style="stroke: #000000; stroke-width: 0.8"/>
      </g>
     </g>
     <g id="text_7">
      <!-- 0.0 -->
      <g transform="translate(67.096875 273.922944) scale(0.1 -0.1)">
       <defs>
        <path id="DejaVuSans-2e" d="M 684 794 
L 1344 794 
L 1344 0 
L 684 0 
L 684 794 
z
" transform="scale(0.015625)"/>
       </defs>
       <use xlink:href="#DejaVuSans-30"/>
       <use xlink:href="#DejaVuSans-2e" x="63.623047"/>
       <use xlink:href="#DejaVuSans-30" x="95.410156"/>
      </g>
     </g>
    </g>
    <g id="ytick_2">
     <g id="line2d_8">
      <g>
       <use xlink:href="#me787bf2b9a" x="90" y="232.714184" style="stroke: #000000; stroke-width: 0.8"/>
      </g>
     </g>
     <g id="text_8">
      <!-- 0.1 -->
      <g transform="translate(67.096875 236.513403) scale(0.1 -0.1)">
       <use xlink:href="#DejaVuSans-30"/>
       <use xlink:href="#DejaVuSans-2e" x="63.623047"/>
       <use xlink:href="#DejaVuSans-31" x="95.410156"/>
      </g>
     </g>
    </g>
    <g id="ytick_3">
     <g id="line2d_9">
      <g>
       <use xlink:href="#me787bf2b9a" x="90" y="195.304643" style="stroke: #000000; stroke-width: 0.8"/>
      </g>
     </g>
     <g id="text_9">
      <!-- 0.2 -->
      <g transform="translate(67.096875 199.103862) scale(0.1 -0.1)">
       <use xlink:href="#DejaVuSans-30"/>
       <use xlink:href="#DejaVuSans-2e" x="63.623047"/>
       <use xlink:href="#DejaVuSans-32" x="95.410156"/>
      </g>
     </g>
    </g>
    <g id="ytick_4">
     <g id="line2d_10">
      <g>
       <use xlink:href="#me787bf2b9a" x="90" y="157.895101" style="stroke: #000000; stroke-width: 0.8"/>
      </g>
     </g>
     <g id="text_10">
      <!-- 0.3 -->
      <g transform="translate(67.096875 161.69432) scale(0.1 -0.1)">
       <defs>
        <path id="DejaVuSans-33" d="M 2597 2516 
Q 3050 2419 3304 2112 
Q 3559 1806 3559 1356 
Q 3559 666 3084 287 
Q 2609 -91 1734 -91 
Q 1441 -91 1130 -33 
Q 819 25 488 141 
L 488 750 
Q 750 597 1062 519 
Q 1375 441 1716 441 
Q 2309 441 2620 675 
Q 2931 909 2931 1356 
Q 2931 1769 2642 2001 
Q 2353 2234 1838 2234 
L 1294 2234 
L 1294 2753 
L 1863 2753 
Q 2328 2753 2575 2939 
Q 2822 3125 2822 3475 
Q 2822 3834 2567 4026 
Q 2313 4219 1838 4219 
Q 1578 4219 1281 4162 
Q 984 4106 628 3988 
L 628 4550 
Q 988 4650 1302 4700 
Q 1616 4750 1894 4750 
Q 2613 4750 3031 4423 
Q 3450 4097 3450 3541 
Q 3450 3153 3228 2886 
Q 3006 2619 2597 2516 
z
" transform="scale(0.015625)"/>
       </defs>
       <use xlink:href="#DejaVuSans-30"/>
       <use xlink:href="#DejaVuSans-2e" x="63.623047"/>
       <use xlink:href="#DejaVuSans-33" x="95.410156"/>
      </g>
     </g>
    </g>
    <g id="ytick_5">
     <g id="line2d_11">
      <g>
       <use xlink:href="#me787bf2b9a" x="90" y="120.48556" style="stroke: #000000; stroke-width: 0.8"/>
      </g>
     </g>
     <g id="text_11">
      <!-- 0.4 -->
      <g transform="translate(67.096875 124.284779) scale(0.1 -0.1)">
       <use xlink:href="#DejaVuSans-30"/>
       <use xlink:href="#DejaVuSans-2e" x="63.623047"/>
       <use xlink:href="#DejaVuSans-34" x="95.410156"/>
      </g>
     </g>
    </g>
    <g id="ytick_6">
     <g id="line2d_12">
      <g>
       <use xlink:href="#me787bf2b9a" x="90" y="83.076019" style="stroke: #000000; stroke-width: 0.8"/>
      </g>
     </g>
     <g id="text_12">
      <!-- 0.5 -->
      <g transform="translate(67.096875 86.875237) scale(0.1 -0.1)">
       <defs>
        <path id="DejaVuSans-35" d="M 691 4666 
L 3169 4666 
L 3169 4134 
L 1269 4134 
L 1269 2991 
Q 1406 3038 1543 3061 
Q 1681 3084 1819 3084 
Q 2600 3084 3056 2656 
Q 3513 2228 3513 1497 
Q 3513 744 3044 326 
Q 2575 -91 1722 -91 
Q 1428 -91 1123 -41 
Q 819 9 494 109 
L 494 744 
Q 775 591 1075 516 
Q 1375 441 1709 441 
Q 2250 441 2565 725 
Q 2881 1009 2881 1497 
Q 2881 1984 2565 2268 
Q 2250 2553 1709 2553 
Q 1456 2553 1204 2497 
Q 953 2441 691 2322 
L 691 4666 
z
" transform="scale(0.015625)"/>
       </defs>
       <use xlink:href="#DejaVuSans-30"/>
       <use xlink:href="#DejaVuSans-2e" x="63.623047"/>
       <use xlink:href="#DejaVuSans-35" x="95.410156"/>
      </g>
     </g>
    </g>
    <g id="text_13">
     <!-- Loss -->
     <g transform="translate(61.017187 180.887187) rotate(-90) scale(0.1 -0.1)">
      <defs>
       <path id="DejaVuSans-4c" d="M 628 4666 
L 1259 4666 
L 1259 531 
L 3531 531 
L 3531 0 
L 628 0 
L 628 4666 
z
" transform="scale(0.015625)"/>
       <path id="DejaVuSans-6f" d="M 1959 3097 
Q 1497 3097 1228 2736 
Q 959 2375 959 1747 
Q 959 1119 1226 758 
Q 1494 397 1959 397 
Q 2419 397 2687 759 
Q 2956 1122 2956 1747 
Q 2956 2369 2687 2733 
Q 2419 3097 1959 3097 
z
M 1959 3584 
Q 2709 3584 3137 3096 
Q 3566 2609 3566 1747 
Q 3566 888 3137 398 
Q 2709 -91 1959 -91 
Q 1206 -91 779 398 
Q 353 888 353 1747 
Q 353 2609 779 3096 
Q 1206 3584 1959 3584 
z
" transform="scale(0.015625)"/>
       <path id="DejaVuSans-73" d="M 2834 3397 
L 2834 2853 
Q 2591 2978 2328 3040 
Q 2066 3103 1784 3103 
Q 1356 3103 1142 2972 
Q 928 2841 928 2578 
Q 928 2378 1081 2264 
Q 1234 2150 1697 2047 
L 1894 2003 
Q 2506 1872 2764 1633 
Q 3022 1394 3022 966 
Q 3022 478 2636 193 
Q 2250 -91 1575 -91 
Q 1294 -91 989 -36 
Q 684 19 347 128 
L 347 722 
Q 666 556 975 473 
Q 1284 391 1588 391 
Q 1994 391 2212 530 
Q 2431 669 2431 922 
Q 2431 1156 2273 1281 
Q 2116 1406 1581 1522 
L 1381 1569 
Q 847 1681 609 1914 
Q 372 2147 372 2553 
Q 372 3047 722 3315 
Q 1072 3584 1716 3584 
Q 2034 3584 2315 3537 
Q 2597 3491 2834 3397 
z
" transform="scale(0.015625)"/>
      </defs>
      <use xlink:href="#DejaVuSans-4c"/>
      <use xlink:href="#DejaVuSans-6f" x="53.962891"/>
      <use xlink:href="#DejaVuSans-73" x="115.144531"/>
      <use xlink:href="#DejaVuSans-73" x="167.244141"/>
     </g>
    </g>
   </g>
   <g id="line2d_13">
    <path d="M 115.363636 183.748521 
L 115.871417 179.710151 
L 116.379197 78.462822 
L 116.886978 203.765055 
L 117.902539 155.017418 
L 118.410319 197.223007 
L 118.9181 216.108807 
L 119.42588 203.831865 
L 119.933661 198.526382 
L 120.949222 219.513551 
L 121.457002 222.557026 
L 121.964783 221.878693 
L 122.472563 220.07651 
L 122.980344 221.457581 
L 123.488124 225.104307 
L 123.995905 229.747344 
L 125.519247 233.757655 
L 126.027027 236.030472 
L 127.042588 241.649348 
L 127.550369 242.473429 
L 128.058149 243.778367 
L 129.07371 248.450852 
L 130.597052 252.267504 
L 131.612613 255.11856 
L 132.628174 256.488036 
L 133.643735 258.337475 
L 136.182637 259.887399 
L 138.213759 260.066141 
L 141.260442 260.150074 
L 143.291564 260.196518 
L 159.540541 260.581465 
L 172.235053 260.614244 
L 187.976249 260.576123 
L 188.484029 260.452736 
L 189.49959 260.49256 
L 190.007371 260.620773 
L 191.022932 260.463168 
L 191.530713 260.607345 
L 197.116298 260.573791 
L 198.131859 260.620702 
L 199.655201 260.623209 
L 201.686323 260.604935 
L 204.733006 260.619094 
L 211.334152 260.641207 
L 220.981982 260.681532 
L 231.137592 260.849727 
L 236.723178 261.156401 
L 242.308763 261.480084 
L 244.339885 261.443274 
L 244.847666 261.352867 
L 245.355446 261.018809 
L 246.371007 260.863794 
L 246.878788 261.419219 
L 247.386568 261.335535 
L 247.894349 260.947985 
L 248.402129 261.406326 
L 248.90991 261.416606 
L 249.41769 261.092976 
L 249.925471 261.466434 
L 250.433251 261.402902 
L 250.941032 261.186892 
L 251.448812 261.500963 
L 252.464373 261.268645 
L 252.972154 261.495005 
L 253.479934 261.33418 
L 253.987715 261.341423 
L 254.495495 261.477683 
L 255.003276 261.343349 
L 256.018837 261.469492 
L 256.526618 261.375079 
L 257.034398 261.483727 
L 258.049959 261.434978 
L 258.55774 261.525602 
L 259.06552 261.443806 
L 260.081081 261.518475 
L 260.588862 261.462273 
L 261.604423 261.497303 
L 292.071253 261.549079 
L 369.761671 261.554722 
L 400.736282 261.424135 
L 401.244062 261.352805 
L 403.275184 261.533123 
L 405.306306 261.495164 
L 406.829648 261.532561 
L 413.938575 261.540643 
L 433.742015 261.528137 
L 441.358722 261.539941 
L 448.97543 261.525155 
L 452.529894 261.498128 
L 454.053235 261.429596 
L 457.607699 261.542012 
L 521.588043 261.373663 
L 522.095823 261.28717 
L 523.619165 261.47736 
L 525.142506 261.515065 
L 526.665848 261.434698 
L 528.189189 261.530449 
L 538.344799 261.520976 
L 544.438165 261.529789 
L 566.272727 261.531663 
L 622.636364 261.430715 
L 622.636364 261.430715 
" clip-path="url(#pf3a56e8975)" style="fill: none; stroke: #1f77b4; stroke-width: 1.5; stroke-linecap: square"/>
   </g>
   <g id="line2d_14">
    <path d="M 115.363636 185.466251 
L 115.871417 179.014749 
L 116.379197 78.283636 
L 116.886978 203.254847 
L 117.902539 154.240662 
L 118.410319 196.527655 
L 118.9181 215.529582 
L 119.42588 203.310609 
L 119.933661 198.004641 
L 120.949222 218.926187 
L 121.457002 221.953262 
L 121.964783 221.24884 
L 122.472563 219.4101 
L 122.980344 220.769872 
L 123.488124 224.416957 
L 123.995905 229.083786 
L 125.519247 233.117415 
L 126.027027 235.368865 
L 127.042588 240.931191 
L 127.550369 241.732469 
L 128.058149 243.021372 
L 129.07371 247.690625 
L 130.597052 251.502425 
L 131.612613 254.312815 
L 132.628174 255.652864 
L 133.643735 257.50498 
L 135.674857 258.943778 
L 137.705979 259.281501 
L 138.72154 259.230251 
L 139.737101 259.282261 
L 141.260442 259.280641 
L 143.291564 259.325726 
L 147.861589 259.564502 
L 152.431613 259.667189 
L 161.571663 259.728742 
L 176.297297 259.754681 
L 187.976249 259.716586 
L 188.484029 259.589301 
L 189.49959 259.628002 
L 190.007371 259.760328 
L 191.022932 259.598231 
L 191.530713 259.748012 
L 197.116298 259.710631 
L 198.131859 259.760932 
L 199.14742 259.762378 
L 227.583129 259.928067 
L 233.676495 260.176957 
L 244.339885 260.807953 
L 244.847666 260.715748 
L 245.355446 260.388349 
L 246.371007 260.22288 
L 246.878788 260.799486 
L 247.386568 260.704559 
L 247.894349 260.308065 
L 248.402129 260.786593 
L 248.90991 260.788049 
L 249.41769 260.455356 
L 249.925471 260.842047 
L 250.433251 260.780272 
L 250.941032 260.54996 
L 251.448812 260.871637 
L 252.464373 260.637525 
L 252.972154 260.862509 
L 253.479934 260.718497 
L 253.987715 260.717668 
L 254.495495 260.846762 
L 255.003276 260.725276 
L 256.018837 260.842632 
L 256.526618 260.753242 
L 257.034398 260.865269 
L 258.049959 260.811645 
L 258.55774 260.906549 
L 259.06552 260.82518 
L 260.081081 260.897828 
L 260.588862 260.84404 
L 261.604423 260.878003 
L 399.720721 260.87028 
L 401.244062 260.737392 
L 402.767404 260.903459 
L 405.306306 260.894224 
L 406.321867 260.919456 
L 419.01638 260.937388 
L 452.529894 260.893561 
L 454.053235 260.817532 
L 455.576577 260.876773 
L 459.638821 260.895991 
L 463.193284 260.930579 
L 484.520066 260.922248 
L 488.074529 260.843295 
L 489.597871 260.885695 
L 491.121212 260.891774 
L 493.152334 260.930563 
L 508.385749 260.925937 
L 519.556921 260.884811 
L 521.080262 260.728604 
L 521.588043 260.773848 
L 522.095823 260.672205 
L 522.603604 260.776214 
L 523.111384 260.759664 
L 524.126945 260.903826 
L 526.158067 260.857674 
L 527.173628 260.890924 
L 533.266994 260.919892 
L 536.313677 260.922102 
L 558.148239 260.923951 
L 582.013923 260.866404 
L 583.537265 260.922156 
L 619.0819 260.895139 
L 620.605242 260.812603 
L 622.128583 260.855545 
L 622.636364 260.817205 
L 622.636364 260.817205 
" clip-path="url(#pf3a56e8975)" style="fill: none; stroke: #ff7f0e; stroke-width: 1.5; stroke-linecap: square"/>
   </g>
   <g id="patch_3">
    <path d="M 90 270.72 
L 90 69.12 
" style="fill: none; stroke: #000000; stroke-width: 0.8; stroke-linejoin: miter; stroke-linecap: square"/>
   </g>
   <g id="patch_4">
    <path d="M 648 270.72 
L 648 69.12 
" style="fill: none; stroke: #000000; stroke-width: 0.8; stroke-linejoin: miter; stroke-linecap: square"/>
   </g>
   <g id="patch_5">
    <path d="M 90 270.72 
L 648 270.72 
" style="fill: none; stroke: #000000; stroke-width: 0.8; stroke-linejoin: miter; stroke-linecap: square"/>
   </g>
   <g id="patch_6">
    <path d="M 90 69.12 
L 648 69.12 
" style="fill: none; stroke: #000000; stroke-width: 0.8; stroke-linejoin: miter; stroke-linecap: square"/>
   </g>
   <g id="text_14">
    <!-- Learning curves of DNN on BRCA data -->
    <g transform="translate(254.923125 49.682625) scale(0.12 -0.12)">
     <defs>
      <path id="DejaVuSans-65" d="M 3597 1894 
L 3597 1613 
L 953 1613 
Q 991 1019 1311 708 
Q 1631 397 2203 397 
Q 2534 397 2845 478 
Q 3156 559 3463 722 
L 3463 178 
Q 3153 47 2828 -22 
Q 2503 -91 2169 -91 
Q 1331 -91 842 396 
Q 353 884 353 1716 
Q 353 2575 817 3079 
Q 1281 3584 2069 3584 
Q 2775 3584 3186 3129 
Q 3597 2675 3597 1894 
z
M 3022 2063 
Q 3016 2534 2758 2815 
Q 2500 3097 2075 3097 
Q 1594 3097 1305 2825 
Q 1016 2553 972 2059 
L 3022 2063 
z
" transform="scale(0.015625)"/>
      <path id="DejaVuSans-61" d="M 2194 1759 
Q 1497 1759 1228 1600 
Q 959 1441 959 1056 
Q 959 750 1161 570 
Q 1363 391 1709 391 
Q 2188 391 2477 730 
Q 2766 1069 2766 1631 
L 2766 1759 
L 2194 1759 
z
M 3341 1997 
L 3341 0 
L 2766 0 
L 2766 531 
Q 2569 213 2275 61 
Q 1981 -91 1556 -91 
Q 1019 -91 701 211 
Q 384 513 384 1019 
Q 384 1609 779 1909 
Q 1175 2209 1959 2209 
L 2766 2209 
L 2766 2266 
Q 2766 2663 2505 2880 
Q 2244 3097 1772 3097 
Q 1472 3097 1187 3025 
Q 903 2953 641 2809 
L 641 3341 
Q 956 3463 1253 3523 
Q 1550 3584 1831 3584 
Q 2591 3584 2966 3190 
Q 3341 2797 3341 1997 
z
" transform="scale(0.015625)"/>
      <path id="DejaVuSans-72" d="M 2631 2963 
Q 2534 3019 2420 3045 
Q 2306 3072 2169 3072 
Q 1681 3072 1420 2755 
Q 1159 2438 1159 1844 
L 1159 0 
L 581 0 
L 581 3500 
L 1159 3500 
L 1159 2956 
Q 1341 3275 1631 3429 
Q 1922 3584 2338 3584 
Q 2397 3584 2469 3576 
Q 2541 3569 2628 3553 
L 2631 2963 
z
" transform="scale(0.015625)"/>
      <path id="DejaVuSans-6e" d="M 3513 2113 
L 3513 0 
L 2938 0 
L 2938 2094 
Q 2938 2591 2744 2837 
Q 2550 3084 2163 3084 
Q 1697 3084 1428 2787 
Q 1159 2491 1159 1978 
L 1159 0 
L 581 0 
L 581 3500 
L 1159 3500 
L 1159 2956 
Q 1366 3272 1645 3428 
Q 1925 3584 2291 3584 
Q 2894 3584 3203 3211 
Q 3513 2838 3513 2113 
z
" transform="scale(0.015625)"/>
      <path id="DejaVuSans-69" d="M 603 3500 
L 1178 3500 
L 1178 0 
L 603 0 
L 603 3500 
z
M 603 4863 
L 1178 4863 
L 1178 4134 
L 603 4134 
L 603 4863 
z
" transform="scale(0.015625)"/>
      <path id="DejaVuSans-67" d="M 2906 1791 
Q 2906 2416 2648 2759 
Q 2391 3103 1925 3103 
Q 1463 3103 1205 2759 
Q 947 2416 947 1791 
Q 947 1169 1205 825 
Q 1463 481 1925 481 
Q 2391 481 2648 825 
Q 2906 1169 2906 1791 
z
M 3481 434 
Q 3481 -459 3084 -895 
Q 2688 -1331 1869 -1331 
Q 1566 -1331 1297 -1286 
Q 1028 -1241 775 -1147 
L 775 -588 
Q 1028 -725 1275 -790 
Q 1522 -856 1778 -856 
Q 2344 -856 2625 -561 
Q 2906 -266 2906 331 
L 2906 616 
Q 2728 306 2450 153 
Q 2172 0 1784 0 
Q 1141 0 747 490 
Q 353 981 353 1791 
Q 353 2603 747 3093 
Q 1141 3584 1784 3584 
Q 2172 3584 2450 3431 
Q 2728 3278 2906 2969 
L 2906 3500 
L 3481 3500 
L 3481 434 
z
" transform="scale(0.015625)"/>
      <path id="DejaVuSans-20" transform="scale(0.015625)"/>
      <path id="DejaVuSans-63" d="M 3122 3366 
L 3122 2828 
Q 2878 2963 2633 3030 
Q 2388 3097 2138 3097 
Q 1578 3097 1268 2742 
Q 959 2388 959 1747 
Q 959 1106 1268 751 
Q 1578 397 2138 397 
Q 2388 397 2633 464 
Q 2878 531 3122 666 
L 3122 134 
Q 2881 22 2623 -34 
Q 2366 -91 2075 -91 
Q 1284 -91 818 406 
Q 353 903 353 1747 
Q 353 2603 823 3093 
Q 1294 3584 2113 3584 
Q 2378 3584 2631 3529 
Q 2884 3475 3122 3366 
z
" transform="scale(0.015625)"/>
      <path id="DejaVuSans-75" d="M 544 1381 
L 544 3500 
L 1119 3500 
L 1119 1403 
Q 1119 906 1312 657 
Q 1506 409 1894 409 
Q 2359 409 2629 706 
Q 2900 1003 2900 1516 
L 2900 3500 
L 3475 3500 
L 3475 0 
L 2900 0 
L 2900 538 
Q 2691 219 2414 64 
Q 2138 -91 1772 -91 
Q 1169 -91 856 284 
Q 544 659 544 1381 
z
M 1991 3584 
L 1991 3584 
z
" transform="scale(0.015625)"/>
      <path id="DejaVuSans-76" d="M 191 3500 
L 800 3500 
L 1894 563 
L 2988 3500 
L 3597 3500 
L 2284 0 
L 1503 0 
L 191 3500 
z
" transform="scale(0.015625)"/>
      <path id="DejaVuSans-66" d="M 2375 4863 
L 2375 4384 
L 1825 4384 
Q 1516 4384 1395 4259 
Q 1275 4134 1275 3809 
L 1275 3500 
L 2222 3500 
L 2222 3053 
L 1275 3053 
L 1275 0 
L 697 0 
L 697 3053 
L 147 3053 
L 147 3500 
L 697 3500 
L 697 3744 
Q 697 4328 969 4595 
Q 1241 4863 1831 4863 
L 2375 4863 
z
" transform="scale(0.015625)"/>
      <path id="DejaVuSans-44" d="M 1259 4147 
L 1259 519 
L 2022 519 
Q 2988 519 3436 956 
Q 3884 1394 3884 2338 
Q 3884 3275 3436 3711 
Q 2988 4147 2022 4147 
L 1259 4147 
z
M 628 4666 
L 1925 4666 
Q 3281 4666 3915 4102 
Q 4550 3538 4550 2338 
Q 4550 1131 3912 565 
Q 3275 0 1925 0 
L 628 0 
L 628 4666 
z
" transform="scale(0.015625)"/>
      <path id="DejaVuSans-4e" d="M 628 4666 
L 1478 4666 
L 3547 763 
L 3547 4666 
L 4159 4666 
L 4159 0 
L 3309 0 
L 1241 3903 
L 1241 0 
L 628 0 
L 628 4666 
z
" transform="scale(0.015625)"/>
      <path id="DejaVuSans-42" d="M 1259 2228 
L 1259 519 
L 2272 519 
Q 2781 519 3026 730 
Q 3272 941 3272 1375 
Q 3272 1813 3026 2020 
Q 2781 2228 2272 2228 
L 1259 2228 
z
M 1259 4147 
L 1259 2741 
L 2194 2741 
Q 2656 2741 2882 2914 
Q 3109 3088 3109 3444 
Q 3109 3797 2882 3972 
Q 2656 4147 2194 4147 
L 1259 4147 
z
M 628 4666 
L 2241 4666 
Q 2963 4666 3353 4366 
Q 3744 4066 3744 3513 
Q 3744 3084 3544 2831 
Q 3344 2578 2956 2516 
Q 3422 2416 3680 2098 
Q 3938 1781 3938 1306 
Q 3938 681 3513 340 
Q 3088 0 2303 0 
L 628 0 
L 628 4666 
z
" transform="scale(0.015625)"/>
      <path id="DejaVuSans-52" d="M 2841 2188 
Q 3044 2119 3236 1894 
Q 3428 1669 3622 1275 
L 4263 0 
L 3584 0 
L 2988 1197 
Q 2756 1666 2539 1819 
Q 2322 1972 1947 1972 
L 1259 1972 
L 1259 0 
L 628 0 
L 628 4666 
L 2053 4666 
Q 2853 4666 3247 4331 
Q 3641 3997 3641 3322 
Q 3641 2881 3436 2590 
Q 3231 2300 2841 2188 
z
M 1259 4147 
L 1259 2491 
L 2053 2491 
Q 2509 2491 2742 2702 
Q 2975 2913 2975 3322 
Q 2975 3731 2742 3939 
Q 2509 4147 2053 4147 
L 1259 4147 
z
" transform="scale(0.015625)"/>
      <path id="DejaVuSans-43" d="M 4122 4306 
L 4122 3641 
Q 3803 3938 3442 4084 
Q 3081 4231 2675 4231 
Q 1875 4231 1450 3742 
Q 1025 3253 1025 2328 
Q 1025 1406 1450 917 
Q 1875 428 2675 428 
Q 3081 428 3442 575 
Q 3803 722 4122 1019 
L 4122 359 
Q 3791 134 3420 21 
Q 3050 -91 2638 -91 
Q 1578 -91 968 557 
Q 359 1206 359 2328 
Q 359 3453 968 4101 
Q 1578 4750 2638 4750 
Q 3056 4750 3426 4639 
Q 3797 4528 4122 4306 
z
" transform="scale(0.015625)"/>
      <path id="DejaVuSans-41" d="M 2188 4044 
L 1331 1722 
L 3047 1722 
L 2188 4044 
z
M 1831 4666 
L 2547 4666 
L 4325 0 
L 3669 0 
L 3244 1197 
L 1141 1197 
L 716 0 
L 50 0 
L 1831 4666 
z
" transform="scale(0.015625)"/>
      <path id="DejaVuSans-64" d="M 2906 2969 
L 2906 4863 
L 3481 4863 
L 3481 0 
L 2906 0 
L 2906 525 
Q 2725 213 2448 61 
Q 2172 -91 1784 -91 
Q 1150 -91 751 415 
Q 353 922 353 1747 
Q 353 2572 751 3078 
Q 1150 3584 1784 3584 
Q 2172 3584 2448 3432 
Q 2725 3281 2906 2969 
z
M 947 1747 
Q 947 1113 1208 752 
Q 1469 391 1925 391 
Q 2381 391 2643 752 
Q 2906 1113 2906 1747 
Q 2906 2381 2643 2742 
Q 2381 3103 1925 3103 
Q 1469 3103 1208 2742 
Q 947 2381 947 1747 
z
" transform="scale(0.015625)"/>
      <path id="DejaVuSans-74" d="M 1172 4494 
L 1172 3500 
L 2356 3500 
L 2356 3053 
L 1172 3053 
L 1172 1153 
Q 1172 725 1289 603 
Q 1406 481 1766 481 
L 2356 481 
L 2356 0 
L 1766 0 
Q 1100 0 847 248 
Q 594 497 594 1153 
L 594 3053 
L 172 3053 
L 172 3500 
L 594 3500 
L 594 4494 
L 1172 4494 
z
" transform="scale(0.015625)"/>
     </defs>
     <use xlink:href="#DejaVuSans-4c"/>
     <use xlink:href="#DejaVuSans-65" x="53.962891"/>
     <use xlink:href="#DejaVuSans-61" x="115.486328"/>
     <use xlink:href="#DejaVuSans-72" x="176.765625"/>
     <use xlink:href="#DejaVuSans-6e" x="216.128906"/>
     <use xlink:href="#DejaVuSans-69" x="279.507812"/>
     <use xlink:href="#DejaVuSans-6e" x="307.291016"/>
     <use xlink:href="#DejaVuSans-67" x="370.669922"/>
     <use xlink:href="#DejaVuSans-20" x="434.146484"/>
     <use xlink:href="#DejaVuSans-63" x="465.933594"/>
     <use xlink:href="#DejaVuSans-75" x="520.914062"/>
     <use xlink:href="#DejaVuSans-72" x="584.292969"/>
     <use xlink:href="#DejaVuSans-76" x="625.40625"/>
     <use xlink:href="#DejaVuSans-65" x="684.585938"/>
     <use xlink:href="#DejaVuSans-73" x="746.109375"/>
     <use xlink:href="#DejaVuSans-20" x="798.208984"/>
     <use xlink:href="#DejaVuSans-6f" x="829.996094"/>
     <use xlink:href="#DejaVuSans-66" x="891.177734"/>
     <use xlink:href="#DejaVuSans-20" x="926.382812"/>
     <use xlink:href="#DejaVuSans-44" x="958.169922"/>
     <use xlink:href="#DejaVuSans-4e" x="1035.171875"/>
     <use xlink:href="#DejaVuSans-4e" x="1109.976562"/>
     <use xlink:href="#DejaVuSans-20" x="1184.78125"/>
     <use xlink:href="#DejaVuSans-6f" x="1216.568359"/>
     <use xlink:href="#DejaVuSans-6e" x="1277.75"/>
     <use xlink:href="#DejaVuSans-20" x="1341.128906"/>
     <use xlink:href="#DejaVuSans-42" x="1372.916016"/>
     <use xlink:href="#DejaVuSans-52" x="1441.519531"/>
     <use xlink:href="#DejaVuSans-43" x="1506.001953"/>
     <use xlink:href="#DejaVuSans-41" x="1575.826172"/>
     <use xlink:href="#DejaVuSans-20" x="1644.234375"/>
     <use xlink:href="#DejaVuSans-64" x="1676.021484"/>
     <use xlink:href="#DejaVuSans-61" x="1739.498047"/>
     <use xlink:href="#DejaVuSans-74" x="1800.777344"/>
     <use xlink:href="#DejaVuSans-61" x="1839.986328"/>
    </g>
    <!-- N=1023, N(train)=818, N(test)=205 -->
    <g transform="translate(259.797188 63.12) scale(0.12 -0.12)">
     <defs>
      <path id="DejaVuSans-3d" d="M 678 2906 
L 4684 2906 
L 4684 2381 
L 678 2381 
L 678 2906 
z
M 678 1631 
L 4684 1631 
L 4684 1100 
L 678 1100 
L 678 1631 
z
" transform="scale(0.015625)"/>
      <path id="DejaVuSans-2c" d="M 750 794 
L 1409 794 
L 1409 256 
L 897 -744 
L 494 -744 
L 750 256 
L 750 794 
z
" transform="scale(0.015625)"/>
      <path id="DejaVuSans-28" d="M 1984 4856 
Q 1566 4138 1362 3434 
Q 1159 2731 1159 2009 
Q 1159 1288 1364 580 
Q 1569 -128 1984 -844 
L 1484 -844 
Q 1016 -109 783 600 
Q 550 1309 550 2009 
Q 550 2706 781 3412 
Q 1013 4119 1484 4856 
L 1984 4856 
z
" transform="scale(0.015625)"/>
      <path id="DejaVuSans-29" d="M 513 4856 
L 1013 4856 
Q 1481 4119 1714 3412 
Q 1947 2706 1947 2009 
Q 1947 1309 1714 600 
Q 1481 -109 1013 -844 
L 513 -844 
Q 928 -128 1133 580 
Q 1338 1288 1338 2009 
Q 1338 2731 1133 3434 
Q 928 4138 513 4856 
z
" transform="scale(0.015625)"/>
     </defs>
     <use xlink:href="#DejaVuSans-4e"/>
     <use xlink:href="#DejaVuSans-3d" x="74.804688"/>
     <use xlink:href="#DejaVuSans-31" x="158.59375"/>
     <use xlink:href="#DejaVuSans-30" x="222.216797"/>
     <use xlink:href="#DejaVuSans-32" x="285.839844"/>
     <use xlink:href="#DejaVuSans-33" x="349.462891"/>
     <use xlink:href="#DejaVuSans-2c" x="413.085938"/>
     <use xlink:href="#DejaVuSans-20" x="444.873047"/>
     <use xlink:href="#DejaVuSans-4e" x="476.660156"/>
     <use xlink:href="#DejaVuSans-28" x="551.464844"/>
     <use xlink:href="#DejaVuSans-74" x="590.478516"/>
     <use xlink:href="#DejaVuSans-72" x="629.6875"/>
     <use xlink:href="#DejaVuSans-61" x="670.800781"/>
     <use xlink:href="#DejaVuSans-69" x="732.080078"/>
     <use xlink:href="#DejaVuSans-6e" x="759.863281"/>
     <use xlink:href="#DejaVuSans-29" x="823.242188"/>
     <use xlink:href="#DejaVuSans-3d" x="862.255859"/>
     <use xlink:href="#DejaVuSans-38" x="946.044922"/>
     <use xlink:href="#DejaVuSans-31" x="1009.667969"/>
     <use xlink:href="#DejaVuSans-38" x="1073.291016"/>
     <use xlink:href="#DejaVuSans-2c" x="1136.914062"/>
     <use xlink:href="#DejaVuSans-20" x="1168.701172"/>
     <use xlink:href="#DejaVuSans-4e" x="1200.488281"/>
     <use xlink:href="#DejaVuSans-28" x="1275.292969"/>
     <use xlink:href="#DejaVuSans-74" x="1314.306641"/>
     <use xlink:href="#DejaVuSans-65" x="1353.515625"/>
     <use xlink:href="#DejaVuSans-73" x="1415.039062"/>
     <use xlink:href="#DejaVuSans-74" x="1467.138672"/>
     <use xlink:href="#DejaVuSans-29" x="1506.347656"/>
     <use xlink:href="#DejaVuSans-3d" x="1545.361328"/>
     <use xlink:href="#DejaVuSans-32" x="1629.150391"/>
     <use xlink:href="#DejaVuSans-30" x="1692.773438"/>
     <use xlink:href="#DejaVuSans-35" x="1756.396484"/>
    </g>
   </g>
   <g id="legend_1">
    <g id="patch_7">
     <path d="M 585.725 106.47625 
L 641 106.47625 
Q 643 106.47625 643 104.47625 
L 643 76.12 
Q 643 74.12 641 74.12 
L 585.725 74.12 
Q 583.725 74.12 583.725 76.12 
L 583.725 104.47625 
Q 583.725 106.47625 585.725 106.47625 
z
" style="fill: #ffffff; opacity: 0.8; stroke: #cccccc; stroke-linejoin: miter"/>
    </g>
    <g id="line2d_15">
     <path d="M 587.725 82.218437 
L 597.725 82.218437 
L 607.725 82.218437 
" style="fill: none; stroke: #1f77b4; stroke-width: 1.5; stroke-linecap: square"/>
    </g>
    <g id="text_15">
     <!-- train -->
     <g transform="translate(615.725 85.718437) scale(0.1 -0.1)">
      <use xlink:href="#DejaVuSans-74"/>
      <use xlink:href="#DejaVuSans-72" x="39.208984"/>
      <use xlink:href="#DejaVuSans-61" x="80.322266"/>
      <use xlink:href="#DejaVuSans-69" x="141.601562"/>
      <use xlink:href="#DejaVuSans-6e" x="169.384766"/>
     </g>
    </g>
    <g id="line2d_16">
     <path d="M 587.725 96.896563 
L 597.725 96.896563 
L 607.725 96.896563 
" style="fill: none; stroke: #ff7f0e; stroke-width: 1.5; stroke-linecap: square"/>
    </g>
    <g id="text_16">
     <!-- test -->
     <g transform="translate(615.725 100.396563) scale(0.1 -0.1)">
      <use xlink:href="#DejaVuSans-74"/>
      <use xlink:href="#DejaVuSans-65" x="39.208984"/>
      <use xlink:href="#DejaVuSans-73" x="100.732422"/>
      <use xlink:href="#DejaVuSans-74" x="152.832031"/>
     </g>
    </g>
   </g>
  </g>
  <g id="axes_2">
   <g id="patch_8">
    <path d="M 90 512.64 
L 648 512.64 
L 648 311.04 
L 90 311.04 
z
" style="fill: #ffffff"/>
   </g>
   <g id="matplotlib.axis_3">
    <g id="xtick_7">
     <g id="line2d_17">
      <g>
       <use xlink:href="#m09307c8eb7" x="115.363636" y="512.64" style="stroke: #000000; stroke-width: 0.8"/>
      </g>
     </g>
     <g id="text_17">
      <!-- 0 -->
      <g transform="translate(112.182386 527.238438) scale(0.1 -0.1)">
       <use xlink:href="#DejaVuSans-30"/>
      </g>
     </g>
    </g>
    <g id="xtick_8">
     <g id="line2d_18">
      <g>
       <use xlink:href="#m09307c8eb7" x="216.919738" y="512.64" style="stroke: #000000; stroke-width: 0.8"/>
      </g>
     </g>
     <g id="text_18">
      <!-- 200 -->
      <g transform="translate(207.375988 527.238438) scale(0.1 -0.1)">
       <use xlink:href="#DejaVuSans-32"/>
       <use xlink:href="#DejaVuSans-30" x="63.623047"/>
       <use xlink:href="#DejaVuSans-30" x="127.246094"/>
      </g>
     </g>
    </g>
    <g id="xtick_9">
     <g id="line2d_19">
      <g>
       <use xlink:href="#m09307c8eb7" x="318.475839" y="512.64" style="stroke: #000000; stroke-width: 0.8"/>
      </g>
     </g>
     <g id="text_19">
      <!-- 400 -->
      <g transform="translate(308.932089 527.238438) scale(0.1 -0.1)">
       <use xlink:href="#DejaVuSans-34"/>
       <use xlink:href="#DejaVuSans-30" x="63.623047"/>
       <use xlink:href="#DejaVuSans-30" x="127.246094"/>
      </g>
     </g>
    </g>
    <g id="xtick_10">
     <g id="line2d_20">
      <g>
       <use xlink:href="#m09307c8eb7" x="420.031941" y="512.64" style="stroke: #000000; stroke-width: 0.8"/>
      </g>
     </g>
     <g id="text_20">
      <!-- 600 -->
      <g transform="translate(410.488191 527.238438) scale(0.1 -0.1)">
       <use xlink:href="#DejaVuSans-36"/>
       <use xlink:href="#DejaVuSans-30" x="63.623047"/>
       <use xlink:href="#DejaVuSans-30" x="127.246094"/>
      </g>
     </g>
    </g>
    <g id="xtick_11">
     <g id="line2d_21">
      <g>
       <use xlink:href="#m09307c8eb7" x="521.588043" y="512.64" style="stroke: #000000; stroke-width: 0.8"/>
      </g>
     </g>
     <g id="text_21">
      <!-- 800 -->
      <g transform="translate(512.044293 527.238438) scale(0.1 -0.1)">
       <use xlink:href="#DejaVuSans-38"/>
       <use xlink:href="#DejaVuSans-30" x="63.623047"/>
       <use xlink:href="#DejaVuSans-30" x="127.246094"/>
      </g>
     </g>
    </g>
    <g id="xtick_12">
     <g id="line2d_22">
      <g>
       <use xlink:href="#m09307c8eb7" x="623.144144" y="512.64" style="stroke: #000000; stroke-width: 0.8"/>
      </g>
     </g>
     <g id="text_22">
      <!-- 1000 -->
      <g transform="translate(610.419144 527.238438) scale(0.1 -0.1)">
       <use xlink:href="#DejaVuSans-31"/>
       <use xlink:href="#DejaVuSans-30" x="63.623047"/>
       <use xlink:href="#DejaVuSans-30" x="127.246094"/>
       <use xlink:href="#DejaVuSans-30" x="190.869141"/>
      </g>
     </g>
    </g>
    <g id="text_23">
     <!-- Gradient step -->
     <g transform="translate(334.832812 540.916563) scale(0.1 -0.1)">
      <defs>
       <path id="DejaVuSans-47" d="M 3809 666 
L 3809 1919 
L 2778 1919 
L 2778 2438 
L 4434 2438 
L 4434 434 
Q 4069 175 3628 42 
Q 3188 -91 2688 -91 
Q 1594 -91 976 548 
Q 359 1188 359 2328 
Q 359 3472 976 4111 
Q 1594 4750 2688 4750 
Q 3144 4750 3555 4637 
Q 3966 4525 4313 4306 
L 4313 3634 
Q 3963 3931 3569 4081 
Q 3175 4231 2741 4231 
Q 1884 4231 1454 3753 
Q 1025 3275 1025 2328 
Q 1025 1384 1454 906 
Q 1884 428 2741 428 
Q 3075 428 3337 486 
Q 3600 544 3809 666 
z
" transform="scale(0.015625)"/>
       <path id="DejaVuSans-70" d="M 1159 525 
L 1159 -1331 
L 581 -1331 
L 581 3500 
L 1159 3500 
L 1159 2969 
Q 1341 3281 1617 3432 
Q 1894 3584 2278 3584 
Q 2916 3584 3314 3078 
Q 3713 2572 3713 1747 
Q 3713 922 3314 415 
Q 2916 -91 2278 -91 
Q 1894 -91 1617 61 
Q 1341 213 1159 525 
z
M 3116 1747 
Q 3116 2381 2855 2742 
Q 2594 3103 2138 3103 
Q 1681 3103 1420 2742 
Q 1159 2381 1159 1747 
Q 1159 1113 1420 752 
Q 1681 391 2138 391 
Q 2594 391 2855 752 
Q 3116 1113 3116 1747 
z
" transform="scale(0.015625)"/>
      </defs>
      <use xlink:href="#DejaVuSans-47"/>
      <use xlink:href="#DejaVuSans-72" x="77.490234"/>
      <use xlink:href="#DejaVuSans-61" x="118.603516"/>
      <use xlink:href="#DejaVuSans-64" x="179.882812"/>
      <use xlink:href="#DejaVuSans-69" x="243.359375"/>
      <use xlink:href="#DejaVuSans-65" x="271.142578"/>
      <use xlink:href="#DejaVuSans-6e" x="332.666016"/>
      <use xlink:href="#DejaVuSans-74" x="396.044922"/>
      <use xlink:href="#DejaVuSans-20" x="435.253906"/>
      <use xlink:href="#DejaVuSans-73" x="467.041016"/>
      <use xlink:href="#DejaVuSans-74" x="519.140625"/>
      <use xlink:href="#DejaVuSans-65" x="558.349609"/>
      <use xlink:href="#DejaVuSans-70" x="619.873047"/>
     </g>
    </g>
   </g>
   <g id="matplotlib.axis_4">
    <g id="ytick_7">
     <g id="line2d_23">
      <g>
       <use xlink:href="#me787bf2b9a" x="90" y="512.64" style="stroke: #000000; stroke-width: 0.8"/>
      </g>
     </g>
     <g id="text_24">
      <!-- 0 -->
      <g transform="translate(76.6375 516.439219) scale(0.1 -0.1)">
       <use xlink:href="#DejaVuSans-30"/>
      </g>
     </g>
    </g>
    <g id="ytick_8">
     <g id="line2d_24">
      <g>
       <use xlink:href="#me787bf2b9a" x="90" y="472.32" style="stroke: #000000; stroke-width: 0.8"/>
      </g>
     </g>
     <g id="text_25">
      <!-- 20 -->
      <g transform="translate(70.275 476.119219) scale(0.1 -0.1)">
       <use xlink:href="#DejaVuSans-32"/>
       <use xlink:href="#DejaVuSans-30" x="63.623047"/>
      </g>
     </g>
    </g>
    <g id="ytick_9">
     <g id="line2d_25">
      <g>
       <use xlink:href="#me787bf2b9a" x="90" y="432" style="stroke: #000000; stroke-width: 0.8"/>
      </g>
     </g>
     <g id="text_26">
      <!-- 40 -->
      <g transform="translate(70.275 435.799219) scale(0.1 -0.1)">
       <use xlink:href="#DejaVuSans-34"/>
       <use xlink:href="#DejaVuSans-30" x="63.623047"/>
      </g>
     </g>
    </g>
    <g id="ytick_10">
     <g id="line2d_26">
      <g>
       <use xlink:href="#me787bf2b9a" x="90" y="391.68" style="stroke: #000000; stroke-width: 0.8"/>
      </g>
     </g>
     <g id="text_27">
      <!-- 60 -->
      <g transform="translate(70.275 395.479219) scale(0.1 -0.1)">
       <use xlink:href="#DejaVuSans-36"/>
       <use xlink:href="#DejaVuSans-30" x="63.623047"/>
      </g>
     </g>
    </g>
    <g id="ytick_11">
     <g id="line2d_27">
      <g>
       <use xlink:href="#me787bf2b9a" x="90" y="351.36" style="stroke: #000000; stroke-width: 0.8"/>
      </g>
     </g>
     <g id="text_28">
      <!-- 80 -->
      <g transform="translate(70.275 355.159219) scale(0.1 -0.1)">
       <use xlink:href="#DejaVuSans-38"/>
       <use xlink:href="#DejaVuSans-30" x="63.623047"/>
      </g>
     </g>
    </g>
    <g id="ytick_12">
     <g id="line2d_28">
      <g>
       <use xlink:href="#me787bf2b9a" x="90" y="311.04" style="stroke: #000000; stroke-width: 0.8"/>
      </g>
     </g>
     <g id="text_29">
      <!-- 100 -->
      <g transform="translate(63.9125 314.839219) scale(0.1 -0.1)">
       <use xlink:href="#DejaVuSans-31"/>
       <use xlink:href="#DejaVuSans-30" x="63.623047"/>
       <use xlink:href="#DejaVuSans-30" x="127.246094"/>
      </g>
     </g>
    </g>
    <g id="text_30">
     <!-- Pearson Correlation -->
     <g transform="translate(57.832812 460.860312) rotate(-90) scale(0.1 -0.1)">
      <defs>
       <path id="DejaVuSans-50" d="M 1259 4147 
L 1259 2394 
L 2053 2394 
Q 2494 2394 2734 2622 
Q 2975 2850 2975 3272 
Q 2975 3691 2734 3919 
Q 2494 4147 2053 4147 
L 1259 4147 
z
M 628 4666 
L 2053 4666 
Q 2838 4666 3239 4311 
Q 3641 3956 3641 3272 
Q 3641 2581 3239 2228 
Q 2838 1875 2053 1875 
L 1259 1875 
L 1259 0 
L 628 0 
L 628 4666 
z
" transform="scale(0.015625)"/>
       <path id="DejaVuSans-6c" d="M 603 4863 
L 1178 4863 
L 1178 0 
L 603 0 
L 603 4863 
z
" transform="scale(0.015625)"/>
      </defs>
      <use xlink:href="#DejaVuSans-50"/>
      <use xlink:href="#DejaVuSans-65" x="56.677734"/>
      <use xlink:href="#DejaVuSans-61" x="118.201172"/>
      <use xlink:href="#DejaVuSans-72" x="179.480469"/>
      <use xlink:href="#DejaVuSans-73" x="220.59375"/>
      <use xlink:href="#DejaVuSans-6f" x="272.693359"/>
      <use xlink:href="#DejaVuSans-6e" x="333.875"/>
      <use xlink:href="#DejaVuSans-20" x="397.253906"/>
      <use xlink:href="#DejaVuSans-43" x="429.041016"/>
      <use xlink:href="#DejaVuSans-6f" x="498.865234"/>
      <use xlink:href="#DejaVuSans-72" x="560.046875"/>
      <use xlink:href="#DejaVuSans-72" x="599.410156"/>
      <use xlink:href="#DejaVuSans-65" x="638.273438"/>
      <use xlink:href="#DejaVuSans-6c" x="699.796875"/>
      <use xlink:href="#DejaVuSans-61" x="727.580078"/>
      <use xlink:href="#DejaVuSans-74" x="788.859375"/>
      <use xlink:href="#DejaVuSans-69" x="828.068359"/>
      <use xlink:href="#DejaVuSans-6f" x="855.851562"/>
      <use xlink:href="#DejaVuSans-6e" x="917.033203"/>
     </g>
    </g>
   </g>
   <g id="line2d_29">
    <path d="M 115.363636 510.959347 
L 116.379197 508.979179 
L 116.886978 506.018869 
L 117.394758 505.99256 
L 117.902539 504.766407 
L 118.410319 502.167344 
L 118.9181 498.387283 
L 119.42588 500.162512 
L 119.933661 498.838505 
L 120.441441 495.934962 
L 121.457002 488.975474 
L 121.964783 487.9822 
L 122.472563 486.627608 
L 123.488124 481.571797 
L 123.995905 477.183326 
L 125.519247 467.056243 
L 126.027027 464.593507 
L 127.042588 455.93709 
L 127.550369 453.859526 
L 128.058149 450.402055 
L 130.089271 427.135062 
L 130.597052 421.244085 
L 132.628174 405.62486 
L 134.151515 391.05979 
L 134.659296 388.190009 
L 135.167076 385.974652 
L 135.674857 384.540486 
L 137.198198 382.032823 
L 137.705979 381.67203 
L 139.737101 381.73453 
L 140.752662 381.87271 
L 142.783784 381.694854 
L 145.830467 380.495035 
L 147.353808 379.81818 
L 149.38493 379.126152 
L 150.908272 378.8757 
L 157.001638 378.385941 
L 165.633907 378.091316 
L 180.359541 377.992802 
L 188.484029 378.072311 
L 189.49959 378.047786 
L 190.007371 377.972231 
L 191.022932 378.057558 
L 192.038493 377.98678 
L 193.054054 377.977815 
L 213.873055 377.73658 
L 221.489762 377.397233 
L 225.552007 377.024567 
L 228.59869 376.563125 
L 231.137592 375.942101 
L 233.168714 375.204777 
L 235.199836 374.18884 
L 238.246519 372.302061 
L 239.769861 371.432205 
L 241.293202 370.802296 
L 242.816544 370.47379 
L 243.324324 370.377521 
L 244.339885 370.35874 
L 244.847666 370.740946 
L 245.863227 370.866837 
L 246.371007 370.442755 
L 246.878788 370.747813 
L 247.386568 370.73765 
L 247.894349 370.359175 
L 248.402129 370.545743 
L 248.90991 370.497202 
L 249.41769 370.309627 
L 250.433251 370.424765 
L 250.941032 370.26749 
L 251.956593 370.439749 
L 252.464373 370.253315 
L 252.972154 370.437918 
L 255.003276 370.446152 
L 255.511057 370.517944 
L 256.018837 370.18418 
L 256.526618 370.572241 
L 257.542179 370.185352 
L 258.049959 370.5563 
L 258.55774 370.181298 
L 259.573301 370.316797 
L 260.081081 370.225962 
L 260.588862 370.261193 
L 261.096642 370.154556 
L 261.604423 370.322083 
L 262.112203 370.14563 
L 262.619984 370.148605 
L 263.127764 370.265923 
L 263.635545 370.099121 
L 264.651106 370.163296 
L 266.174447 370.115074 
L 268.205569 370.120177 
L 269.22113 370.087783 
L 283.946765 370.014909 
L 293.086814 369.991031 
L 364.683866 369.953657 
L 370.777232 369.961336 
L 378.90172 369.977247 
L 382.456183 370.063991 
L 383.979525 370.039828 
L 384.487305 370.089089 
L 386.010647 369.979434 
L 388.54955 370.011647 
L 395.150696 369.976544 
L 396.674038 370.048704 
L 397.181818 369.999349 
L 397.689599 370.06449 
L 398.197379 369.989418 
L 398.70516 370.07734 
L 399.21294 369.96546 
L 399.720721 370.078999 
L 400.228501 369.952945 
L 400.736282 370.101147 
L 401.244062 370.004923 
L 401.751843 370.158208 
L 402.259623 370.075097 
L 402.767404 370.112735 
L 403.782965 369.991693 
L 405.306306 370.078913 
L 405.814087 369.980304 
L 407.337428 370.080628 
L 408.86077 370.049372 
L 409.36855 369.98596 
L 410.891892 370.12251 
L 413.938575 370.06501 
L 415.461916 370.03962 
L 417.493038 370.0383 
L 423.586405 370.022947 
L 431.710893 370.018208 
L 433.234234 370.083086 
L 434.757576 370.0398 
L 436.280917 370.063559 
L 437.804259 370.027919 
L 439.3276 370.066472 
L 440.850942 370.02289 
L 442.374283 370.078892 
L 443.897625 370.05202 
L 445.420966 370.076455 
L 446.944308 370.040416 
L 448.467649 370.07344 
L 449.990991 370.031305 
L 450.498771 370.085218 
L 451.006552 370.025215 
L 451.514333 370.092621 
L 452.022113 370.018516 
L 452.529894 370.108922 
L 453.037674 370.01986 
L 453.545455 370.133792 
L 454.053235 370.020645 
L 454.561016 370.14722 
L 455.068796 370.022908 
L 455.576577 370.133451 
L 456.084357 370.024942 
L 456.592138 370.097163 
L 457.607699 370.062175 
L 463.193284 370.072339 
L 471.317772 370.083144 
L 473.856675 370.071389 
L 476.395577 370.09415 
L 478.93448 370.068423 
L 481.473382 370.100985 
L 482.996724 370.072226 
L 484.520066 370.113831 
L 486.043407 370.059949 
L 486.551188 370.135766 
L 487.058968 370.059027 
L 487.566749 370.147508 
L 488.074529 370.055592 
L 488.58231 370.155012 
L 489.09009 370.055976 
L 489.597871 370.148083 
L 490.105651 370.057049 
L 490.613432 370.140382 
L 491.121212 370.066039 
L 492.136773 370.087281 
L 494.167895 370.104091 
L 495.691237 370.080098 
L 497.214578 370.119737 
L 498.73792 370.091564 
L 502.800164 370.118024 
L 505.846847 370.106631 
L 510.416871 370.115356 
L 513.971335 370.136658 
L 520.572482 370.236718 
L 521.080262 370.087257 
L 521.588043 370.235878 
L 522.095823 370.07905 
L 522.603604 370.278889 
L 523.111384 370.169632 
L 523.619165 370.278514 
L 524.634726 370.142861 
L 527.173628 370.181577 
L 527.681409 370.107744 
L 529.712531 370.182918 
L 530.220311 370.09411 
L 531.743653 370.20907 
L 535.805897 370.157255 
L 536.821458 370.15595 
L 538.85258 370.151158 
L 540.375921 370.167367 
L 542.407043 370.141376 
L 546.469287 370.126706 
L 548.50041 370.130975 
L 574.904996 370.139702 
L 576.428337 370.189061 
L 577.951679 370.149693 
L 578.459459 370.237727 
L 578.96724 370.163807 
L 579.47502 370.246326 
L 579.982801 370.136143 
L 580.490581 370.224857 
L 580.998362 370.108197 
L 581.506143 370.207628 
L 582.013923 370.113186 
L 582.521704 370.189495 
L 583.537265 370.149329 
L 589.630631 370.160497 
L 591.153972 370.13728 
L 592.677314 370.174493 
L 594.708436 370.148248 
L 615.527437 370.13232 
L 617.050778 370.173594 
L 618.57412 370.141194 
L 619.0819 370.212126 
L 619.589681 370.155254 
L 620.097461 370.244412 
L 620.605242 370.156207 
L 621.113022 370.245176 
L 621.620803 370.127338 
L 622.128583 370.221686 
L 622.636364 370.113576 
L 622.636364 370.113576 
" clip-path="url(#p1aa0d77601)" style="fill: none; stroke: #1f77b4; stroke-width: 1.5; stroke-linecap: square"/>
   </g>
   <g id="line2d_30">
    <path d="M 115.363636 510.933123 
L 115.871417 510.257385 
L 116.379197 509.094307 
L 116.886978 506.258675 
L 117.394758 506.315871 
L 117.902539 505.113744 
L 118.410319 502.630225 
L 118.9181 498.961586 
L 119.42588 500.599477 
L 119.933661 499.288733 
L 120.441441 496.453308 
L 121.457002 489.926842 
L 121.964783 488.925391 
L 122.472563 487.578501 
L 123.488124 482.688411 
L 123.995905 478.47165 
L 125.519247 468.729559 
L 126.027027 466.314284 
L 127.042588 457.867925 
L 127.550369 455.816164 
L 128.058149 452.458804 
L 130.089271 430.016512 
L 130.597052 424.314783 
L 132.628174 409.16525 
L 134.151515 395.159179 
L 134.659296 392.405102 
L 135.167076 390.26977 
L 135.674857 388.881906 
L 137.198198 386.485568 
L 137.705979 386.157608 
L 142.276003 386.345331 
L 143.799345 385.978248 
L 145.322686 385.344597 
L 147.353808 384.411774 
L 149.38493 383.71534 
L 150.908272 383.463997 
L 157.001638 382.989861 
L 165.126126 382.723659 
L 176.297297 382.626021 
L 208.287469 382.447589 
L 217.935299 382.151432 
L 223.520885 381.712052 
L 227.075348 381.213472 
L 229.614251 380.633802 
L 231.645373 379.932548 
L 233.168714 379.231675 
L 235.199836 377.992558 
L 237.738739 376.052524 
L 239.769861 374.564248 
L 240.785422 373.992995 
L 242.308763 373.418705 
L 244.339885 373.113203 
L 244.847666 373.59109 
L 245.355446 373.429957 
L 245.863227 373.715166 
L 246.371007 373.158687 
L 246.878788 373.449843 
L 247.386568 373.543965 
L 247.894349 373.061767 
L 248.402129 373.266328 
L 248.90991 373.277745 
L 249.41769 373.006115 
L 250.433251 373.174951 
L 250.941032 372.963993 
L 251.448812 373.128258 
L 251.956593 373.159086 
L 252.464373 372.921446 
L 252.972154 373.177725 
L 254.495495 373.076081 
L 255.003276 373.173224 
L 255.511057 373.120088 
L 256.018837 372.860449 
L 256.526618 373.305982 
L 257.034398 372.987298 
L 257.542179 372.821699 
L 258.049959 373.273414 
L 258.55774 372.835485 
L 259.573301 373.006175 
L 261.096642 372.808365 
L 261.604423 372.996029 
L 262.112203 372.767651 
L 262.619984 372.774911 
L 263.127764 372.925431 
L 263.635545 372.72876 
L 265.158886 372.761371 
L 266.174447 372.740656 
L 266.682228 372.778813 
L 267.190008 372.663875 
L 268.205569 372.750612 
L 269.22113 372.681303 
L 270.236691 372.661634 
L 305.781327 372.52666 
L 312.382473 372.522339 
L 378.90172 372.525259 
L 380.425061 372.595143 
L 380.932842 372.537793 
L 381.440622 372.611667 
L 381.948403 372.54816 
L 382.456183 372.636739 
L 382.963964 372.559059 
L 383.471744 372.678129 
L 383.979525 372.56371 
L 384.487305 372.678413 
L 384.995086 372.54721 
L 385.502867 372.628931 
L 386.010647 372.517644 
L 386.518428 372.583871 
L 387.533989 372.555333 
L 390.580672 372.56573 
L 392.611794 372.549525 
L 396.166257 372.518809 
L 396.674038 372.615612 
L 397.181818 372.53204 
L 397.689599 372.643916 
L 398.197379 372.522351 
L 398.70516 372.647999 
L 399.21294 372.4882 
L 399.720721 372.657521 
L 400.228501 372.49006 
L 400.736282 372.666429 
L 401.244062 372.554133 
L 401.751843 372.714556 
L 402.259623 372.624676 
L 403.275184 372.585662 
L 404.798526 372.548976 
L 405.306306 372.641455 
L 405.814087 372.532614 
L 406.321867 372.623959 
L 406.829648 372.554105 
L 407.337428 372.654833 
L 410.384111 372.598724 
L 410.891892 372.706609 
L 411.907453 372.62695 
L 412.923014 372.558162 
L 414.446355 372.664551 
L 415.969697 372.570523 
L 423.078624 372.577573 
L 432.726454 372.578459 
L 433.234234 372.654965 
L 433.742015 372.577339 
L 434.249795 372.661928 
L 434.757576 372.573007 
L 435.265356 372.66016 
L 435.773137 372.565705 
L 436.280917 372.629934 
L 436.788698 372.567079 
L 437.296478 372.627422 
L 438.312039 372.619696 
L 439.835381 372.584041 
L 441.358722 372.61948 
L 441.866503 372.571979 
L 442.374283 372.648225 
L 442.882064 372.585364 
L 443.389844 372.656963 
L 443.897625 372.591164 
L 444.405405 372.651434 
L 444.913186 372.588782 
L 445.420966 372.654744 
L 445.928747 372.583201 
L 447.452088 372.643165 
L 448.97543 372.587414 
L 450.498771 372.644011 
L 451.006552 372.568902 
L 451.514333 372.649017 
L 452.022113 372.56863 
L 452.529894 372.681744 
L 453.037674 372.557291 
L 453.545455 372.712868 
L 454.053235 372.555167 
L 454.561016 372.72993 
L 455.068796 372.557258 
L 455.576577 372.712087 
L 456.084357 372.565001 
L 456.592138 372.662423 
L 457.099918 372.581758 
L 459.13104 372.665135 
L 459.638821 372.587202 
L 460.146601 372.676045 
L 460.654382 372.581522 
L 461.669943 372.616244 
L 463.701065 372.643682 
L 465.224406 372.602308 
L 466.747748 372.633165 
L 481.981163 372.628924 
L 484.520066 372.672922 
L 485.027846 372.616947 
L 485.535627 372.675905 
L 486.043407 372.611491 
L 486.551188 372.691781 
L 487.058968 372.60443 
L 487.566749 372.718452 
L 488.074529 372.608398 
L 488.58231 372.717498 
L 489.09009 372.600804 
L 489.597871 372.708344 
L 490.105651 372.601233 
L 490.613432 372.708138 
L 491.121212 372.620775 
L 491.628993 372.6965 
L 492.136773 372.623801 
L 493.152334 372.640754 
L 519.04914 372.741547 
L 520.572482 372.802266 
L 521.080262 372.629078 
L 521.588043 372.818279 
L 522.095823 372.608168 
L 522.603604 372.875002 
L 523.111384 372.687761 
L 523.619165 372.880149 
L 524.126945 372.696094 
L 526.158067 372.816987 
L 526.665848 372.637486 
L 527.173628 372.767285 
L 527.681409 372.670184 
L 529.712531 372.760619 
L 530.220311 372.65184 
L 531.235872 372.761424 
L 533.774775 372.707252 
L 534.790336 372.824739 
L 536.313677 372.692072 
L 541.391482 372.699639 
L 549.00819 372.691678 
L 552.562654 372.693757 
L 575.920557 372.706708 
L 577.443898 372.753283 
L 578.96724 372.719038 
L 579.47502 372.801327 
L 579.982801 372.695212 
L 580.490581 372.786061 
L 580.998362 372.658448 
L 581.506143 372.777963 
L 582.013923 372.663379 
L 582.521704 372.761063 
L 583.537265 372.713825 
L 596.231777 372.699527 
L 618.57412 372.702847 
L 619.0819 372.769694 
L 619.589681 372.718015 
L 620.097461 372.793528 
L 620.605242 372.720739 
L 621.113022 372.794336 
L 621.620803 372.68107 
L 622.128583 372.795366 
L 622.636364 372.653074 
L 622.636364 372.653074 
" clip-path="url(#p1aa0d77601)" style="fill: none; stroke: #ff7f0e; stroke-width: 1.5; stroke-linecap: square"/>
   </g>
   <g id="patch_9">
    <path d="M 90 512.64 
L 90 311.04 
" style="fill: none; stroke: #000000; stroke-width: 0.8; stroke-linejoin: miter; stroke-linecap: square"/>
   </g>
   <g id="patch_10">
    <path d="M 648 512.64 
L 648 311.04 
" style="fill: none; stroke: #000000; stroke-width: 0.8; stroke-linejoin: miter; stroke-linecap: square"/>
   </g>
   <g id="patch_11">
    <path d="M 90 512.64 
L 648 512.64 
" style="fill: none; stroke: #000000; stroke-width: 0.8; stroke-linejoin: miter; stroke-linecap: square"/>
   </g>
   <g id="patch_12">
    <path d="M 90 311.04 
L 648 311.04 
" style="fill: none; stroke: #000000; stroke-width: 0.8; stroke-linejoin: miter; stroke-linecap: square"/>
   </g>
  </g>
 </g>
 <defs>
  <clipPath id="pf3a56e8975">
   <rect x="90" y="69.12" width="558" height="201.6"/>
  </clipPath>
  <clipPath id="p1aa0d77601">
   <rect x="90" y="311.04" width="558" height="201.6"/>
  </clipPath>
 </defs>
</svg>
