<?xml version="1.0" encoding="utf-8" standalone="no"?>
<!DOCTYPE svg PUBLIC "-//W3C//DTD SVG 1.1//EN"
  "http://www.w3.org/Graphics/SVG/1.1/DTD/svg11.dtd">
<svg xmlns:xlink="http://www.w3.org/1999/xlink" width="720pt" height="576pt" viewBox="0 0 720 576" xmlns="http://www.w3.org/2000/svg" version="1.1">
 <metadata>
  <rdf:RDF xmlns:dc="http://purl.org/dc/elements/1.1/" xmlns:cc="http://creativecommons.org/ns#" xmlns:rdf="http://www.w3.org/1999/02/22-rdf-syntax-ns#">
   <cc:Work>
    <dc:type rdf:resource="http://purl.org/dc/dcmitype/StillImage"/>
    <dc:date>2023-12-16T08:32:24.758797</dc:date>
    <dc:format>image/svg+xml</dc:format>
    <dc:creator>
     <cc:Agent>
      <dc:title>Matplotlib v3.7.1, https://matplotlib.org/</dc:title>
     </cc:Agent>
    </dc:creator>
   </cc:Work>
  </rdf:RDF>
 </metadata>
 <defs>
  <style type="text/css">*{stroke-linejoin: round; stroke-linecap: butt}</style>
 </defs>
 <g id="figure_1">
  <g id="patch_1">
   <path d="M 0 576 
L 720 576 
L 720 0 
L 0 0 
z
" style="fill: #ffffff"/>
  </g>
  <g id="axes_1">
   <g id="patch_2">
    <path d="M 90 270.72 
L 648 270.72 
L 648 69.12 
L 90 69.12 
z
" style="fill: #ffffff"/>
   </g>
   <g id="matplotlib.axis_1">
    <g id="xtick_1">
     <g id="line2d_1">
      <defs>
       <path id="mb8eb85140e" d="M 0 0 
L 0 3.5 
" style="stroke: #000000; stroke-width: 0.8"/>
      </defs>
      <g>
       <use xlink:href="#mb8eb85140e" x="115.363636" y="270.72" style="stroke: #000000; stroke-width: 0.8"/>
      </g>
     </g>
     <g id="text_1">
      <!-- 0 -->
      <g transform="translate(112.182386 285.318437) scale(0.1 -0.1)">
       <defs>
        <path id="DejaVuSans-30" d="M 2034 4250 
Q 1547 4250 1301 3770 
Q 1056 3291 1056 2328 
Q 1056 1369 1301 889 
Q 1547 409 2034 409 
Q 2525 409 2770 889 
Q 3016 1369 3016 2328 
Q 3016 3291 2770 3770 
Q 2525 4250 2034 4250 
z
M 2034 4750 
Q 2819 4750 3233 4129 
Q 3647 3509 3647 2328 
Q 3647 1150 3233 529 
Q 2819 -91 2034 -91 
Q 1250 -91 836 529 
Q 422 1150 422 2328 
Q 422 3509 836 4129 
Q 1250 4750 2034 4750 
z
" transform="scale(0.015625)"/>
       </defs>
       <use xlink:href="#DejaVuSans-30"/>
      </g>
     </g>
    </g>
    <g id="xtick_2">
     <g id="line2d_2">
      <g>
       <use xlink:href="#mb8eb85140e" x="216.919738" y="270.72" style="stroke: #000000; stroke-width: 0.8"/>
      </g>
     </g>
     <g id="text_2">
      <!-- 200 -->
      <g transform="translate(207.375988 285.318437) scale(0.1 -0.1)">
       <defs>
        <path id="DejaVuSans-32" d="M 1228 531 
L 3431 531 
L 3431 0 
L 469 0 
L 469 531 
Q 828 903 1448 1529 
Q 2069 2156 2228 2338 
Q 2531 2678 2651 2914 
Q 2772 3150 2772 3378 
Q 2772 3750 2511 3984 
Q 2250 4219 1831 4219 
Q 1534 4219 1204 4116 
Q 875 4013 500 3803 
L 500 4441 
Q 881 4594 1212 4672 
Q 1544 4750 1819 4750 
Q 2544 4750 2975 4387 
Q 3406 4025 3406 3419 
Q 3406 3131 3298 2873 
Q 3191 2616 2906 2266 
Q 2828 2175 2409 1742 
Q 1991 1309 1228 531 
z
" transform="scale(0.015625)"/>
       </defs>
       <use xlink:href="#DejaVuSans-32"/>
       <use xlink:href="#DejaVuSans-30" x="63.623047"/>
       <use xlink:href="#DejaVuSans-30" x="127.246094"/>
      </g>
     </g>
    </g>
    <g id="xtick_3">
     <g id="line2d_3">
      <g>
       <use xlink:href="#mb8eb85140e" x="318.475839" y="270.72" style="stroke: #000000; stroke-width: 0.8"/>
      </g>
     </g>
     <g id="text_3">
      <!-- 400 -->
      <g transform="translate(308.932089 285.318437) scale(0.1 -0.1)">
       <defs>
        <path id="DejaVuSans-34" d="M 2419 4116 
L 825 1625 
L 2419 1625 
L 2419 4116 
z
M 2253 4666 
L 3047 4666 
L 3047 1625 
L 3713 1625 
L 3713 1100 
L 3047 1100 
L 3047 0 
L 2419 0 
L 2419 1100 
L 313 1100 
L 313 1709 
L 2253 4666 
z
" transform="scale(0.015625)"/>
       </defs>
       <use xlink:href="#DejaVuSans-34"/>
       <use xlink:href="#DejaVuSans-30" x="63.623047"/>
       <use xlink:href="#DejaVuSans-30" x="127.246094"/>
      </g>
     </g>
    </g>
    <g id="xtick_4">
     <g id="line2d_4">
      <g>
       <use xlink:href="#mb8eb85140e" x="420.031941" y="270.72" style="stroke: #000000; stroke-width: 0.8"/>
      </g>
     </g>
     <g id="text_4">
      <!-- 600 -->
      <g transform="translate(410.488191 285.318437) scale(0.1 -0.1)">
       <defs>
        <path id="DejaVuSans-36" d="M 2113 2584 
Q 1688 2584 1439 2293 
Q 1191 2003 1191 1497 
Q 1191 994 1439 701 
Q 1688 409 2113 409 
Q 2538 409 2786 701 
Q 3034 994 3034 1497 
Q 3034 2003 2786 2293 
Q 2538 2584 2113 2584 
z
M 3366 4563 
L 3366 3988 
Q 3128 4100 2886 4159 
Q 2644 4219 2406 4219 
Q 1781 4219 1451 3797 
Q 1122 3375 1075 2522 
Q 1259 2794 1537 2939 
Q 1816 3084 2150 3084 
Q 2853 3084 3261 2657 
Q 3669 2231 3669 1497 
Q 3669 778 3244 343 
Q 2819 -91 2113 -91 
Q 1303 -91 875 529 
Q 447 1150 447 2328 
Q 447 3434 972 4092 
Q 1497 4750 2381 4750 
Q 2619 4750 2861 4703 
Q 3103 4656 3366 4563 
z
" transform="scale(0.015625)"/>
       </defs>
       <use xlink:href="#DejaVuSans-36"/>
       <use xlink:href="#DejaVuSans-30" x="63.623047"/>
       <use xlink:href="#DejaVuSans-30" x="127.246094"/>
      </g>
     </g>
    </g>
    <g id="xtick_5">
     <g id="line2d_5">
      <g>
       <use xlink:href="#mb8eb85140e" x="521.588043" y="270.72" style="stroke: #000000; stroke-width: 0.8"/>
      </g>
     </g>
     <g id="text_5">
      <!-- 800 -->
      <g transform="translate(512.044293 285.318437) scale(0.1 -0.1)">
       <defs>
        <path id="DejaVuSans-38" d="M 2034 2216 
Q 1584 2216 1326 1975 
Q 1069 1734 1069 1313 
Q 1069 891 1326 650 
Q 1584 409 2034 409 
Q 2484 409 2743 651 
Q 3003 894 3003 1313 
Q 3003 1734 2745 1975 
Q 2488 2216 2034 2216 
z
M 1403 2484 
Q 997 2584 770 2862 
Q 544 3141 544 3541 
Q 544 4100 942 4425 
Q 1341 4750 2034 4750 
Q 2731 4750 3128 4425 
Q 3525 4100 3525 3541 
Q 3525 3141 3298 2862 
Q 3072 2584 2669 2484 
Q 3125 2378 3379 2068 
Q 3634 1759 3634 1313 
Q 3634 634 3220 271 
Q 2806 -91 2034 -91 
Q 1263 -91 848 271 
Q 434 634 434 1313 
Q 434 1759 690 2068 
Q 947 2378 1403 2484 
z
M 1172 3481 
Q 1172 3119 1398 2916 
Q 1625 2713 2034 2713 
Q 2441 2713 2670 2916 
Q 2900 3119 2900 3481 
Q 2900 3844 2670 4047 
Q 2441 4250 2034 4250 
Q 1625 4250 1398 4047 
Q 1172 3844 1172 3481 
z
" transform="scale(0.015625)"/>
       </defs>
       <use xlink:href="#DejaVuSans-38"/>
       <use xlink:href="#DejaVuSans-30" x="63.623047"/>
       <use xlink:href="#DejaVuSans-30" x="127.246094"/>
      </g>
     </g>
    </g>
    <g id="xtick_6">
     <g id="line2d_6">
      <g>
       <use xlink:href="#mb8eb85140e" x="623.144144" y="270.72" style="stroke: #000000; stroke-width: 0.8"/>
      </g>
     </g>
     <g id="text_6">
      <!-- 1000 -->
      <g transform="translate(610.419144 285.318437) scale(0.1 -0.1)">
       <defs>
        <path id="DejaVuSans-31" d="M 794 531 
L 1825 531 
L 1825 4091 
L 703 3866 
L 703 4441 
L 1819 4666 
L 2450 4666 
L 2450 531 
L 3481 531 
L 3481 0 
L 794 0 
L 794 531 
z
" transform="scale(0.015625)"/>
       </defs>
       <use xlink:href="#DejaVuSans-31"/>
       <use xlink:href="#DejaVuSans-30" x="63.623047"/>
       <use xlink:href="#DejaVuSans-30" x="127.246094"/>
       <use xlink:href="#DejaVuSans-30" x="190.869141"/>
      </g>
     </g>
    </g>
   </g>
   <g id="matplotlib.axis_2">
    <g id="ytick_1">
     <g id="line2d_7">
      <defs>
       <path id="m148c0d895c" d="M 0 0 
L -3.5 0 
" style="stroke: #000000; stroke-width: 0.8"/>
      </defs>
      <g>
       <use xlink:href="#m148c0d895c" x="90" y="269.828057" style="stroke: #000000; stroke-width: 0.8"/>
      </g>
     </g>
     <g id="text_7">
      <!-- 0.02 -->
      <g transform="translate(60.734375 273.627275) scale(0.1 -0.1)">
       <defs>
        <path id="DejaVuSans-2e" d="M 684 794 
L 1344 794 
L 1344 0 
L 684 0 
L 684 794 
z
" transform="scale(0.015625)"/>
       </defs>
       <use xlink:href="#DejaVuSans-30"/>
       <use xlink:href="#DejaVuSans-2e" x="63.623047"/>
       <use xlink:href="#DejaVuSans-30" x="95.410156"/>
       <use xlink:href="#DejaVuSans-32" x="159.033203"/>
      </g>
     </g>
    </g>
    <g id="ytick_2">
     <g id="line2d_8">
      <g>
       <use xlink:href="#m148c0d895c" x="90" y="240.985354" style="stroke: #000000; stroke-width: 0.8"/>
      </g>
     </g>
     <g id="text_8">
      <!-- 0.04 -->
      <g transform="translate(60.734375 244.784572) scale(0.1 -0.1)">
       <use xlink:href="#DejaVuSans-30"/>
       <use xlink:href="#DejaVuSans-2e" x="63.623047"/>
       <use xlink:href="#DejaVuSans-30" x="95.410156"/>
       <use xlink:href="#DejaVuSans-34" x="159.033203"/>
      </g>
     </g>
    </g>
    <g id="ytick_3">
     <g id="line2d_9">
      <g>
       <use xlink:href="#m148c0d895c" x="90" y="212.142651" style="stroke: #000000; stroke-width: 0.8"/>
      </g>
     </g>
     <g id="text_9">
      <!-- 0.06 -->
      <g transform="translate(60.734375 215.941869) scale(0.1 -0.1)">
       <use xlink:href="#DejaVuSans-30"/>
       <use xlink:href="#DejaVuSans-2e" x="63.623047"/>
       <use xlink:href="#DejaVuSans-30" x="95.410156"/>
       <use xlink:href="#DejaVuSans-36" x="159.033203"/>
      </g>
     </g>
    </g>
    <g id="ytick_4">
     <g id="line2d_10">
      <g>
       <use xlink:href="#m148c0d895c" x="90" y="183.299948" style="stroke: #000000; stroke-width: 0.8"/>
      </g>
     </g>
     <g id="text_10">
      <!-- 0.08 -->
      <g transform="translate(60.734375 187.099167) scale(0.1 -0.1)">
       <use xlink:href="#DejaVuSans-30"/>
       <use xlink:href="#DejaVuSans-2e" x="63.623047"/>
       <use xlink:href="#DejaVuSans-30" x="95.410156"/>
       <use xlink:href="#DejaVuSans-38" x="159.033203"/>
      </g>
     </g>
    </g>
    <g id="ytick_5">
     <g id="line2d_11">
      <g>
       <use xlink:href="#m148c0d895c" x="90" y="154.457245" style="stroke: #000000; stroke-width: 0.8"/>
      </g>
     </g>
     <g id="text_11">
      <!-- 0.10 -->
      <g transform="translate(60.734375 158.256464) scale(0.1 -0.1)">
       <use xlink:href="#DejaVuSans-30"/>
       <use xlink:href="#DejaVuSans-2e" x="63.623047"/>
       <use xlink:href="#DejaVuSans-31" x="95.410156"/>
       <use xlink:href="#DejaVuSans-30" x="159.033203"/>
      </g>
     </g>
    </g>
    <g id="ytick_6">
     <g id="line2d_12">
      <g>
       <use xlink:href="#m148c0d895c" x="90" y="125.614542" style="stroke: #000000; stroke-width: 0.8"/>
      </g>
     </g>
     <g id="text_12">
      <!-- 0.12 -->
      <g transform="translate(60.734375 129.413761) scale(0.1 -0.1)">
       <use xlink:href="#DejaVuSans-30"/>
       <use xlink:href="#DejaVuSans-2e" x="63.623047"/>
       <use xlink:href="#DejaVuSans-31" x="95.410156"/>
       <use xlink:href="#DejaVuSans-32" x="159.033203"/>
      </g>
     </g>
    </g>
    <g id="ytick_7">
     <g id="line2d_13">
      <g>
       <use xlink:href="#m148c0d895c" x="90" y="96.771839" style="stroke: #000000; stroke-width: 0.8"/>
      </g>
     </g>
     <g id="text_13">
      <!-- 0.14 -->
      <g transform="translate(60.734375 100.571058) scale(0.1 -0.1)">
       <use xlink:href="#DejaVuSans-30"/>
       <use xlink:href="#DejaVuSans-2e" x="63.623047"/>
       <use xlink:href="#DejaVuSans-31" x="95.410156"/>
       <use xlink:href="#DejaVuSans-34" x="159.033203"/>
      </g>
     </g>
    </g>
    <g id="text_14">
     <!-- Loss -->
     <g transform="translate(54.654688 180.887187) rotate(-90) scale(0.1 -0.1)">
      <defs>
       <path id="DejaVuSans-4c" d="M 628 4666 
L 1259 4666 
L 1259 531 
L 3531 531 
L 3531 0 
L 628 0 
L 628 4666 
z
" transform="scale(0.015625)"/>
       <path id="DejaVuSans-6f" d="M 1959 3097 
Q 1497 3097 1228 2736 
Q 959 2375 959 1747 
Q 959 1119 1226 758 
Q 1494 397 1959 397 
Q 2419 397 2687 759 
Q 2956 1122 2956 1747 
Q 2956 2369 2687 2733 
Q 2419 3097 1959 3097 
z
M 1959 3584 
Q 2709 3584 3137 3096 
Q 3566 2609 3566 1747 
Q 3566 888 3137 398 
Q 2709 -91 1959 -91 
Q 1206 -91 779 398 
Q 353 888 353 1747 
Q 353 2609 779 3096 
Q 1206 3584 1959 3584 
z
" transform="scale(0.015625)"/>
       <path id="DejaVuSans-73" d="M 2834 3397 
L 2834 2853 
Q 2591 2978 2328 3040 
Q 2066 3103 1784 3103 
Q 1356 3103 1142 2972 
Q 928 2841 928 2578 
Q 928 2378 1081 2264 
Q 1234 2150 1697 2047 
L 1894 2003 
Q 2506 1872 2764 1633 
Q 3022 1394 3022 966 
Q 3022 478 2636 193 
Q 2250 -91 1575 -91 
Q 1294 -91 989 -36 
Q 684 19 347 128 
L 347 722 
Q 666 556 975 473 
Q 1284 391 1588 391 
Q 1994 391 2212 530 
Q 2431 669 2431 922 
Q 2431 1156 2273 1281 
Q 2116 1406 1581 1522 
L 1381 1569 
Q 847 1681 609 1914 
Q 372 2147 372 2553 
Q 372 3047 722 3315 
Q 1072 3584 1716 3584 
Q 2034 3584 2315 3537 
Q 2597 3491 2834 3397 
z
" transform="scale(0.015625)"/>
      </defs>
      <use xlink:href="#DejaVuSans-4c"/>
      <use xlink:href="#DejaVuSans-6f" x="53.962891"/>
      <use xlink:href="#DejaVuSans-73" x="115.144531"/>
      <use xlink:href="#DejaVuSans-73" x="167.244141"/>
     </g>
    </g>
   </g>
   <g id="line2d_14">
    <path d="M 115.363636 81.302028 
L 115.871417 80.540033 
L 116.379197 82.667342 
L 117.902539 84.053929 
L 119.42588 85.36698 
L 122.472563 87.662272 
L 124.503686 89.41661 
L 126.027027 90.978186 
L 127.550369 92.913658 
L 128.56593 94.510456 
L 129.581491 96.442039 
L 130.597052 98.818798 
L 131.612613 101.799132 
L 132.628174 105.520639 
L 133.643735 110.191465 
L 134.659296 115.969795 
L 135.674857 123.06009 
L 136.690418 131.549373 
L 137.705979 141.478881 
L 139.22932 158.817492 
L 144.814906 227.163257 
L 145.830467 236.213179 
L 146.846028 243.857516 
L 147.861589 249.647741 
L 148.87715 253.710933 
L 149.38493 255.424335 
L 150.400491 257.62091 
L 150.908272 258.507234 
L 151.923833 259.485704 
L 152.431613 259.852972 
L 153.447174 260.181224 
L 154.462735 260.332065 
L 163.095004 260.740034 
L 166.649468 261.145982 
L 169.696151 261.360157 
L 173.758395 261.451473 
L 202.701884 261.54553 
L 203.717445 261.380649 
L 204.225225 260.791615 
L 205.240786 260.513621 
L 205.748567 261.528062 
L 206.256347 261.267266 
L 206.764128 260.575043 
L 207.271908 261.501748 
L 207.779689 261.319085 
L 208.287469 260.786578 
L 208.79525 261.550811 
L 209.810811 260.995695 
L 210.318591 261.520463 
L 210.826372 261.128161 
L 211.841933 261.384493 
L 212.349713 261.212107 
L 212.857494 261.498713 
L 213.365274 261.266675 
L 214.380835 261.548872 
L 214.888616 261.279485 
L 215.396396 261.551708 
L 216.411957 261.391792 
L 216.919738 261.52381 
L 217.427518 261.4555 
L 219.45864 261.552837 
L 219.966421 261.443216 
L 220.981982 261.55076 
L 221.489762 261.46441 
L 222.505324 261.539919 
L 223.520885 261.545192 
L 231.137592 261.536051 
L 233.676495 261.552074 
L 239.769861 261.54856 
L 254.495495 261.55408 
L 309.33579 261.545984 
L 311.874693 261.501388 
L 312.382473 261.324046 
L 312.890254 261.277027 
L 313.398034 260.784539 
L 313.905815 260.786919 
L 314.413595 260.376013 
L 314.921376 261.181388 
L 315.429156 261.511641 
L 316.952498 261.076681 
L 317.460278 261.533888 
L 317.968059 261.497982 
L 318.475839 261.150594 
L 318.98362 261.436627 
L 319.4914 261.55274 
L 319.999181 261.384211 
L 322.030303 261.475654 
L 322.538084 261.429586 
L 323.045864 261.555399 
L 324.569206 261.549568 
L 339.802621 261.556256 
L 345.895987 261.550357 
L 356.051597 261.552837 
L 392.611794 261.553677 
L 401.751843 261.525698 
L 402.259623 261.419204 
L 402.767404 261.428756 
L 403.275184 261.176266 
L 403.782965 261.163853 
L 404.290745 260.712482 
L 404.798526 260.926348 
L 405.306306 260.798636 
L 405.814087 261.373128 
L 406.321867 261.53802 
L 407.845209 261.150097 
L 408.352989 261.481819 
L 408.86077 261.555149 
L 409.36855 261.408374 
L 410.384111 261.390551 
L 410.891892 261.555612 
L 411.399672 261.536596 
L 411.907453 261.384077 
L 412.923014 261.529714 
L 421.047502 261.514282 
L 422.570844 261.539465 
L 427.140868 261.551961 
L 440.850942 261.550363 
L 452.529894 261.553052 
L 474.872236 261.529735 
L 475.380016 261.440739 
L 475.887797 261.465141 
L 476.395577 261.28443 
L 476.903358 261.304453 
L 477.411138 260.985812 
L 477.918919 261.089749 
L 478.426699 260.81644 
L 478.93448 261.202931 
L 479.44226 261.294235 
L 479.950041 261.548176 
L 480.457821 261.543792 
L 480.965602 261.34102 
L 484.012285 261.468079 
L 484.520066 261.404949 
L 485.027846 261.54354 
L 486.551188 261.508195 
L 487.058968 261.462927 
L 488.074529 261.555982 
L 489.597871 261.493606 
L 490.613432 261.555174 
L 492.136773 261.508971 
L 493.660115 261.540512 
L 498.73792 261.556229 
L 518.033579 261.551182 
L 532.251433 261.556095 
L 538.344799 261.394118 
L 538.85258 261.159281 
L 539.36036 261.219494 
L 539.868141 260.923262 
L 540.375921 261.147515 
L 540.883702 261.055011 
L 541.391482 261.408556 
L 542.407043 261.540639 
L 542.914824 261.500521 
L 543.422604 261.312606 
L 543.930385 261.421114 
L 544.438165 261.408266 
L 544.945946 261.550811 
L 546.469287 261.488742 
L 546.977068 261.431617 
L 547.992629 261.551859 
L 549.515971 261.465466 
L 550.531532 261.540738 
L 564.749386 261.555335 
L 571.858313 261.548721 
L 579.982801 261.554779 
L 597.755119 261.366131 
L 598.262899 261.076823 
L 598.77068 261.114916 
L 599.27846 260.70841 
L 599.786241 260.986667 
L 600.294021 260.884425 
L 600.801802 261.372615 
L 601.309582 261.508294 
L 602.325143 261.427231 
L 602.832924 261.185796 
L 603.340704 261.398252 
L 604.864046 261.513766 
L 605.371826 261.348466 
L 606.387387 261.493042 
L 607.402948 261.53272 
L 607.910729 261.423145 
L 608.92629 261.519665 
L 609.941851 261.542608 
L 610.449631 261.467749 
L 611.465192 261.530764 
L 615.019656 261.555555 
L 616.542998 261.530541 
L 618.57412 261.553479 
L 620.605242 261.549914 
L 622.636364 261.542927 
L 622.636364 261.542927 
" clip-path="url(#p563e036185)" style="fill: none; stroke: #1f77b4; stroke-width: 1.5; stroke-linecap: square"/>
   </g>
   <g id="line2d_15">
    <path d="M 115.363636 79.089986 
L 115.871417 78.283636 
L 116.379197 80.452033 
L 117.902539 81.840448 
L 119.42588 83.16536 
L 122.472563 85.468024 
L 124.503686 87.228356 
L 126.027027 88.796079 
L 127.550369 90.740491 
L 128.56593 92.345885 
L 129.581491 94.286536 
L 130.597052 96.676403 
L 131.612613 99.675304 
L 132.628174 103.420901 
L 133.643735 108.12437 
L 134.659296 113.944282 
L 135.674857 121.081478 
L 136.690418 129.626247 
L 137.705979 139.625896 
L 139.22932 157.083409 
L 144.814906 225.872281 
L 145.830467 234.975873 
L 146.846028 242.660568 
L 147.861589 248.479921 
L 148.87715 252.561415 
L 149.38493 254.281151 
L 150.400491 256.485508 
L 150.908272 257.374558 
L 151.923833 258.355585 
L 152.431613 258.723603 
L 153.447174 259.052032 
L 154.462735 259.203703 
L 163.095004 259.626113 
L 167.157248 260.105783 
L 171.727273 260.343733 
L 190.007371 260.463067 
L 202.701884 260.472396 
L 203.717445 260.309267 
L 204.225225 259.701713 
L 204.733006 259.628477 
L 205.240786 259.417939 
L 205.748567 260.454125 
L 206.256347 260.19573 
L 206.764128 259.482327 
L 207.271908 260.430468 
L 207.779689 260.247992 
L 208.287469 259.695978 
L 208.79525 260.477962 
L 209.810811 259.908431 
L 210.318591 260.445021 
L 210.826372 260.059075 
L 211.841933 260.304238 
L 212.349713 260.1438 
L 212.857494 260.421173 
L 213.365274 260.183231 
L 214.380835 260.476522 
L 214.888616 260.195354 
L 215.396396 260.479144 
L 216.411957 260.310836 
L 216.919738 260.447221 
L 217.935299 260.427212 
L 218.95086 260.431856 
L 219.45864 260.478674 
L 219.966421 260.364009 
L 220.981982 260.478263 
L 221.489762 260.385861 
L 222.505324 260.468058 
L 223.520885 260.470309 
L 237.230958 260.47407 
L 243.832105 260.480269 
L 256.526618 260.478929 
L 305.781327 260.480954 
L 311.874693 260.430194 
L 312.382473 260.245193 
L 312.890254 260.205843 
L 313.398034 259.696717 
L 313.905815 259.713283 
L 314.413595 259.281457 
L 314.921376 260.109283 
L 315.429156 260.436326 
L 316.952498 259.994166 
L 317.460278 260.462385 
L 317.968059 260.427045 
L 318.475839 260.068714 
L 318.98362 260.367348 
L 319.4914 260.480046 
L 319.999181 260.305952 
L 321.522523 260.442504 
L 322.538084 260.351754 
L 323.045864 260.482582 
L 324.569206 260.478263 
L 341.325962 260.48367 
L 345.388206 260.480202 
L 363.668305 260.481223 
L 402.767404 260.358411 
L 403.275184 260.094227 
L 403.782965 260.093182 
L 404.290745 259.622643 
L 404.798526 259.854563 
L 405.306306 259.709697 
L 405.814087 260.302782 
L 406.321867 260.464561 
L 407.845209 260.067736 
L 408.352989 260.411291 
L 408.86077 260.482405 
L 409.36855 260.331186 
L 413.938575 260.444025 
L 414.446355 260.372715 
L 415.461916 260.484081 
L 415.969697 260.411017 
L 417.493038 260.479171 
L 475.887797 260.395209 
L 476.395577 260.203759 
L 476.903358 260.23498 
L 477.411138 259.89946 
L 477.918919 260.01993 
L 478.426699 259.727006 
L 478.93448 260.133383 
L 479.44226 260.213606 
L 479.950041 260.477419 
L 480.457821 260.473608 
L 480.965602 260.262194 
L 481.473382 260.308525 
L 481.981163 260.232952 
L 482.488943 260.458514 
L 482.996724 260.483998 
L 483.504505 260.379876 
L 486.551188 260.438959 
L 487.058968 260.385517 
L 488.074529 260.483485 
L 489.597871 260.417303 
L 490.613432 260.482459 
L 492.136773 260.433487 
L 493.152334 260.478671 
L 497.214578 260.458681 
L 499.753481 260.473943 
L 504.831286 260.4841 
L 510.416871 260.481183 
L 537.329238 260.426266 
L 537.837019 260.284347 
L 538.344799 260.325105 
L 538.85258 260.075442 
L 539.36036 260.15079 
L 539.868141 259.834913 
L 540.375921 260.078776 
L 540.883702 259.968975 
L 541.391482 260.339763 
L 542.407043 260.467491 
L 542.914824 260.431515 
L 543.422604 260.232079 
L 543.930385 260.352461 
L 544.438165 260.329545 
L 544.945946 260.479958 
L 546.469287 260.419946 
L 546.977068 260.353116 
L 547.992629 260.47883 
L 549.515971 260.387883 
L 550.531532 260.466532 
L 564.241605 260.480444 
L 588.61507 260.481596 
L 596.739558 260.424536 
L 597.247338 260.268528 
L 597.755119 260.297765 
L 598.262899 259.990752 
L 598.77068 260.04692 
L 599.27846 259.615471 
L 599.786241 259.91851 
L 600.294021 259.794389 
L 600.801802 260.30459 
L 601.309582 260.433237 
L 602.325143 260.359743 
L 602.832924 260.101821 
L 603.340704 260.330198 
L 604.864046 260.445384 
L 605.371826 260.267784 
L 605.879607 260.403302 
L 609.941851 260.472576 
L 610.449631 260.38992 
L 611.465192 260.455715 
L 614.511876 260.480664 
L 622.636364 260.469076 
L 622.636364 260.469076 
" clip-path="url(#p563e036185)" style="fill: none; stroke: #ff7f0e; stroke-width: 1.5; stroke-linecap: square"/>
   </g>
   <g id="patch_3">
    <path d="M 90 270.72 
L 90 69.12 
" style="fill: none; stroke: #000000; stroke-width: 0.8; stroke-linejoin: miter; stroke-linecap: square"/>
   </g>
   <g id="patch_4">
    <path d="M 648 270.72 
L 648 69.12 
" style="fill: none; stroke: #000000; stroke-width: 0.8; stroke-linejoin: miter; stroke-linecap: square"/>
   </g>
   <g id="patch_5">
    <path d="M 90 270.72 
L 648 270.72 
" style="fill: none; stroke: #000000; stroke-width: 0.8; stroke-linejoin: miter; stroke-linecap: square"/>
   </g>
   <g id="patch_6">
    <path d="M 90 69.12 
L 648 69.12 
" style="fill: none; stroke: #000000; stroke-width: 0.8; stroke-linejoin: miter; stroke-linecap: square"/>
   </g>
   <g id="text_15">
    <!-- Learning curves of DNN on BRCA data -->
    <g transform="translate(254.923125 49.682625) scale(0.12 -0.12)">
     <defs>
      <path id="DejaVuSans-65" d="M 3597 1894 
L 3597 1613 
L 953 1613 
Q 991 1019 1311 708 
Q 1631 397 2203 397 
Q 2534 397 2845 478 
Q 3156 559 3463 722 
L 3463 178 
Q 3153 47 2828 -22 
Q 2503 -91 2169 -91 
Q 1331 -91 842 396 
Q 353 884 353 1716 
Q 353 2575 817 3079 
Q 1281 3584 2069 3584 
Q 2775 3584 3186 3129 
Q 3597 2675 3597 1894 
z
M 3022 2063 
Q 3016 2534 2758 2815 
Q 2500 3097 2075 3097 
Q 1594 3097 1305 2825 
Q 1016 2553 972 2059 
L 3022 2063 
z
" transform="scale(0.015625)"/>
      <path id="DejaVuSans-61" d="M 2194 1759 
Q 1497 1759 1228 1600 
Q 959 1441 959 1056 
Q 959 750 1161 570 
Q 1363 391 1709 391 
Q 2188 391 2477 730 
Q 2766 1069 2766 1631 
L 2766 1759 
L 2194 1759 
z
M 3341 1997 
L 3341 0 
L 2766 0 
L 2766 531 
Q 2569 213 2275 61 
Q 1981 -91 1556 -91 
Q 1019 -91 701 211 
Q 384 513 384 1019 
Q 384 1609 779 1909 
Q 1175 2209 1959 2209 
L 2766 2209 
L 2766 2266 
Q 2766 2663 2505 2880 
Q 2244 3097 1772 3097 
Q 1472 3097 1187 3025 
Q 903 2953 641 2809 
L 641 3341 
Q 956 3463 1253 3523 
Q 1550 3584 1831 3584 
Q 2591 3584 2966 3190 
Q 3341 2797 3341 1997 
z
" transform="scale(0.015625)"/>
      <path id="DejaVuSans-72" d="M 2631 2963 
Q 2534 3019 2420 3045 
Q 2306 3072 2169 3072 
Q 1681 3072 1420 2755 
Q 1159 2438 1159 1844 
L 1159 0 
L 581 0 
L 581 3500 
L 1159 3500 
L 1159 2956 
Q 1341 3275 1631 3429 
Q 1922 3584 2338 3584 
Q 2397 3584 2469 3576 
Q 2541 3569 2628 3553 
L 2631 2963 
z
" transform="scale(0.015625)"/>
      <path id="DejaVuSans-6e" d="M 3513 2113 
L 3513 0 
L 2938 0 
L 2938 2094 
Q 2938 2591 2744 2837 
Q 2550 3084 2163 3084 
Q 1697 3084 1428 2787 
Q 1159 2491 1159 1978 
L 1159 0 
L 581 0 
L 581 3500 
L 1159 3500 
L 1159 2956 
Q 1366 3272 1645 3428 
Q 1925 3584 2291 3584 
Q 2894 3584 3203 3211 
Q 3513 2838 3513 2113 
z
" transform="scale(0.015625)"/>
      <path id="DejaVuSans-69" d="M 603 3500 
L 1178 3500 
L 1178 0 
L 603 0 
L 603 3500 
z
M 603 4863 
L 1178 4863 
L 1178 4134 
L 603 4134 
L 603 4863 
z
" transform="scale(0.015625)"/>
      <path id="DejaVuSans-67" d="M 2906 1791 
Q 2906 2416 2648 2759 
Q 2391 3103 1925 3103 
Q 1463 3103 1205 2759 
Q 947 2416 947 1791 
Q 947 1169 1205 825 
Q 1463 481 1925 481 
Q 2391 481 2648 825 
Q 2906 1169 2906 1791 
z
M 3481 434 
Q 3481 -459 3084 -895 
Q 2688 -1331 1869 -1331 
Q 1566 -1331 1297 -1286 
Q 1028 -1241 775 -1147 
L 775 -588 
Q 1028 -725 1275 -790 
Q 1522 -856 1778 -856 
Q 2344 -856 2625 -561 
Q 2906 -266 2906 331 
L 2906 616 
Q 2728 306 2450 153 
Q 2172 0 1784 0 
Q 1141 0 747 490 
Q 353 981 353 1791 
Q 353 2603 747 3093 
Q 1141 3584 1784 3584 
Q 2172 3584 2450 3431 
Q 2728 3278 2906 2969 
L 2906 3500 
L 3481 3500 
L 3481 434 
z
" transform="scale(0.015625)"/>
      <path id="DejaVuSans-20" transform="scale(0.015625)"/>
      <path id="DejaVuSans-63" d="M 3122 3366 
L 3122 2828 
Q 2878 2963 2633 3030 
Q 2388 3097 2138 3097 
Q 1578 3097 1268 2742 
Q 959 2388 959 1747 
Q 959 1106 1268 751 
Q 1578 397 2138 397 
Q 2388 397 2633 464 
Q 2878 531 3122 666 
L 3122 134 
Q 2881 22 2623 -34 
Q 2366 -91 2075 -91 
Q 1284 -91 818 406 
Q 353 903 353 1747 
Q 353 2603 823 3093 
Q 1294 3584 2113 3584 
Q 2378 3584 2631 3529 
Q 2884 3475 3122 3366 
z
" transform="scale(0.015625)"/>
      <path id="DejaVuSans-75" d="M 544 1381 
L 544 3500 
L 1119 3500 
L 1119 1403 
Q 1119 906 1312 657 
Q 1506 409 1894 409 
Q 2359 409 2629 706 
Q 2900 1003 2900 1516 
L 2900 3500 
L 3475 3500 
L 3475 0 
L 2900 0 
L 2900 538 
Q 2691 219 2414 64 
Q 2138 -91 1772 -91 
Q 1169 -91 856 284 
Q 544 659 544 1381 
z
M 1991 3584 
L 1991 3584 
z
" transform="scale(0.015625)"/>
      <path id="DejaVuSans-76" d="M 191 3500 
L 800 3500 
L 1894 563 
L 2988 3500 
L 3597 3500 
L 2284 0 
L 1503 0 
L 191 3500 
z
" transform="scale(0.015625)"/>
      <path id="DejaVuSans-66" d="M 2375 4863 
L 2375 4384 
L 1825 4384 
Q 1516 4384 1395 4259 
Q 1275 4134 1275 3809 
L 1275 3500 
L 2222 3500 
L 2222 3053 
L 1275 3053 
L 1275 0 
L 697 0 
L 697 3053 
L 147 3053 
L 147 3500 
L 697 3500 
L 697 3744 
Q 697 4328 969 4595 
Q 1241 4863 1831 4863 
L 2375 4863 
z
" transform="scale(0.015625)"/>
      <path id="DejaVuSans-44" d="M 1259 4147 
L 1259 519 
L 2022 519 
Q 2988 519 3436 956 
Q 3884 1394 3884 2338 
Q 3884 3275 3436 3711 
Q 2988 4147 2022 4147 
L 1259 4147 
z
M 628 4666 
L 1925 4666 
Q 3281 4666 3915 4102 
Q 4550 3538 4550 2338 
Q 4550 1131 3912 565 
Q 3275 0 1925 0 
L 628 0 
L 628 4666 
z
" transform="scale(0.015625)"/>
      <path id="DejaVuSans-4e" d="M 628 4666 
L 1478 4666 
L 3547 763 
L 3547 4666 
L 4159 4666 
L 4159 0 
L 3309 0 
L 1241 3903 
L 1241 0 
L 628 0 
L 628 4666 
z
" transform="scale(0.015625)"/>
      <path id="DejaVuSans-42" d="M 1259 2228 
L 1259 519 
L 2272 519 
Q 2781 519 3026 730 
Q 3272 941 3272 1375 
Q 3272 1813 3026 2020 
Q 2781 2228 2272 2228 
L 1259 2228 
z
M 1259 4147 
L 1259 2741 
L 2194 2741 
Q 2656 2741 2882 2914 
Q 3109 3088 3109 3444 
Q 3109 3797 2882 3972 
Q 2656 4147 2194 4147 
L 1259 4147 
z
M 628 4666 
L 2241 4666 
Q 2963 4666 3353 4366 
Q 3744 4066 3744 3513 
Q 3744 3084 3544 2831 
Q 3344 2578 2956 2516 
Q 3422 2416 3680 2098 
Q 3938 1781 3938 1306 
Q 3938 681 3513 340 
Q 3088 0 2303 0 
L 628 0 
L 628 4666 
z
" transform="scale(0.015625)"/>
      <path id="DejaVuSans-52" d="M 2841 2188 
Q 3044 2119 3236 1894 
Q 3428 1669 3622 1275 
L 4263 0 
L 3584 0 
L 2988 1197 
Q 2756 1666 2539 1819 
Q 2322 1972 1947 1972 
L 1259 1972 
L 1259 0 
L 628 0 
L 628 4666 
L 2053 4666 
Q 2853 4666 3247 4331 
Q 3641 3997 3641 3322 
Q 3641 2881 3436 2590 
Q 3231 2300 2841 2188 
z
M 1259 4147 
L 1259 2491 
L 2053 2491 
Q 2509 2491 2742 2702 
Q 2975 2913 2975 3322 
Q 2975 3731 2742 3939 
Q 2509 4147 2053 4147 
L 1259 4147 
z
" transform="scale(0.015625)"/>
      <path id="DejaVuSans-43" d="M 4122 4306 
L 4122 3641 
Q 3803 3938 3442 4084 
Q 3081 4231 2675 4231 
Q 1875 4231 1450 3742 
Q 1025 3253 1025 2328 
Q 1025 1406 1450 917 
Q 1875 428 2675 428 
Q 3081 428 3442 575 
Q 3803 722 4122 1019 
L 4122 359 
Q 3791 134 3420 21 
Q 3050 -91 2638 -91 
Q 1578 -91 968 557 
Q 359 1206 359 2328 
Q 359 3453 968 4101 
Q 1578 4750 2638 4750 
Q 3056 4750 3426 4639 
Q 3797 4528 4122 4306 
z
" transform="scale(0.015625)"/>
      <path id="DejaVuSans-41" d="M 2188 4044 
L 1331 1722 
L 3047 1722 
L 2188 4044 
z
M 1831 4666 
L 2547 4666 
L 4325 0 
L 3669 0 
L 3244 1197 
L 1141 1197 
L 716 0 
L 50 0 
L 1831 4666 
z
" transform="scale(0.015625)"/>
      <path id="DejaVuSans-64" d="M 2906 2969 
L 2906 4863 
L 3481 4863 
L 3481 0 
L 2906 0 
L 2906 525 
Q 2725 213 2448 61 
Q 2172 -91 1784 -91 
Q 1150 -91 751 415 
Q 353 922 353 1747 
Q 353 2572 751 3078 
Q 1150 3584 1784 3584 
Q 2172 3584 2448 3432 
Q 2725 3281 2906 2969 
z
M 947 1747 
Q 947 1113 1208 752 
Q 1469 391 1925 391 
Q 2381 391 2643 752 
Q 2906 1113 2906 1747 
Q 2906 2381 2643 2742 
Q 2381 3103 1925 3103 
Q 1469 3103 1208 2742 
Q 947 2381 947 1747 
z
" transform="scale(0.015625)"/>
      <path id="DejaVuSans-74" d="M 1172 4494 
L 1172 3500 
L 2356 3500 
L 2356 3053 
L 1172 3053 
L 1172 1153 
Q 1172 725 1289 603 
Q 1406 481 1766 481 
L 2356 481 
L 2356 0 
L 1766 0 
Q 1100 0 847 248 
Q 594 497 594 1153 
L 594 3053 
L 172 3053 
L 172 3500 
L 594 3500 
L 594 4494 
L 1172 4494 
z
" transform="scale(0.015625)"/>
     </defs>
     <use xlink:href="#DejaVuSans-4c"/>
     <use xlink:href="#DejaVuSans-65" x="53.962891"/>
     <use xlink:href="#DejaVuSans-61" x="115.486328"/>
     <use xlink:href="#DejaVuSans-72" x="176.765625"/>
     <use xlink:href="#DejaVuSans-6e" x="216.128906"/>
     <use xlink:href="#DejaVuSans-69" x="279.507812"/>
     <use xlink:href="#DejaVuSans-6e" x="307.291016"/>
     <use xlink:href="#DejaVuSans-67" x="370.669922"/>
     <use xlink:href="#DejaVuSans-20" x="434.146484"/>
     <use xlink:href="#DejaVuSans-63" x="465.933594"/>
     <use xlink:href="#DejaVuSans-75" x="520.914062"/>
     <use xlink:href="#DejaVuSans-72" x="584.292969"/>
     <use xlink:href="#DejaVuSans-76" x="625.40625"/>
     <use xlink:href="#DejaVuSans-65" x="684.585938"/>
     <use xlink:href="#DejaVuSans-73" x="746.109375"/>
     <use xlink:href="#DejaVuSans-20" x="798.208984"/>
     <use xlink:href="#DejaVuSans-6f" x="829.996094"/>
     <use xlink:href="#DejaVuSans-66" x="891.177734"/>
     <use xlink:href="#DejaVuSans-20" x="926.382812"/>
     <use xlink:href="#DejaVuSans-44" x="958.169922"/>
     <use xlink:href="#DejaVuSans-4e" x="1035.171875"/>
     <use xlink:href="#DejaVuSans-4e" x="1109.976562"/>
     <use xlink:href="#DejaVuSans-20" x="1184.78125"/>
     <use xlink:href="#DejaVuSans-6f" x="1216.568359"/>
     <use xlink:href="#DejaVuSans-6e" x="1277.75"/>
     <use xlink:href="#DejaVuSans-20" x="1341.128906"/>
     <use xlink:href="#DejaVuSans-42" x="1372.916016"/>
     <use xlink:href="#DejaVuSans-52" x="1441.519531"/>
     <use xlink:href="#DejaVuSans-43" x="1506.001953"/>
     <use xlink:href="#DejaVuSans-41" x="1575.826172"/>
     <use xlink:href="#DejaVuSans-20" x="1644.234375"/>
     <use xlink:href="#DejaVuSans-64" x="1676.021484"/>
     <use xlink:href="#DejaVuSans-61" x="1739.498047"/>
     <use xlink:href="#DejaVuSans-74" x="1800.777344"/>
     <use xlink:href="#DejaVuSans-61" x="1839.986328"/>
    </g>
    <!-- N=1023, N(train)=818, N(test)=205 -->
    <g transform="translate(259.797188 63.12) scale(0.12 -0.12)">
     <defs>
      <path id="DejaVuSans-3d" d="M 678 2906 
L 4684 2906 
L 4684 2381 
L 678 2381 
L 678 2906 
z
M 678 1631 
L 4684 1631 
L 4684 1100 
L 678 1100 
L 678 1631 
z
" transform="scale(0.015625)"/>
      <path id="DejaVuSans-33" d="M 2597 2516 
Q 3050 2419 3304 2112 
Q 3559 1806 3559 1356 
Q 3559 666 3084 287 
Q 2609 -91 1734 -91 
Q 1441 -91 1130 -33 
Q 819 25 488 141 
L 488 750 
Q 750 597 1062 519 
Q 1375 441 1716 441 
Q 2309 441 2620 675 
Q 2931 909 2931 1356 
Q 2931 1769 2642 2001 
Q 2353 2234 1838 2234 
L 1294 2234 
L 1294 2753 
L 1863 2753 
Q 2328 2753 2575 2939 
Q 2822 3125 2822 3475 
Q 2822 3834 2567 4026 
Q 2313 4219 1838 4219 
Q 1578 4219 1281 4162 
Q 984 4106 628 3988 
L 628 4550 
Q 988 4650 1302 4700 
Q 1616 4750 1894 4750 
Q 2613 4750 3031 4423 
Q 3450 4097 3450 3541 
Q 3450 3153 3228 2886 
Q 3006 2619 2597 2516 
z
" transform="scale(0.015625)"/>
      <path id="DejaVuSans-2c" d="M 750 794 
L 1409 794 
L 1409 256 
L 897 -744 
L 494 -744 
L 750 256 
L 750 794 
z
" transform="scale(0.015625)"/>
      <path id="DejaVuSans-28" d="M 1984 4856 
Q 1566 4138 1362 3434 
Q 1159 2731 1159 2009 
Q 1159 1288 1364 580 
Q 1569 -128 1984 -844 
L 1484 -844 
Q 1016 -109 783 600 
Q 550 1309 550 2009 
Q 550 2706 781 3412 
Q 1013 4119 1484 4856 
L 1984 4856 
z
" transform="scale(0.015625)"/>
      <path id="DejaVuSans-29" d="M 513 4856 
L 1013 4856 
Q 1481 4119 1714 3412 
Q 1947 2706 1947 2009 
Q 1947 1309 1714 600 
Q 1481 -109 1013 -844 
L 513 -844 
Q 928 -128 1133 580 
Q 1338 1288 1338 2009 
Q 1338 2731 1133 3434 
Q 928 4138 513 4856 
z
" transform="scale(0.015625)"/>
      <path id="DejaVuSans-35" d="M 691 4666 
L 3169 4666 
L 3169 4134 
L 1269 4134 
L 1269 2991 
Q 1406 3038 1543 3061 
Q 1681 3084 1819 3084 
Q 2600 3084 3056 2656 
Q 3513 2228 3513 1497 
Q 3513 744 3044 326 
Q 2575 -91 1722 -91 
Q 1428 -91 1123 -41 
Q 819 9 494 109 
L 494 744 
Q 775 591 1075 516 
Q 1375 441 1709 441 
Q 2250 441 2565 725 
Q 2881 1009 2881 1497 
Q 2881 1984 2565 2268 
Q 2250 2553 1709 2553 
Q 1456 2553 1204 2497 
Q 953 2441 691 2322 
L 691 4666 
z
" transform="scale(0.015625)"/>
     </defs>
     <use xlink:href="#DejaVuSans-4e"/>
     <use xlink:href="#DejaVuSans-3d" x="74.804688"/>
     <use xlink:href="#DejaVuSans-31" x="158.59375"/>
     <use xlink:href="#DejaVuSans-30" x="222.216797"/>
     <use xlink:href="#DejaVuSans-32" x="285.839844"/>
     <use xlink:href="#DejaVuSans-33" x="349.462891"/>
     <use xlink:href="#DejaVuSans-2c" x="413.085938"/>
     <use xlink:href="#DejaVuSans-20" x="444.873047"/>
     <use xlink:href="#DejaVuSans-4e" x="476.660156"/>
     <use xlink:href="#DejaVuSans-28" x="551.464844"/>
     <use xlink:href="#DejaVuSans-74" x="590.478516"/>
     <use xlink:href="#DejaVuSans-72" x="629.6875"/>
     <use xlink:href="#DejaVuSans-61" x="670.800781"/>
     <use xlink:href="#DejaVuSans-69" x="732.080078"/>
     <use xlink:href="#DejaVuSans-6e" x="759.863281"/>
     <use xlink:href="#DejaVuSans-29" x="823.242188"/>
     <use xlink:href="#DejaVuSans-3d" x="862.255859"/>
     <use xlink:href="#DejaVuSans-38" x="946.044922"/>
     <use xlink:href="#DejaVuSans-31" x="1009.667969"/>
     <use xlink:href="#DejaVuSans-38" x="1073.291016"/>
     <use xlink:href="#DejaVuSans-2c" x="1136.914062"/>
     <use xlink:href="#DejaVuSans-20" x="1168.701172"/>
     <use xlink:href="#DejaVuSans-4e" x="1200.488281"/>
     <use xlink:href="#DejaVuSans-28" x="1275.292969"/>
     <use xlink:href="#DejaVuSans-74" x="1314.306641"/>
     <use xlink:href="#DejaVuSans-65" x="1353.515625"/>
     <use xlink:href="#DejaVuSans-73" x="1415.039062"/>
     <use xlink:href="#DejaVuSans-74" x="1467.138672"/>
     <use xlink:href="#DejaVuSans-29" x="1506.347656"/>
     <use xlink:href="#DejaVuSans-3d" x="1545.361328"/>
     <use xlink:href="#DejaVuSans-32" x="1629.150391"/>
     <use xlink:href="#DejaVuSans-30" x="1692.773438"/>
     <use xlink:href="#DejaVuSans-35" x="1756.396484"/>
    </g>
   </g>
   <g id="legend_1">
    <g id="patch_7">
     <path d="M 585.725 106.47625 
L 641 106.47625 
Q 643 106.47625 643 104.47625 
L 643 76.12 
Q 643 74.12 641 74.12 
L 585.725 74.12 
Q 583.725 74.12 583.725 76.12 
L 583.725 104.47625 
Q 583.725 106.47625 585.725 106.47625 
z
" style="fill: #ffffff; opacity: 0.8; stroke: #cccccc; stroke-linejoin: miter"/>
    </g>
    <g id="line2d_16">
     <path d="M 587.725 82.218437 
L 597.725 82.218437 
L 607.725 82.218437 
" style="fill: none; stroke: #1f77b4; stroke-width: 1.5; stroke-linecap: square"/>
    </g>
    <g id="text_16">
     <!-- train -->
     <g transform="translate(615.725 85.718437) scale(0.1 -0.1)">
      <use xlink:href="#DejaVuSans-74"/>
      <use xlink:href="#DejaVuSans-72" x="39.208984"/>
      <use xlink:href="#DejaVuSans-61" x="80.322266"/>
      <use xlink:href="#DejaVuSans-69" x="141.601562"/>
      <use xlink:href="#DejaVuSans-6e" x="169.384766"/>
     </g>
    </g>
    <g id="line2d_17">
     <path d="M 587.725 96.896563 
L 597.725 96.896563 
L 607.725 96.896563 
" style="fill: none; stroke: #ff7f0e; stroke-width: 1.5; stroke-linecap: square"/>
    </g>
    <g id="text_17">
     <!-- test -->
     <g transform="translate(615.725 100.396563) scale(0.1 -0.1)">
      <use xlink:href="#DejaVuSans-74"/>
      <use xlink:href="#DejaVuSans-65" x="39.208984"/>
      <use xlink:href="#DejaVuSans-73" x="100.732422"/>
      <use xlink:href="#DejaVuSans-74" x="152.832031"/>
     </g>
    </g>
   </g>
  </g>
  <g id="axes_2">
   <g id="patch_8">
    <path d="M 90 512.64 
L 648 512.64 
L 648 311.04 
L 90 311.04 
z
" style="fill: #ffffff"/>
   </g>
   <g id="matplotlib.axis_3">
    <g id="xtick_7">
     <g id="line2d_18">
      <g>
       <use xlink:href="#mb8eb85140e" x="115.363636" y="512.64" style="stroke: #000000; stroke-width: 0.8"/>
      </g>
     </g>
     <g id="text_18">
      <!-- 0 -->
      <g transform="translate(112.182386 527.238438) scale(0.1 -0.1)">
       <use xlink:href="#DejaVuSans-30"/>
      </g>
     </g>
    </g>
    <g id="xtick_8">
     <g id="line2d_19">
      <g>
       <use xlink:href="#mb8eb85140e" x="216.919738" y="512.64" style="stroke: #000000; stroke-width: 0.8"/>
      </g>
     </g>
     <g id="text_19">
      <!-- 200 -->
      <g transform="translate(207.375988 527.238438) scale(0.1 -0.1)">
       <use xlink:href="#DejaVuSans-32"/>
       <use xlink:href="#DejaVuSans-30" x="63.623047"/>
       <use xlink:href="#DejaVuSans-30" x="127.246094"/>
      </g>
     </g>
    </g>
    <g id="xtick_9">
     <g id="line2d_20">
      <g>
       <use xlink:href="#mb8eb85140e" x="318.475839" y="512.64" style="stroke: #000000; stroke-width: 0.8"/>
      </g>
     </g>
     <g id="text_20">
      <!-- 400 -->
      <g transform="translate(308.932089 527.238438) scale(0.1 -0.1)">
       <use xlink:href="#DejaVuSans-34"/>
       <use xlink:href="#DejaVuSans-30" x="63.623047"/>
       <use xlink:href="#DejaVuSans-30" x="127.246094"/>
      </g>
     </g>
    </g>
    <g id="xtick_10">
     <g id="line2d_21">
      <g>
       <use xlink:href="#mb8eb85140e" x="420.031941" y="512.64" style="stroke: #000000; stroke-width: 0.8"/>
      </g>
     </g>
     <g id="text_21">
      <!-- 600 -->
      <g transform="translate(410.488191 527.238438) scale(0.1 -0.1)">
       <use xlink:href="#DejaVuSans-36"/>
       <use xlink:href="#DejaVuSans-30" x="63.623047"/>
       <use xlink:href="#DejaVuSans-30" x="127.246094"/>
      </g>
     </g>
    </g>
    <g id="xtick_11">
     <g id="line2d_22">
      <g>
       <use xlink:href="#mb8eb85140e" x="521.588043" y="512.64" style="stroke: #000000; stroke-width: 0.8"/>
      </g>
     </g>
     <g id="text_22">
      <!-- 800 -->
      <g transform="translate(512.044293 527.238438) scale(0.1 -0.1)">
       <use xlink:href="#DejaVuSans-38"/>
       <use xlink:href="#DejaVuSans-30" x="63.623047"/>
       <use xlink:href="#DejaVuSans-30" x="127.246094"/>
      </g>
     </g>
    </g>
    <g id="xtick_12">
     <g id="line2d_23">
      <g>
       <use xlink:href="#mb8eb85140e" x="623.144144" y="512.64" style="stroke: #000000; stroke-width: 0.8"/>
      </g>
     </g>
     <g id="text_23">
      <!-- 1000 -->
      <g transform="translate(610.419144 527.238438) scale(0.1 -0.1)">
       <use xlink:href="#DejaVuSans-31"/>
       <use xlink:href="#DejaVuSans-30" x="63.623047"/>
       <use xlink:href="#DejaVuSans-30" x="127.246094"/>
       <use xlink:href="#DejaVuSans-30" x="190.869141"/>
      </g>
     </g>
    </g>
    <g id="text_24">
     <!-- Gradient step -->
     <g transform="translate(334.832812 540.916563) scale(0.1 -0.1)">
      <defs>
       <path id="DejaVuSans-47" d="M 3809 666 
L 3809 1919 
L 2778 1919 
L 2778 2438 
L 4434 2438 
L 4434 434 
Q 4069 175 3628 42 
Q 3188 -91 2688 -91 
Q 1594 -91 976 548 
Q 359 1188 359 2328 
Q 359 3472 976 4111 
Q 1594 4750 2688 4750 
Q 3144 4750 3555 4637 
Q 3966 4525 4313 4306 
L 4313 3634 
Q 3963 3931 3569 4081 
Q 3175 4231 2741 4231 
Q 1884 4231 1454 3753 
Q 1025 3275 1025 2328 
Q 1025 1384 1454 906 
Q 1884 428 2741 428 
Q 3075 428 3337 486 
Q 3600 544 3809 666 
z
" transform="scale(0.015625)"/>
       <path id="DejaVuSans-70" d="M 1159 525 
L 1159 -1331 
L 581 -1331 
L 581 3500 
L 1159 3500 
L 1159 2969 
Q 1341 3281 1617 3432 
Q 1894 3584 2278 3584 
Q 2916 3584 3314 3078 
Q 3713 2572 3713 1747 
Q 3713 922 3314 415 
Q 2916 -91 2278 -91 
Q 1894 -91 1617 61 
Q 1341 213 1159 525 
z
M 3116 1747 
Q 3116 2381 2855 2742 
Q 2594 3103 2138 3103 
Q 1681 3103 1420 2742 
Q 1159 2381 1159 1747 
Q 1159 1113 1420 752 
Q 1681 391 2138 391 
Q 2594 391 2855 752 
Q 3116 1113 3116 1747 
z
" transform="scale(0.015625)"/>
      </defs>
      <use xlink:href="#DejaVuSans-47"/>
      <use xlink:href="#DejaVuSans-72" x="77.490234"/>
      <use xlink:href="#DejaVuSans-61" x="118.603516"/>
      <use xlink:href="#DejaVuSans-64" x="179.882812"/>
      <use xlink:href="#DejaVuSans-69" x="243.359375"/>
      <use xlink:href="#DejaVuSans-65" x="271.142578"/>
      <use xlink:href="#DejaVuSans-6e" x="332.666016"/>
      <use xlink:href="#DejaVuSans-74" x="396.044922"/>
      <use xlink:href="#DejaVuSans-20" x="435.253906"/>
      <use xlink:href="#DejaVuSans-73" x="467.041016"/>
      <use xlink:href="#DejaVuSans-74" x="519.140625"/>
      <use xlink:href="#DejaVuSans-65" x="558.349609"/>
      <use xlink:href="#DejaVuSans-70" x="619.873047"/>
     </g>
    </g>
   </g>
   <g id="matplotlib.axis_4">
    <g id="ytick_8">
     <g id="line2d_24">
      <g>
       <use xlink:href="#m148c0d895c" x="90" y="512.64" style="stroke: #000000; stroke-width: 0.8"/>
      </g>
     </g>
     <g id="text_25">
      <!-- 0 -->
      <g transform="translate(76.6375 516.439219) scale(0.1 -0.1)">
       <use xlink:href="#DejaVuSans-30"/>
      </g>
     </g>
    </g>
    <g id="ytick_9">
     <g id="line2d_25">
      <g>
       <use xlink:href="#m148c0d895c" x="90" y="472.32" style="stroke: #000000; stroke-width: 0.8"/>
      </g>
     </g>
     <g id="text_26">
      <!-- 20 -->
      <g transform="translate(70.275 476.119219) scale(0.1 -0.1)">
       <use xlink:href="#DejaVuSans-32"/>
       <use xlink:href="#DejaVuSans-30" x="63.623047"/>
      </g>
     </g>
    </g>
    <g id="ytick_10">
     <g id="line2d_26">
      <g>
       <use xlink:href="#m148c0d895c" x="90" y="432" style="stroke: #000000; stroke-width: 0.8"/>
      </g>
     </g>
     <g id="text_27">
      <!-- 40 -->
      <g transform="translate(70.275 435.799219) scale(0.1 -0.1)">
       <use xlink:href="#DejaVuSans-34"/>
       <use xlink:href="#DejaVuSans-30" x="63.623047"/>
      </g>
     </g>
    </g>
    <g id="ytick_11">
     <g id="line2d_27">
      <g>
       <use xlink:href="#m148c0d895c" x="90" y="391.68" style="stroke: #000000; stroke-width: 0.8"/>
      </g>
     </g>
     <g id="text_28">
      <!-- 60 -->
      <g transform="translate(70.275 395.479219) scale(0.1 -0.1)">
       <use xlink:href="#DejaVuSans-36"/>
       <use xlink:href="#DejaVuSans-30" x="63.623047"/>
      </g>
     </g>
    </g>
    <g id="ytick_12">
     <g id="line2d_28">
      <g>
       <use xlink:href="#m148c0d895c" x="90" y="351.36" style="stroke: #000000; stroke-width: 0.8"/>
      </g>
     </g>
     <g id="text_29">
      <!-- 80 -->
      <g transform="translate(70.275 355.159219) scale(0.1 -0.1)">
       <use xlink:href="#DejaVuSans-38"/>
       <use xlink:href="#DejaVuSans-30" x="63.623047"/>
      </g>
     </g>
    </g>
    <g id="ytick_13">
     <g id="line2d_29">
      <g>
       <use xlink:href="#m148c0d895c" x="90" y="311.04" style="stroke: #000000; stroke-width: 0.8"/>
      </g>
     </g>
     <g id="text_30">
      <!-- 100 -->
      <g transform="translate(63.9125 314.839219) scale(0.1 -0.1)">
       <use xlink:href="#DejaVuSans-31"/>
       <use xlink:href="#DejaVuSans-30" x="63.623047"/>
       <use xlink:href="#DejaVuSans-30" x="127.246094"/>
      </g>
     </g>
    </g>
    <g id="text_31">
     <!-- Pearson Correlation -->
     <g transform="translate(57.832812 460.860312) rotate(-90) scale(0.1 -0.1)">
      <defs>
       <path id="DejaVuSans-50" d="M 1259 4147 
L 1259 2394 
L 2053 2394 
Q 2494 2394 2734 2622 
Q 2975 2850 2975 3272 
Q 2975 3691 2734 3919 
Q 2494 4147 2053 4147 
L 1259 4147 
z
M 628 4666 
L 2053 4666 
Q 2838 4666 3239 4311 
Q 3641 3956 3641 3272 
Q 3641 2581 3239 2228 
Q 2838 1875 2053 1875 
L 1259 1875 
L 1259 0 
L 628 0 
L 628 4666 
z
" transform="scale(0.015625)"/>
       <path id="DejaVuSans-6c" d="M 603 4863 
L 1178 4863 
L 1178 0 
L 603 0 
L 603 4863 
z
" transform="scale(0.015625)"/>
      </defs>
      <use xlink:href="#DejaVuSans-50"/>
      <use xlink:href="#DejaVuSans-65" x="56.677734"/>
      <use xlink:href="#DejaVuSans-61" x="118.201172"/>
      <use xlink:href="#DejaVuSans-72" x="179.480469"/>
      <use xlink:href="#DejaVuSans-73" x="220.59375"/>
      <use xlink:href="#DejaVuSans-6f" x="272.693359"/>
      <use xlink:href="#DejaVuSans-6e" x="333.875"/>
      <use xlink:href="#DejaVuSans-20" x="397.253906"/>
      <use xlink:href="#DejaVuSans-43" x="429.041016"/>
      <use xlink:href="#DejaVuSans-6f" x="498.865234"/>
      <use xlink:href="#DejaVuSans-72" x="560.046875"/>
      <use xlink:href="#DejaVuSans-72" x="599.410156"/>
      <use xlink:href="#DejaVuSans-65" x="638.273438"/>
      <use xlink:href="#DejaVuSans-6c" x="699.796875"/>
      <use xlink:href="#DejaVuSans-61" x="727.580078"/>
      <use xlink:href="#DejaVuSans-74" x="788.859375"/>
      <use xlink:href="#DejaVuSans-69" x="828.068359"/>
      <use xlink:href="#DejaVuSans-6f" x="855.851562"/>
      <use xlink:href="#DejaVuSans-6e" x="917.033203"/>
     </g>
    </g>
   </g>
   <g id="line2d_30">
    <path d="M 115.363636 513.196364 
L 115.871417 511.876533 
L 116.379197 512.747281 
L 117.394758 511.621759 
L 118.410319 511.307492 
L 119.42588 510.945707 
L 120.949222 510.076428 
L 123.995905 507.896209 
L 126.027027 505.998232 
L 128.56593 503.334757 
L 130.089271 501.330292 
L 131.612613 498.856225 
L 133.135954 495.830298 
L 134.659296 492.099772 
L 135.674857 489.062419 
L 137.198198 483.513226 
L 138.213759 479.070781 
L 139.22932 473.816332 
L 140.752662 464.322245 
L 142.276003 452.849412 
L 144.814906 429.367308 
L 147.353808 404.887022 
L 148.369369 397.072481 
L 149.38493 390.811154 
L 150.400491 386.375071 
L 151.416052 383.663417 
L 151.923833 382.719842 
L 152.431613 382.087799 
L 153.447174 381.36026 
L 154.462735 381.114891 
L 155.986077 381.078285 
L 159.03276 381.028553 
L 161.571663 380.675466 
L 164.110565 380.111583 
L 167.665029 379.310898 
L 170.203931 378.993374 
L 173.758395 378.839869 
L 187.468468 378.646639 
L 215.396396 378.61266 
L 244.847666 378.609651 
L 622.636364 378.610359 
L 622.636364 378.610359 
" clip-path="url(#p34abf06875)" style="fill: none; stroke: #1f77b4; stroke-width: 1.5; stroke-linecap: square"/>
   </g>
   <g id="line2d_31">
    <path d="M 115.363636 513.274104 
L 115.871417 512.03487 
L 116.379197 512.890258 
L 117.394758 511.788805 
L 118.410319 511.467202 
L 119.42588 511.102416 
L 120.949222 510.260312 
L 123.995905 508.10485 
L 126.027027 506.22864 
L 128.56593 503.592976 
L 130.089271 501.614093 
L 131.612613 499.156564 
L 133.135954 496.150866 
L 134.659296 492.442151 
L 135.674857 489.4385 
L 137.198198 483.952546 
L 138.213759 479.554277 
L 139.22932 474.361507 
L 140.752662 464.98032 
L 142.276003 453.653745 
L 144.814906 430.485509 
L 147.353808 406.359709 
L 148.369369 398.66354 
L 149.38493 392.499915 
L 150.400491 388.134594 
L 151.416052 385.465891 
L 151.923833 384.53927 
L 152.431613 383.918894 
L 153.447174 383.207708 
L 154.462735 382.969714 
L 155.986077 382.938481 
L 159.03276 382.902079 
L 161.571663 382.553285 
L 164.110565 381.985309 
L 167.665029 381.167269 
L 170.203931 380.847605 
L 173.250614 380.726732 
L 191.530713 380.496868 
L 234.692056 380.474943 
L 422.570844 380.473964 
L 457.607699 380.473319 
L 622.636364 380.474026 
L 622.636364 380.474026 
" clip-path="url(#p34abf06875)" style="fill: none; stroke: #ff7f0e; stroke-width: 1.5; stroke-linecap: square"/>
   </g>
   <g id="patch_9">
    <path d="M 90 512.64 
L 90 311.04 
" style="fill: none; stroke: #000000; stroke-width: 0.8; stroke-linejoin: miter; stroke-linecap: square"/>
   </g>
   <g id="patch_10">
    <path d="M 648 512.64 
L 648 311.04 
" style="fill: none; stroke: #000000; stroke-width: 0.8; stroke-linejoin: miter; stroke-linecap: square"/>
   </g>
   <g id="patch_11">
    <path d="M 90 512.64 
L 648 512.64 
" style="fill: none; stroke: #000000; stroke-width: 0.8; stroke-linejoin: miter; stroke-linecap: square"/>
   </g>
   <g id="patch_12">
    <path d="M 90 311.04 
L 648 311.04 
" style="fill: none; stroke: #000000; stroke-width: 0.8; stroke-linejoin: miter; stroke-linecap: square"/>
   </g>
  </g>
 </g>
 <defs>
  <clipPath id="p563e036185">
   <rect x="90" y="69.12" width="558" height="201.6"/>
  </clipPath>
  <clipPath id="p34abf06875">
   <rect x="90" y="311.04" width="558" height="201.6"/>
  </clipPath>
 </defs>
</svg>
